Graphik-SuperItalic.ufo
<glyph name="exclam" format="2">
  <advance width="358"/>
  <unicode hex="0021"/>
  <outline>
    <contour>
      <point x="154" y="-14" type="curve" smooth="yes"/>
      <point x="83" y="-14"/>
      <point x="32" y="37"/>
      <point x="32" y="102" type="curve" smooth="yes"/>
      <point x="32" y="167"/>
      <point x="86" y="221"/>
      <point x="157" y="221" type="curve" smooth="yes"/>
      <point x="228" y="221"/>
      <point x="281" y="169"/>
      <point x="281" y="104" type="curve" smooth="yes"/>
      <point x="281" y="39"/>
      <point x="225" y="-14"/>
    </contour>
    <contour>
      <point x="80" y="252" type="line"/>
      <point x="121" y="715" type="line"/>
      <point x="379" y="715" type="line"/>
      <point x="272" y="252" type="line"/>
    </contour>
  </outline>
</glyph>
<glyph name="quotedbl" format="2">
  <advance width="507"/>
  <unicode hex="0022"/>
  <outline>
    <contour>
      <point x="81" y="424" type="line"/>
      <point x="101" y="715" type="line"/>
      <point x="310" y="715" type="line"/>
      <point x="242" y="424" type="line"/>
    </contour>
    <contour>
      <point x="319" y="424" type="line"/>
      <point x="339" y="715" type="line"/>
      <point x="548" y="715" type="line"/>
      <point x="480" y="424" type="line"/>
    </contour>
  </outline>
</glyph>
<glyph name="numbersign" format="2">
  <advance width="603"/>
  <unicode hex="0023"/>
  <outline>
    <contour>
      <point x="274" y="99" type="line"/>
      <point x="303" y="220" type="line"/>
      <point x="258" y="220" type="line"/>
      <point x="229" y="99" type="line"/>
      <point x="81" y="99" type="line"/>
      <point x="110" y="220" type="line"/>
      <point x="37" y="220" type="line"/>
      <point x="66" y="398" type="line"/>
      <point x="152" y="398" type="line"/>
      <point x="163" y="444" type="line"/>
      <point x="90" y="444" type="line"/>
      <point x="115" y="612" type="line"/>
      <point x="203" y="612" type="line"/>
      <point x="228" y="715" type="line"/>
      <point x="376" y="715" type="line"/>
      <point x="351" y="612" type="line"/>
      <point x="396" y="612" type="line"/>
      <point x="421" y="715" type="line"/>
      <point x="569" y="715" type="line"/>
      <point x="544" y="612" type="line"/>
      <point x="618" y="612" type="line"/>
      <point x="593" y="444" type="line"/>
      <point x="504" y="444" type="line"/>
      <point x="493" y="398" type="line"/>
      <point x="569" y="398" type="line"/>
      <point x="540" y="220" type="line"/>
      <point x="451" y="220" type="line"/>
      <point x="422" y="99" type="line"/>
    </contour>
    <contour>
      <point x="311" y="444" type="line"/>
      <point x="300" y="398" type="line"/>
      <point x="345" y="398" type="line"/>
      <point x="356" y="444" type="line"/>
    </contour>
  </outline>
</glyph>
<glyph name="dollar" format="2">
  <advance width="657"/>
  <unicode hex="0024"/>
  <outline>
    <contour>
      <point x="224" y="-135" type="line"/>
      <point x="244" y="-8" type="line"/>
      <point x="124" y="8"/>
      <point x="8" y="67"/>
      <point x="3" y="230" type="curve"/>
      <point x="231" y="230" type="line"/>
      <point x="231" y="194"/>
      <point x="246" y="173"/>
      <point x="271" y="163" type="curve"/>
      <point x="286" y="260" type="line"/>
      <point x="118" y="293"/>
      <point x="53" y="353"/>
      <point x="53" y="473" type="curve" smooth="yes"/>
      <point x="53" y="636"/>
      <point x="194" y="723"/>
      <point x="360" y="726" type="curve"/>
      <point x="374" y="813" type="line"/>
      <point x="462" y="813" type="line"/>
      <point x="447" y="721" type="line"/>
      <point x="571" y="706"/>
      <point x="671" y="649"/>
      <point x="678" y="497" type="curve"/>
      <point x="456" y="497" type="line"/>
      <point x="455" y="523"/>
      <point x="441" y="540"/>
      <point x="420" y="549" type="curve"/>
      <point x="405" y="452" type="line"/>
      <point x="552" y="423"/>
      <point x="643" y="372"/>
      <point x="643" y="243" type="curve" smooth="yes"/>
      <point x="643" y="70"/>
      <point x="507" y="-11"/>
      <point x="331" y="-13" type="curve"/>
      <point x="312" y="-135" type="line"/>
    </contour>
    <contour>
      <point x="414" y="202" type="curve" smooth="yes"/>
      <point x="414" y="220"/>
      <point x="402" y="232"/>
      <point x="372" y="242" type="curve"/>
      <point x="358" y="154" type="line"/>
      <point x="395" y="158"/>
      <point x="414" y="173"/>
    </contour>
    <contour>
      <point x="278" y="512" type="curve" smooth="yes"/>
      <point x="278" y="489"/>
      <point x="289" y="477"/>
      <point x="319" y="468" type="curve"/>
      <point x="333" y="557" type="line"/>
      <point x="306" y="553"/>
      <point x="278" y="542"/>
    </contour>
  </outline>
</glyph>
<glyph name="percent" format="2">
  <advance width="849"/>
  <unicode hex="0025"/>
  <outline>
    <contour>
      <point x="212" y="524" type="curve" smooth="yes"/>
      <point x="212" y="500"/>
      <point x="222" y="478"/>
      <point x="251" y="479" type="curve" smooth="yes"/>
      <point x="286" y="480"/>
      <point x="298" y="525"/>
      <point x="298" y="560" type="curve" smooth="yes"/>
      <point x="298" y="584"/>
      <point x="286" y="603"/>
      <point x="261" y="603" type="curve" smooth="yes"/>
      <point x="227" y="603"/>
      <point x="212" y="565"/>
    </contour>
    <contour>
      <point x="245" y="354" type="curve" smooth="yes"/>
      <point x="143" y="354"/>
      <point x="51" y="406"/>
      <point x="51" y="516" type="curve" smooth="yes"/>
      <point x="51" y="633"/>
      <point x="136" y="724"/>
      <point x="266" y="724" type="curve" smooth="yes"/>
      <point x="364" y="724"/>
      <point x="458" y="670"/>
      <point x="458" y="562" type="curve" smooth="yes"/>
      <point x="458" y="449"/>
      <point x="373" y="354"/>
    </contour>
    <contour>
      <point x="95" y="0" type="line"/>
      <point x="687" y="715" type="line"/>
      <point x="796" y="715" type="line"/>
      <point x="204" y="0" type="line"/>
    </contour>
    <contour>
      <point x="590" y="156" type="curve" smooth="yes"/>
      <point x="590" y="132"/>
      <point x="600" y="110"/>
      <point x="629" y="111" type="curve" smooth="yes"/>
      <point x="664" y="112"/>
      <point x="676" y="157"/>
      <point x="676" y="192" type="curve" smooth="yes"/>
      <point x="676" y="216"/>
      <point x="664" y="235"/>
      <point x="639" y="235" type="curve" smooth="yes"/>
      <point x="605" y="235"/>
      <point x="590" y="197"/>
    </contour>
    <contour>
      <point x="623" y="-14" type="curve" smooth="yes"/>
      <point x="521" y="-14"/>
      <point x="429" y="38"/>
      <point x="429" y="148" type="curve" smooth="yes"/>
      <point x="429" y="262"/>
      <point x="514" y="356"/>
      <point x="644" y="356" type="curve" smooth="yes"/>
      <point x="742" y="356"/>
      <point x="836" y="302"/>
      <point x="836" y="194" type="curve" smooth="yes"/>
      <point x="836" y="81"/>
      <point x="751" y="-14"/>
    </contour>
  </outline>
</glyph>
<glyph name="ampersand" format="2">
  <advance width="804"/>
  <unicode hex="0026"/>
  <outline>
    <contour>
      <point x="810" y="374" type="line"/>
      <point x="654" y="133" type="line"/>
      <point x="739" y="0" type="line"/>
      <point x="457" y="0" type="line"/>
      <point x="432" y="38" type="line"/>
      <point x="390" y="11"/>
      <point x="334" y="-14"/>
      <point x="243" y="-14" type="curve" smooth="yes"/>
      <point x="119" y="-14"/>
      <point x="6" y="44"/>
      <point x="6" y="192" type="curve" smooth="yes"/>
      <point x="6" y="309"/>
      <point x="91" y="370"/>
      <point x="193" y="412" type="curve"/>
      <point x="175" y="440"/>
      <point x="163" y="482"/>
      <point x="163" y="515" type="curve" smooth="yes"/>
      <point x="163" y="655"/>
      <point x="291" y="727"/>
      <point x="436" y="727" type="curve" smooth="yes"/>
      <point x="545" y="727"/>
      <point x="671" y="684"/>
      <point x="671" y="550" type="curve" smooth="yes"/>
      <point x="671" y="451"/>
      <point x="594" y="403"/>
      <point x="508" y="368" type="curve"/>
      <point x="557" y="291" type="line"/>
      <point x="611" y="374" type="line"/>
    </contour>
    <contour>
      <point x="250" y="220" type="curve" smooth="yes"/>
      <point x="250" y="186"/>
      <point x="269" y="159"/>
      <point x="311" y="159" type="curve" smooth="yes"/>
      <point x="328" y="159"/>
      <point x="342" y="163"/>
      <point x="348" y="166" type="curve"/>
      <point x="276" y="278" type="line"/>
      <point x="264" y="267"/>
      <point x="250" y="248"/>
    </contour>
    <contour>
      <point x="432" y="570" type="curve" smooth="yes"/>
      <point x="406" y="570"/>
      <point x="386" y="552"/>
      <point x="386" y="522" type="curve" smooth="yes"/>
      <point x="386" y="501"/>
      <point x="399" y="480"/>
      <point x="415" y="462" type="curve"/>
      <point x="446" y="477"/>
      <point x="473" y="496"/>
      <point x="473" y="530" type="curve" smooth="yes"/>
      <point x="473" y="553"/>
      <point x="457" y="570"/>
    </contour>
  </outline>
</glyph>
<glyph name="parenleft" format="2">
  <advance width="373"/>
  <unicode hex="0028"/>
  <outline>
    <contour>
      <point x="302" y="-148" type="curve"/>
      <point x="133" y="-148" type="line"/>
      <point x="83" y="-70"/>
      <point x="27" y="41"/>
      <point x="27" y="214" type="curve" smooth="yes"/>
      <point x="27" y="438"/>
      <point x="124" y="634"/>
      <point x="281" y="776" type="curve"/>
      <point x="456" y="776" type="line"/>
      <point x="322" y="593"/>
      <point x="240" y="424"/>
      <point x="240" y="194" type="curve" smooth="yes"/>
      <point x="240" y="48"/>
      <point x="269" y="-69"/>
    </contour>
  </outline>
</glyph>
<glyph name="parenright" format="2">
  <advance width="373"/>
  <unicode hex="0029"/>
  <outline>
    <contour>
      <point x="84" y="776" type="curve"/>
      <point x="253" y="776" type="line"/>
      <point x="303" y="698"/>
      <point x="359" y="587"/>
      <point x="359" y="414" type="curve" smooth="yes"/>
      <point x="359" y="190"/>
      <point x="262" y="-6"/>
      <point x="105" y="-148" type="curve"/>
      <point x="-70" y="-148" type="line"/>
      <point x="64" y="35"/>
      <point x="146" y="204"/>
      <point x="146" y="434" type="curve" smooth="yes"/>
      <point x="146" y="580"/>
      <point x="117" y="697"/>
    </contour>
  </outline>
</glyph>
<glyph name="asterisk" format="2">
  <advance width="450"/>
  <unicode hex="002A"/>
  <outline>
    <contour>
      <point x="191" y="353" type="line"/>
      <point x="72" y="456" type="line"/>
      <point x="176" y="528" type="line"/>
      <point x="63" y="541" type="line"/>
      <point x="128" y="689" type="line"/>
      <point x="225" y="627" type="line"/>
      <point x="211" y="743" type="line"/>
      <point x="389" y="743" type="line"/>
      <point x="339" y="620" type="line"/>
      <point x="452" y="667" type="line"/>
      <point x="469" y="514" type="line"/>
      <point x="354" y="517" type="line"/>
      <point x="434" y="432" type="line"/>
      <point x="285" y="347" type="line"/>
      <point x="256" y="461" type="line"/>
    </contour>
  </outline>
</glyph>
<glyph name="plus" format="2">
  <advance width="596"/>
  <unicode hex="002B"/>
  <outline>
    <contour>
      <point x="177" y="72" type="line"/>
      <point x="206" y="258" type="line"/>
      <point x="36" y="258" type="line"/>
      <point x="62" y="420" type="line"/>
      <point x="232" y="420" type="line"/>
      <point x="261" y="606" type="line"/>
      <point x="441" y="606" type="line"/>
      <point x="412" y="420" type="line"/>
      <point x="582" y="420" type="line"/>
      <point x="556" y="258" type="line"/>
      <point x="386" y="258" type="line"/>
      <point x="357" y="72" type="line"/>
    </contour>
  </outline>
</glyph>
<glyph name="hyphen" format="2">
  <advance width="406"/>
  <unicode hex="002D"/>
  <outline>
    <contour>
      <point x="36" y="208" type="line"/>
      <point x="63" y="373" type="line"/>
      <point x="377" y="373" type="line"/>
      <point x="350" y="208" type="line"/>
    </contour>
  </outline>
</glyph>
<glyph name="period" format="2">
  <advance width="308"/>
  <unicode hex="002E"/>
  <outline>
    <contour>
      <point x="126" y="-14" type="curve" smooth="yes"/>
      <point x="55" y="-14"/>
      <point x="4" y="39"/>
      <point x="4" y="106" type="curve" smooth="yes"/>
      <point x="4" y="172"/>
      <point x="54" y="226"/>
      <point x="125" y="226" type="curve" smooth="yes"/>
      <point x="198" y="226"/>
      <point x="252" y="172"/>
      <point x="252" y="106" type="curve" smooth="yes"/>
      <point x="252" y="39"/>
      <point x="199" y="-14"/>
    </contour>
  </outline>
</glyph>
<glyph name="zero" format="2">
  <advance width="758"/>
  <unicode hex="0030"/>
  <outline>
    <contour>
      <point x="302" y="352" type="line" smooth="yes"/>
      <point x="298" y="324"/>
      <point x="294" y="298"/>
      <point x="294" y="276" type="curve" smooth="yes"/>
      <point x="294" y="226"/>
      <point x="314" y="190"/>
      <point x="374" y="190" type="curve" smooth="yes"/>
      <point x="441" y="190"/>
      <point x="465" y="236"/>
      <point x="481" y="337" type="curve" smooth="yes"/>
      <point x="485" y="362" type="line" smooth="yes"/>
      <point x="489" y="390"/>
      <point x="492" y="415"/>
      <point x="492" y="437" type="curve" smooth="yes"/>
      <point x="492" y="491"/>
      <point x="474" y="526"/>
      <point x="415" y="526" type="curve" smooth="yes"/>
      <point x="350" y="526"/>
      <point x="322" y="482"/>
      <point x="306" y="377" type="curve" smooth="yes"/>
    </contour>
    <contour>
      <point x="364" y="-14" type="curve" smooth="yes"/>
      <point x="166" y="-14"/>
      <point x="32" y="88"/>
      <point x="32" y="284" type="curve" smooth="yes"/>
      <point x="32" y="309"/>
      <point x="35" y="336"/>
      <point x="39" y="364" type="curve" smooth="yes"/>
      <point x="43" y="390" type="line" smooth="yes"/>
      <point x="78" y="618"/>
      <point x="224" y="726"/>
      <point x="421" y="726" type="curve" smooth="yes"/>
      <point x="609" y="726"/>
      <point x="754" y="628"/>
      <point x="754" y="424" type="curve" smooth="yes"/>
      <point x="754" y="401"/>
      <point x="752" y="375"/>
      <point x="748" y="350" type="curve" smooth="yes"/>
      <point x="744" y="324" type="line" smooth="yes"/>
      <point x="709" y="94"/>
      <point x="571" y="-14"/>
    </contour>
  </outline>
</glyph>
<glyph name="one" format="2">
  <advance width="476"/>
  <unicode hex="0031"/>
  <outline>
    <contour>
      <point x="113" y="0" type="line"/>
      <point x="184" y="455" type="line"/>
      <point x="49" y="383" type="line"/>
      <point x="84" y="606" type="line"/>
      <point x="265" y="715" type="line"/>
      <point x="492" y="715" type="line"/>
      <point x="379" y="0" type="line"/>
    </contour>
  </outline>
</glyph>
<glyph name="two" format="2">
  <advance width="646"/>
  <unicode hex="0032"/>
  <outline>
    <contour>
      <point x="-39" y="0" type="line"/>
      <point x="-34" y="34" type="line"/>
      <point x="237" y="283" type="line" smooth="yes"/>
      <point x="321" y="356"/>
      <point x="391" y="417"/>
      <point x="391" y="483" type="curve" smooth="yes"/>
      <point x="391" y="512"/>
      <point x="376" y="528"/>
      <point x="346" y="528" type="curve" smooth="yes"/>
      <point x="313" y="528"/>
      <point x="287" y="506"/>
      <point x="272" y="435" type="curve"/>
      <point x="33" y="435" type="line"/>
      <point x="54" y="633"/>
      <point x="189" y="726"/>
      <point x="370" y="726" type="curve" smooth="yes"/>
      <point x="536" y="726"/>
      <point x="655" y="656"/>
      <point x="655" y="506" type="curve" smooth="yes"/>
      <point x="655" y="387"/>
      <point x="577" y="314"/>
      <point x="486" y="240" type="curve" smooth="yes"/>
      <point x="431" y="195" type="line"/>
      <point x="615" y="195" type="line"/>
      <point x="585" y="0" type="line"/>
    </contour>
  </outline>
</glyph>
<glyph name="three" format="2">
  <advance width="677"/>
  <unicode hex="0033"/>
  <outline>
    <contour>
      <point x="335" y="-14" type="curve" smooth="yes"/>
      <point x="142" y="-14"/>
      <point x="16" y="60"/>
      <point x="15" y="248" type="curve"/>
      <point x="254" y="248" type="line"/>
      <point x="253" y="203"/>
      <point x="272" y="174"/>
      <point x="320" y="174" type="curve" smooth="yes"/>
      <point x="355" y="174"/>
      <point x="382" y="197"/>
      <point x="382" y="232" type="curve" smooth="yes"/>
      <point x="382" y="266"/>
      <point x="362" y="282"/>
      <point x="319" y="282" type="curve" smooth="yes"/>
      <point x="267" y="282" type="line"/>
      <point x="292" y="437" type="line"/>
      <point x="357" y="437" type="line" smooth="yes"/>
      <point x="398" y="437"/>
      <point x="421" y="454"/>
      <point x="422" y="493" type="curve" smooth="yes"/>
      <point x="423" y="526"/>
      <point x="400" y="540"/>
      <point x="371" y="540" type="curve" smooth="yes"/>
      <point x="331" y="540"/>
      <point x="305" y="518"/>
      <point x="297" y="471" type="curve"/>
      <point x="61" y="471" type="line"/>
      <point x="81" y="625"/>
      <point x="199" y="726"/>
      <point x="389" y="726" type="curve" smooth="yes"/>
      <point x="535" y="726"/>
      <point x="673" y="675"/>
      <point x="673" y="531" type="curve" smooth="yes"/>
      <point x="673" y="450"/>
      <point x="623" y="387"/>
      <point x="533" y="365" type="curve"/>
      <point x="604" y="348"/>
      <point x="648" y="292"/>
      <point x="648" y="223" type="curve" smooth="yes"/>
      <point x="648" y="56"/>
      <point x="485" y="-14"/>
    </contour>
  </outline>
</glyph>
<glyph name="four" format="2">
  <advance width="709"/>
  <unicode hex="0034"/>
  <outline>
    <contour>
      <point x="308" y="0" type="line"/>
      <point x="328" y="130" type="line"/>
      <point x="-15" y="130" type="line"/>
      <point x="1" y="232" type="line"/>
      <point x="362" y="715" type="line"/>
      <point x="676" y="715" type="line"/>
      <point x="611" y="308" type="line"/>
      <point x="699" y="308" type="line"/>
      <point x="671" y="130" type="line"/>
      <point x="583" y="130" type="line"/>
      <point x="563" y="0" type="line"/>
    </contour>
    <contour>
      <point x="253" y="308" type="line"/>
      <point x="363" y="308" type="line"/>
      <point x="395" y="509" type="line"/>
    </contour>
  </outline>
</glyph>
<glyph name="five" format="2">
  <advance width="654"/>
  <unicode hex="0035"/>
  <outline>
    <contour>
      <point x="308" y="-14" type="curve" smooth="yes"/>
      <point x="150" y="-14"/>
      <point x="5" y="51"/>
      <point x="7" y="241" type="curve"/>
      <point x="255" y="241" type="line"/>
      <point x="254" y="207"/>
      <point x="269" y="184"/>
      <point x="308" y="184" type="curve" smooth="yes"/>
      <point x="347" y="184"/>
      <point x="364" y="212"/>
      <point x="365" y="252" type="curve" smooth="yes"/>
      <point x="366" y="297"/>
      <point x="339" y="317"/>
      <point x="296" y="317" type="curve" smooth="yes"/>
      <point x="254" y="317"/>
      <point x="220" y="299"/>
      <point x="202" y="274" type="curve"/>
      <point x="38" y="274" type="line"/>
      <point x="125" y="715" type="line"/>
      <point x="648" y="715" type="line"/>
      <point x="618" y="526" type="line"/>
      <point x="284" y="526" type="line"/>
      <point x="260" y="404" type="line"/>
      <point x="291" y="448"/>
      <point x="349" y="489"/>
      <point x="439" y="489" type="curve" smooth="yes"/>
      <point x="554" y="489"/>
      <point x="632" y="421"/>
      <point x="631" y="278" type="curve" smooth="yes"/>
      <point x="630" y="95"/>
      <point x="508" y="-14"/>
    </contour>
  </outline>
</glyph>
<glyph name="six" format="2">
  <advance width="703"/>
  <unicode hex="0036"/>
  <outline>
    <contour>
      <point x="354" y="-14" type="curve" smooth="yes"/>
      <point x="161" y="-14"/>
      <point x="34" y="81"/>
      <point x="36" y="279" type="curve" smooth="yes"/>
      <point x="36" y="307"/>
      <point x="39" y="340"/>
      <point x="44" y="371" type="curve" smooth="yes"/>
      <point x="47" y="391" type="line" smooth="yes"/>
      <point x="78" y="597"/>
      <point x="224" y="726"/>
      <point x="418" y="726" type="curve" smooth="yes"/>
      <point x="562" y="726"/>
      <point x="696" y="668"/>
      <point x="702" y="495" type="curve"/>
      <point x="457" y="495" type="line"/>
      <point x="457" y="519"/>
      <point x="442" y="533"/>
      <point x="413" y="533" type="curve" smooth="yes"/>
      <point x="346" y="533"/>
      <point x="320" y="467"/>
      <point x="306" y="391" type="curve"/>
      <point x="335" y="429"/>
      <point x="381" y="471"/>
      <point x="466" y="470" type="curve" smooth="yes"/>
      <point x="573" y="470"/>
      <point x="682" y="406"/>
      <point x="682" y="267" type="curve" smooth="yes"/>
      <point x="682" y="82"/>
      <point x="530" y="-14"/>
    </contour>
    <contour>
      <point x="299" y="232" type="curve" smooth="yes"/>
      <point x="299" y="198"/>
      <point x="317" y="171"/>
      <point x="355" y="171" type="curve" smooth="yes"/>
      <point x="395" y="171"/>
      <point x="424" y="207"/>
      <point x="424" y="251" type="curve" smooth="yes"/>
      <point x="424" y="284"/>
      <point x="406" y="311"/>
      <point x="368" y="311" type="curve" smooth="yes"/>
      <point x="329" y="311"/>
      <point x="299" y="278"/>
    </contour>
  </outline>
</glyph>
<glyph name="seven" format="2">
  <advance width="603"/>
  <unicode hex="0037"/>
  <outline>
    <contour>
      <point x="49" y="0" type="line"/>
      <point x="303" y="499" type="line"/>
      <point x="57" y="499" type="line"/>
      <point x="91" y="715" type="line"/>
      <point x="673" y="715" type="line"/>
      <point x="669" y="689" type="line"/>
      <point x="322" y="0" type="line"/>
    </contour>
  </outline>
</glyph>
<glyph name="eight" format="2">
  <advance width="683"/>
  <unicode hex="0038"/>
  <outline>
    <contour>
      <point x="270" y="226" type="curve" smooth="yes"/>
      <point x="270" y="189"/>
      <point x="293" y="168"/>
      <point x="332" y="168" type="curve" smooth="yes"/>
      <point x="369" y="168"/>
      <point x="402" y="194"/>
      <point x="402" y="240" type="curve" smooth="yes"/>
      <point x="402" y="276"/>
      <point x="378" y="296"/>
      <point x="341" y="296" type="curve" smooth="yes"/>
      <point x="304" y="296"/>
      <point x="270" y="272"/>
    </contour>
    <contour>
      <point x="316" y="489" type="curve" smooth="yes"/>
      <point x="316" y="458"/>
      <point x="336" y="435"/>
      <point x="370" y="435" type="curve" smooth="yes"/>
      <point x="403" y="435"/>
      <point x="437" y="458"/>
      <point x="437" y="498" type="curve" smooth="yes"/>
      <point x="437" y="531"/>
      <point x="415" y="552"/>
      <point x="381" y="552" type="curve" smooth="yes"/>
      <point x="349" y="552"/>
      <point x="316" y="529"/>
    </contour>
    <contour>
      <point x="322" y="-14" type="curve" smooth="yes"/>
      <point x="158" y="-14"/>
      <point x="4" y="47"/>
      <point x="4" y="188" type="curve" smooth="yes"/>
      <point x="4" y="294"/>
      <point x="69" y="353"/>
      <point x="161" y="380" type="curve"/>
      <point x="112" y="406"/>
      <point x="82" y="450"/>
      <point x="82" y="506" type="curve" smooth="yes"/>
      <point x="82" y="658"/>
      <point x="228" y="726"/>
      <point x="386" y="726" type="curve" smooth="yes"/>
      <point x="516" y="726"/>
      <point x="677" y="680"/>
      <point x="677" y="529" type="curve" smooth="yes"/>
      <point x="677" y="453"/>
      <point x="629" y="392"/>
      <point x="555" y="363" type="curve"/>
      <point x="625" y="336"/>
      <point x="658" y="281"/>
      <point x="658" y="220" type="curve" smooth="yes"/>
      <point x="658" y="60"/>
      <point x="517" y="-14"/>
    </contour>
  </outline>
</glyph>
<glyph name="nine" format="2">
  <advance width="703"/>
  <unicode hex="0039"/>
  <outline>
    <contour>
      <point x="310" y="-13" type="curve" smooth="yes"/>
      <point x="161" y="-13"/>
      <point x="25" y="48"/>
      <point x="19" y="216" type="curve"/>
      <point x="263" y="216" type="line"/>
      <point x="265" y="192"/>
      <point x="289" y="181"/>
      <point x="318" y="181" type="curve" smooth="yes"/>
      <point x="382" y="181"/>
      <point x="407" y="235"/>
      <point x="424" y="318" type="curve"/>
      <point x="393" y="274"/>
      <point x="353" y="239"/>
      <point x="269" y="239" type="curve" smooth="yes"/>
      <point x="160" y="239"/>
      <point x="49" y="293"/>
      <point x="49" y="439" type="curve" smooth="yes"/>
      <point x="49" y="622"/>
      <point x="191" y="727"/>
      <point x="376" y="727" type="curve" smooth="yes"/>
      <point x="571" y="727"/>
      <point x="698" y="628"/>
      <point x="698" y="423" type="curve" smooth="yes"/>
      <point x="698" y="396"/>
      <point x="696" y="368"/>
      <point x="691" y="339" type="curve" smooth="yes"/>
      <point x="689" y="327" type="line" smooth="yes"/>
      <point x="651" y="99"/>
      <point x="528" y="-13"/>
    </contour>
    <contour>
      <point x="302" y="464" type="curve" smooth="yes"/>
      <point x="302" y="428"/>
      <point x="321" y="403"/>
      <point x="358" y="403" type="curve" smooth="yes"/>
      <point x="397" y="403"/>
      <point x="429" y="436"/>
      <point x="429" y="483" type="curve" smooth="yes"/>
      <point x="429" y="516"/>
      <point x="409" y="543"/>
      <point x="371" y="543" type="curve" smooth="yes"/>
      <point x="333" y="543"/>
      <point x="302" y="512"/>
    </contour>
  </outline>
</glyph>
<glyph name="colon" format="2">
  <advance width="312"/>
  <unicode hex="003A"/>
  <outline>
    <contour>
      <point x="128" y="-14" type="curve" smooth="yes"/>
      <point x="57" y="-14"/>
      <point x="6" y="39"/>
      <point x="6" y="106" type="curve" smooth="yes"/>
      <point x="6" y="172"/>
      <point x="56" y="226"/>
      <point x="127" y="226" type="curve" smooth="yes"/>
      <point x="200" y="226"/>
      <point x="254" y="172"/>
      <point x="254" y="106" type="curve" smooth="yes"/>
      <point x="254" y="39"/>
      <point x="201" y="-14"/>
    </contour>
    <contour>
      <point x="173" y="266" type="curve" smooth="yes"/>
      <point x="102" y="266"/>
      <point x="51" y="319"/>
      <point x="51" y="386" type="curve" smooth="yes"/>
      <point x="51" y="452"/>
      <point x="101" y="506"/>
      <point x="172" y="506" type="curve" smooth="yes"/>
      <point x="245" y="506"/>
      <point x="299" y="452"/>
      <point x="299" y="386" type="curve" smooth="yes"/>
      <point x="299" y="319"/>
      <point x="246" y="266"/>
    </contour>
  </outline>
</glyph>
<glyph name="semicolon" format="2">
  <advance width="336"/>
  <unicode hex="003B"/>
  <outline>
    <contour>
      <point x="203" y="266" type="curve" smooth="yes"/>
      <point x="132" y="266"/>
      <point x="81" y="319"/>
      <point x="81" y="386" type="curve" smooth="yes"/>
      <point x="81" y="452"/>
      <point x="131" y="506"/>
      <point x="202" y="506" type="curve" smooth="yes"/>
      <point x="275" y="506"/>
      <point x="329" y="452"/>
      <point x="329" y="386" type="curve" smooth="yes"/>
      <point x="329" y="319"/>
      <point x="276" y="266"/>
    </contour>
    <contour>
      <point x="95" y="-124" type="line"/>
      <point x="-29" y="-72" type="line"/>
      <point x="72" y="212" type="line"/>
      <point x="272" y="142" type="line"/>
    </contour>
  </outline>
</glyph>
<glyph name="less" format="2">
  <advance width="517"/>
  <unicode hex="003C"/>
  <outline>
    <contour>
      <point x="441" y="41" type="line"/>
      <point x="42" y="307" type="line"/>
      <point x="49" y="350" type="line"/>
      <point x="530" y="604" type="line"/>
      <point x="497" y="395" type="line"/>
      <point x="333" y="320" type="line"/>
      <point x="472" y="235" type="line"/>
    </contour>
  </outline>
</glyph>
<glyph name="greater" format="2">
  <advance width="517"/>
  <unicode hex="003E"/>
  <outline>
    <contour>
      <point x="93" y="605" type="line"/>
      <point x="492" y="339" type="line"/>
      <point x="485" y="296" type="line"/>
      <point x="4" y="42" type="line"/>
      <point x="37" y="251" type="line"/>
      <point x="201" y="326" type="line"/>
      <point x="62" y="411" type="line"/>
    </contour>
  </outline>
</glyph>
<glyph name="question" format="2">
  <advance width="591"/>
  <unicode hex="003F"/>
  <outline>
    <contour>
      <point x="161" y="252" type="line"/>
      <point x="163" y="262" type="line" smooth="yes"/>
      <point x="191" y="401"/>
      <point x="361" y="433"/>
      <point x="361" y="510" type="curve" smooth="yes"/>
      <point x="360" y="530"/>
      <point x="348" y="541"/>
      <point x="327" y="541" type="curve" smooth="yes"/>
      <point x="300" y="541"/>
      <point x="282" y="522"/>
      <point x="272" y="475" type="curve"/>
      <point x="48" y="475" type="line"/>
      <point x="69" y="647"/>
      <point x="199" y="726"/>
      <point x="358" y="726" type="curve" smooth="yes"/>
      <point x="525" y="726"/>
      <point x="611" y="657"/>
      <point x="611" y="539" type="curve" smooth="yes"/>
      <point x="611" y="374"/>
      <point x="433" y="345"/>
      <point x="380" y="255" type="curve"/>
      <point x="379" y="252" type="line"/>
    </contour>
    <contour>
      <point x="244" y="-14" type="curve" smooth="yes"/>
      <point x="173" y="-14"/>
      <point x="122" y="37"/>
      <point x="122" y="102" type="curve" smooth="yes"/>
      <point x="122" y="167"/>
      <point x="176" y="221"/>
      <point x="247" y="221" type="curve" smooth="yes"/>
      <point x="318" y="221"/>
      <point x="371" y="169"/>
      <point x="371" y="104" type="curve" smooth="yes"/>
      <point x="371" y="39"/>
      <point x="315" y="-14"/>
    </contour>
  </outline>
</glyph>
<glyph name="at" format="2">
  <advance width="919"/>
  <unicode hex="0040"/>
  <outline>
    <contour>
      <point x="461" y="-164" type="curve" smooth="yes"/>
      <point x="189" y="-164"/>
      <point x="20" y="13"/>
      <point x="20" y="247" type="curve" smooth="yes"/>
      <point x="20" y="521"/>
      <point x="244" y="692"/>
      <point x="486" y="692" type="curve" smooth="yes"/>
      <point x="719" y="692"/>
      <point x="903" y="555"/>
      <point x="903" y="329" type="curve" smooth="yes"/>
      <point x="903" y="125"/>
      <point x="790" y="45"/>
      <point x="664" y="45" type="curve" smooth="yes"/>
      <point x="579" y="45"/>
      <point x="525" y="70"/>
      <point x="509" y="124" type="curve"/>
      <point x="483" y="74"/>
      <point x="438" y="45"/>
      <point x="370" y="45" type="curve" smooth="yes"/>
      <point x="280" y="45"/>
      <point x="220" y="113"/>
      <point x="218" y="222" type="curve" smooth="yes"/>
      <point x="218" y="374"/>
      <point x="309" y="473"/>
      <point x="425" y="473" type="curve" smooth="yes"/>
      <point x="483" y="473"/>
      <point x="512" y="450"/>
      <point x="526" y="418" type="curve"/>
      <point x="535" y="465" type="line"/>
      <point x="715" y="465" type="line"/>
      <point x="669" y="182" type="line" smooth="yes"/>
      <point x="663" y="146"/>
      <point x="671" y="122"/>
      <point x="706" y="122" type="curve" smooth="yes"/>
      <point x="760" y="122"/>
      <point x="819" y="181"/>
      <point x="819" y="333" type="curve" smooth="yes"/>
      <point x="819" y="505"/>
      <point x="685" y="621"/>
      <point x="485" y="621" type="curve" smooth="yes"/>
      <point x="278" y="621"/>
      <point x="109" y="478"/>
      <point x="109" y="244" type="curve" smooth="yes"/>
      <point x="109" y="49"/>
      <point x="229" y="-93"/>
      <point x="466" y="-93" type="curve" smooth="yes"/>
      <point x="586" y="-93"/>
      <point x="689" y="-46"/>
      <point x="734" y="0" type="curve"/>
      <point x="832" y="0" type="line"/>
      <point x="759" y="-100"/>
      <point x="619" y="-164"/>
    </contour>
    <contour>
      <point x="444" y="190" type="curve" smooth="yes"/>
      <point x="480" y="190"/>
      <point x="503" y="235"/>
      <point x="503" y="286" type="curve" smooth="yes"/>
      <point x="503" y="313"/>
      <point x="490" y="332"/>
      <point x="461" y="332" type="curve" smooth="yes"/>
      <point x="429" y="332"/>
      <point x="402" y="294"/>
      <point x="403" y="237" type="curve" smooth="yes"/>
      <point x="403" y="209"/>
      <point x="415" y="190"/>
    </contour>
  </outline>
</glyph>
<glyph name="B" format="2">
  <advance width="709"/>
  <unicode hex="0042"/>
  <outline>
    <contour>
      <point x="16" y="0" type="line"/>
      <point x="129" y="715" type="line"/>
      <point x="462" y="715" type="line" smooth="yes"/>
      <point x="642" y="715"/>
      <point x="701" y="630"/>
      <point x="701" y="536" type="curve" smooth="yes"/>
      <point x="701" y="441"/>
      <point x="636" y="383"/>
      <point x="560" y="368" type="curve"/>
      <point x="628" y="354"/>
      <point x="684" y="308"/>
      <point x="684" y="221" type="curve" smooth="yes"/>
      <point x="684" y="90"/>
      <point x="573" y="0"/>
      <point x="398" y="0" type="curve" smooth="yes"/>
    </contour>
    <contour>
      <point x="302" y="172" type="line"/>
      <point x="353" y="172" type="line" smooth="yes"/>
      <point x="398" y="172"/>
      <point x="427" y="199"/>
      <point x="427" y="238" type="curve" smooth="yes"/>
      <point x="427" y="274"/>
      <point x="406" y="291"/>
      <point x="361" y="291" type="curve" smooth="yes"/>
      <point x="321" y="291" type="line"/>
    </contour>
    <contour>
      <point x="345" y="445" type="line"/>
      <point x="398" y="445" type="line" smooth="yes"/>
      <point x="441" y="445"/>
      <point x="461" y="465"/>
      <point x="461" y="499" type="curve" smooth="yes"/>
      <point x="461" y="532"/>
      <point x="441" y="544"/>
      <point x="405" y="544" type="curve" smooth="yes"/>
      <point x="361" y="544" type="line"/>
    </contour>
  </outline>
</glyph>
<glyph name="E" format="2">
  <advance width="635"/>
  <unicode hex="0045"/>
  <outline>
    <contour>
      <point x="16" y="0" type="line"/>
      <point x="129" y="715" type="line"/>
      <point x="663" y="715" type="line"/>
      <point x="631" y="512" type="line"/>
      <point x="362" y="512" type="line"/>
      <point x="352" y="451" type="line"/>
      <point x="564" y="451" type="line"/>
      <point x="536" y="269" type="line"/>
      <point x="324" y="269" type="line"/>
      <point x="313" y="203" type="line"/>
      <point x="597" y="203" type="line"/>
      <point x="565" y="0" type="line"/>
    </contour>
  </outline>
</glyph>
<glyph name="F" format="2">
  <advance width="596"/>
  <unicode hex="0046"/>
  <outline>
    <contour>
      <point x="16" y="0" type="line"/>
      <point x="129" y="715" type="line"/>
      <point x="646" y="715" type="line"/>
      <point x="613" y="511" type="line"/>
      <point x="363" y="511" type="line"/>
      <point x="348" y="411" type="line"/>
      <point x="551" y="411" type="line"/>
      <point x="520" y="218" type="line"/>
      <point x="317" y="218" type="line"/>
      <point x="283" y="0" type="line"/>
    </contour>
  </outline>
</glyph>
<glyph name="H" format="2">
  <advance width="812"/>
  <unicode hex="0048"/>
  <outline>
    <contour>
      <point x="16" y="0" type="line"/>
      <point x="129" y="715" type="line"/>
      <point x="396" y="715" type="line"/>
      <point x="357" y="468" type="line"/>
      <point x="520" y="468" type="line"/>
      <point x="559" y="715" type="line"/>
      <point x="825" y="715" type="line"/>
      <point x="712" y="0" type="line"/>
      <point x="446" y="0" type="line"/>
      <point x="487" y="263" type="line"/>
      <point x="324" y="263" type="line"/>
      <point x="283" y="0" type="line"/>
    </contour>
  </outline>
</glyph>
<glyph name="J" format="2">
  <advance width="508"/>
  <unicode hex="004A"/>
  <outline>
    <contour>
      <point x="162" y="-9" type="curve" smooth="yes"/>
      <point x="73" y="-9"/>
      <point x="22" y="9"/>
      <point x="-9" y="23" type="curve"/>
      <point x="22" y="217" type="line"/>
      <point x="45" y="209"/>
      <point x="73" y="201"/>
      <point x="110" y="201" type="curve" smooth="yes"/>
      <point x="151" y="201"/>
      <point x="187" y="217"/>
      <point x="195" y="270" type="curve" smooth="yes"/>
      <point x="266" y="715" type="line"/>
      <point x="533" y="715" type="line"/>
      <point x="461" y="261" type="line" smooth="yes"/>
      <point x="432" y="76"/>
      <point x="331" y="-9"/>
    </contour>
  </outline>
</glyph>
<glyph name="L" format="2">
  <advance width="595"/>
  <unicode hex="004C"/>
  <outline>
    <contour>
      <point x="16" y="0" type="line"/>
      <point x="129" y="715" type="line"/>
      <point x="396" y="715" type="line"/>
      <point x="315" y="204" type="line"/>
      <point x="556" y="204" type="line"/>
      <point x="524" y="0" type="line"/>
    </contour>
  </outline>
</glyph>
<glyph name="M" format="2">
  <advance width="986"/>
  <unicode hex="004D"/>
  <outline>
    <contour>
      <point x="16" y="0" type="line"/>
      <point x="129" y="715" type="line"/>
      <point x="461" y="715" type="line"/>
      <point x="509" y="429" type="line"/>
      <point x="652" y="715" type="line"/>
      <point x="998" y="715" type="line"/>
      <point x="885" y="0" type="line"/>
      <point x="620" y="0" type="line"/>
      <point x="680" y="380" type="line"/>
      <point x="478" y="0" type="line"/>
      <point x="388" y="0" type="line"/>
      <point x="312" y="380" type="line"/>
      <point x="252" y="0" type="line"/>
    </contour>
  </outline>
</glyph>
<glyph name="P" format="2">
  <advance width="688"/>
  <unicode hex="0050"/>
  <outline>
    <contour>
      <point x="16" y="0" type="line"/>
      <point x="129" y="715" type="line"/>
      <point x="416" y="715" type="line" smooth="yes"/>
      <point x="608" y="715"/>
      <point x="703" y="628"/>
      <point x="704" y="501" type="curve" smooth="yes"/>
      <point x="704" y="322"/>
      <point x="591" y="216"/>
      <point x="390" y="216" type="curve" smooth="yes"/>
      <point x="317" y="216" type="line"/>
      <point x="283" y="0" type="line"/>
    </contour>
    <contour>
      <point x="343" y="392" type="line"/>
      <point x="376" y="392" type="line" smooth="yes"/>
      <point x="424" y="392"/>
      <point x="453" y="417"/>
      <point x="453" y="468" type="curve" smooth="yes"/>
      <point x="453" y="500"/>
      <point x="431" y="521"/>
      <point x="387" y="521" type="curve" smooth="yes"/>
      <point x="363" y="521" type="line"/>
    </contour>
  </outline>
</glyph>
<glyph name="Q" format="2">
  <advance width="823"/>
  <unicode hex="0051"/>
  <outline>
    <contour>
      <point x="387" y="-14" type="curve" smooth="yes"/>
      <point x="201" y="-14"/>
      <point x="32" y="87"/>
      <point x="32" y="296" type="curve" smooth="yes"/>
      <point x="32" y="554"/>
      <point x="202" y="726"/>
      <point x="453" y="726" type="curve" smooth="yes"/>
      <point x="647" y="726"/>
      <point x="820" y="631"/>
      <point x="820" y="412" type="curve" smooth="yes"/>
      <point x="820" y="261"/>
      <point x="761" y="140"/>
      <point x="659" y="66" type="curve"/>
      <point x="715" y="10" type="line"/>
      <point x="558" y="-136" type="line"/>
      <point x="440" y="-11" type="line"/>
      <point x="423" y="-13"/>
      <point x="405" y="-14"/>
    </contour>
    <contour>
      <point x="308" y="307" type="curve" smooth="yes"/>
      <point x="308" y="265"/>
      <point x="319" y="222"/>
      <point x="352" y="200" type="curve"/>
      <point x="451" y="278" type="line"/>
      <point x="498" y="230" type="line"/>
      <point x="530" y="271"/>
      <point x="544" y="336"/>
      <point x="544" y="402" type="curve" smooth="yes"/>
      <point x="544" y="463"/>
      <point x="519" y="517"/>
      <point x="445" y="519" type="curve" smooth="yes"/>
      <point x="349" y="521"/>
      <point x="308" y="413"/>
    </contour>
  </outline>
</glyph>
<glyph name="V" format="2">
  <advance width="762"/>
  <unicode hex="0056"/>
  <outline>
    <contour>
      <point x="193" y="0" type="line"/>
      <point x="72" y="715" type="line"/>
      <point x="351" y="715" type="line"/>
      <point x="392" y="279" type="line"/>
      <point x="572" y="715" type="line"/>
      <point x="832" y="715" type="line"/>
      <point x="492" y="0" type="line"/>
    </contour>
  </outline>
</glyph>
<glyph name="X" format="2">
  <advance width="783"/>
  <unicode hex="0058"/>
  <outline>
    <contour>
      <point x="-32" y="0" type="line"/>
      <point x="239" y="377" type="line"/>
      <point x="98" y="715" type="line"/>
      <point x="385" y="715" type="line"/>
      <point x="437" y="536" type="line"/>
      <point x="541" y="715" type="line"/>
      <point x="816" y="715" type="line"/>
      <point x="586" y="370" type="line"/>
      <point x="741" y="0" type="line"/>
      <point x="455" y="0" type="line"/>
      <point x="383" y="218" type="line"/>
      <point x="246" y="0" type="line"/>
    </contour>
  </outline>
</glyph>
<glyph name="bracketleft" format="2">
  <advance width="437"/>
  <unicode hex="005B"/>
  <outline>
    <contour>
      <point x="-12" y="-148" type="line"/>
      <point x="134" y="776" type="line"/>
      <point x="482" y="776" type="line"/>
      <point x="456" y="612" type="line"/>
      <point x="339" y="612" type="line"/>
      <point x="245" y="16" type="line"/>
      <point x="362" y="16" type="line"/>
      <point x="336" y="-148" type="line"/>
    </contour>
  </outline>
</glyph>
<glyph name="backslash" format="2">
  <advance width="450"/>
  <unicode hex="005C"/>
  <outline>
    <contour>
      <point x="264" y="-148" type="line"/>
      <point x="52" y="776" type="line"/>
      <point x="222" y="776" type="line"/>
      <point x="434" y="-148" type="line"/>
    </contour>
  </outline>
</glyph>
<glyph name="bracketright" format="2">
  <advance width="600"/>
  <unicode hex="005D"/>
  <outline>
    <contour>
      <point x="-30" y="-148" type="line"/>
      <point x="-4" y="16" type="line"/>
      <point x="111" y="16" type="line"/>
      <point x="205" y="612" type="line"/>
      <point x="90" y="612" type="line"/>
      <point x="116" y="776" type="line"/>
      <point x="462" y="776" type="line"/>
      <point x="316" y="-148" type="line"/>
    </contour>
  </outline>
</glyph>
<glyph name="asciicircum" format="2">
  <advance width="543"/>
  <unicode hex="005E"/>
  <outline>
    <contour>
      <point x="31" y="386" type="line"/>
      <point x="243" y="715" type="line"/>
      <point x="436" y="715" type="line"/>
      <point x="550" y="386" type="line"/>
      <point x="366" y="386" type="line"/>
      <point x="316" y="531" type="line"/>
      <point x="221" y="386" type="line"/>
    </contour>
  </outline>
</glyph>
<glyph name="grave" format="2">
  <advance width="400"/>
  <unicode hex="0060"/>
  <outline>
    <contour>
      <point x="177" y="568" type="line"/>
      <point x="82" y="743" type="line"/>
      <point x="299" y="743" type="line"/>
      <point x="335" y="568" type="line"/>
    </contour>
  </outline>
</glyph>
<glyph name="b" format="2">
  <advance width="651"/>
  <unicode hex="0062"/>
  <outline>
    <contour>
      <point x="223" y="0" type="line"/>
      <point x="-6" y="0" type="line"/>
      <point x="112" y="743" type="line"/>
      <point x="341" y="743" type="line"/>
      <point x="294" y="445" type="line"/>
      <point x="328" y="502"/>
      <point x="383" y="539"/>
      <point x="466" y="539" type="curve" smooth="yes"/>
      <point x="563" y="539"/>
      <point x="637" y="468"/>
      <point x="637" y="315" type="curve" smooth="yes"/>
      <point x="637" y="98"/>
      <point x="526" y="-14"/>
      <point x="388" y="-14" type="curve" smooth="yes"/>
      <point x="316" y="-14"/>
      <point x="254" y="21"/>
      <point x="237" y="81" type="curve"/>
    </contour>
    <contour>
      <point x="315" y="156" type="curve" smooth="yes"/>
      <point x="365" y="156"/>
      <point x="403" y="211"/>
      <point x="403" y="298" type="curve" smooth="yes"/>
      <point x="403" y="346"/>
      <point x="384" y="373"/>
      <point x="344" y="373" type="curve" smooth="yes"/>
      <point x="292" y="373"/>
      <point x="258" y="310"/>
      <point x="258" y="232" type="curve" smooth="yes"/>
      <point x="258" y="182"/>
      <point x="276" y="156"/>
    </contour>
  </outline>
</glyph>
<glyph name="d" format="2">
  <advance width="651"/>
  <unicode hex="0064"/>
  <outline>
    <contour>
      <point x="689" y="743" type="line"/>
      <point x="598" y="166" type="line" smooth="yes"/>
      <point x="587" y="98"/>
      <point x="583" y="45"/>
      <point x="587" y="0" type="curve"/>
      <point x="360" y="0" type="line"/>
      <point x="355" y="20"/>
      <point x="355" y="56"/>
      <point x="355" y="84" type="curve"/>
      <point x="318" y="22"/>
      <point x="267" y="-14"/>
      <point x="189" y="-14" type="curve" smooth="yes"/>
      <point x="85" y="-14"/>
      <point x="12" y="57"/>
      <point x="12" y="210" type="curve" smooth="yes"/>
      <point x="12" y="427"/>
      <point x="126" y="539"/>
      <point x="269" y="539" type="curve" smooth="yes"/>
      <point x="335" y="539"/>
      <point x="395" y="504"/>
      <point x="413" y="448" type="curve"/>
      <point x="460" y="743" type="line"/>
    </contour>
    <contour>
      <point x="334" y="373" type="curve" smooth="yes"/>
      <point x="284" y="373"/>
      <point x="246" y="318"/>
      <point x="246" y="231" type="curve" smooth="yes"/>
      <point x="246" y="183"/>
      <point x="264" y="154"/>
      <point x="304" y="154" type="curve" smooth="yes"/>
      <point x="356" y="154"/>
      <point x="391" y="219"/>
      <point x="391" y="297" type="curve" smooth="yes"/>
      <point x="391" y="347"/>
      <point x="373" y="373"/>
    </contour>
  </outline>
</glyph>
<glyph name="e" format="2">
  <advance width="616"/>
  <unicode hex="0065"/>
  <outline>
    <contour>
      <point x="590" y="215" type="line"/>
      <point x="238" y="215" type="line"/>
      <point x="239" y="175"/>
      <point x="256" y="134"/>
      <point x="312" y="134" type="curve" smooth="yes"/>
      <point x="354" y="134"/>
      <point x="371" y="158"/>
      <point x="379" y="184" type="curve"/>
      <point x="592" y="184" type="line"/>
      <point x="569" y="57"/>
      <point x="464" y="-14"/>
      <point x="307" y="-14" type="curve" smooth="yes"/>
      <point x="151" y="-14"/>
      <point x="16" y="53"/>
      <point x="16" y="230" type="curve" smooth="yes"/>
      <point x="16" y="418"/>
      <point x="152" y="539"/>
      <point x="332" y="539" type="curve" smooth="yes"/>
      <point x="515" y="539"/>
      <point x="622" y="426"/>
      <point x="593" y="235" type="curve" smooth="yes"/>
    </contour>
    <contour>
      <point x="329" y="398" type="curve" smooth="yes"/>
      <point x="296" y="398"/>
      <point x="266" y="377"/>
      <point x="250" y="321" type="curve"/>
      <point x="389" y="321" type="line"/>
      <point x="392" y="364"/>
      <point x="375" y="398"/>
    </contour>
  </outline>
</glyph>
<glyph name="j" format="2">
  <advance width="316"/>
  <unicode hex="006A"/>
  <outline>
    <contour>
      <point x="-83" y="-179" type="curve"/>
      <point x="-59" y="-20" type="line"/>
      <point x="-23" y="-18"/>
      <point x="0" y="-7"/>
      <point x="5" y="28" type="curve" smooth="yes"/>
      <point x="83" y="523" type="line"/>
      <point x="311" y="523" type="line"/>
      <point x="229" y="5" type="line" smooth="yes"/>
      <point x="213" y="-100"/>
      <point x="148" y="-193"/>
    </contour>
    <contour>
      <point x="215" y="544" type="curve" smooth="yes"/>
      <point x="146" y="544"/>
      <point x="98" y="590"/>
      <point x="98" y="654" type="curve" smooth="yes"/>
      <point x="98" y="718"/>
      <point x="147" y="764"/>
      <point x="216" y="764" type="curve" smooth="yes"/>
      <point x="284" y="764"/>
      <point x="334" y="718"/>
      <point x="334" y="654" type="curve" smooth="yes"/>
      <point x="334" y="590"/>
      <point x="283" y="544"/>
    </contour>
  </outline>
</glyph>
<glyph name="k" format="2">
  <advance width="609"/>
  <unicode hex="006B"/>
  <outline>
    <contour>
      <point x="-5" y="0" type="line"/>
      <point x="112" y="743" type="line"/>
      <point x="341" y="743" type="line"/>
      <point x="276" y="335" type="line"/>
      <point x="411" y="523" type="line"/>
      <point x="652" y="523" type="line"/>
      <point x="461" y="280" type="line"/>
      <point x="572" y="0" type="line"/>
      <point x="329" y="0" type="line"/>
      <point x="257" y="209" type="line"/>
      <point x="224" y="0" type="line"/>
    </contour>
  </outline>
</glyph>
<glyph name="m" format="2">
  <advance width="939"/>
  <unicode hex="006D"/>
  <outline>
    <contour>
      <point x="289" y="429" type="curve"/>
      <point x="323" y="484"/>
      <point x="387" y="539"/>
      <point x="470" y="539" type="curve" smooth="yes"/>
      <point x="536" y="539"/>
      <point x="581" y="507"/>
      <point x="599" y="441" type="curve"/>
      <point x="641" y="502"/>
      <point x="704" y="539"/>
      <point x="775" y="539" type="curve" smooth="yes"/>
      <point x="876" y="539"/>
      <point x="940" y="471"/>
      <point x="919" y="336" type="curve" smooth="yes"/>
      <point x="866" y="0" type="line"/>
      <point x="638" y="0" type="line"/>
      <point x="684" y="295" type="line" smooth="yes"/>
      <point x="691" y="336"/>
      <point x="676" y="356"/>
      <point x="647" y="356" type="curve" smooth="yes"/>
      <point x="612" y="356"/>
      <point x="596" y="332"/>
      <point x="590" y="294" type="curve" smooth="yes"/>
      <point x="544" y="0" type="line"/>
      <point x="318" y="0" type="line"/>
      <point x="364" y="294" type="line" smooth="yes"/>
      <point x="371" y="336"/>
      <point x="356" y="356"/>
      <point x="327" y="356" type="curve" smooth="yes"/>
      <point x="290" y="356"/>
      <point x="276" y="332"/>
      <point x="270" y="294" type="curve" smooth="yes"/>
      <point x="224" y="0" type="line"/>
      <point x="-5" y="0" type="line"/>
      <point x="49" y="344" type="line" smooth="yes"/>
      <point x="61" y="421"/>
      <point x="68" y="474"/>
      <point x="70" y="523" type="curve"/>
      <point x="295" y="523" type="line"/>
      <point x="295" y="498"/>
      <point x="293" y="459"/>
    </contour>
  </outline>
</glyph>
<glyph name="p" format="2">
  <advance width="651"/>
  <unicode hex="0070"/>
  <outline>
    <contour>
      <point x="315" y="156" type="curve" smooth="yes"/>
      <point x="365" y="156"/>
      <point x="403" y="211"/>
      <point x="403" y="298" type="curve" smooth="yes"/>
      <point x="403" y="346"/>
      <point x="384" y="373"/>
      <point x="344" y="373" type="curve" smooth="yes"/>
      <point x="292" y="373"/>
      <point x="258" y="310"/>
      <point x="258" y="232" type="curve" smooth="yes"/>
      <point x="258" y="182"/>
      <point x="276" y="156"/>
    </contour>
    <contour>
      <point x="290" y="437" type="curve"/>
      <point x="324" y="501"/>
      <point x="383" y="539"/>
      <point x="466" y="539" type="curve" smooth="yes"/>
      <point x="564" y="539"/>
      <point x="637" y="468"/>
      <point x="637" y="315" type="curve" smooth="yes"/>
      <point x="637" y="98"/>
      <point x="528" y="-14"/>
      <point x="390" y="-14" type="curve" smooth="yes"/>
      <point x="318" y="-14"/>
      <point x="254" y="21"/>
      <point x="237" y="81" type="curve"/>
      <point x="196" y="-172" type="line"/>
      <point x="-33" y="-172" type="line"/>
      <point x="49" y="344" type="line" smooth="yes"/>
      <point x="61" y="421"/>
      <point x="68" y="474"/>
      <point x="70" y="523" type="curve"/>
      <point x="295" y="523" type="line"/>
      <point x="295" y="501"/>
      <point x="293" y="466"/>
    </contour>
  </outline>
</glyph>
<glyph name="v" format="2">
  <advance width="614"/>
  <unicode hex="0076"/>
  <outline>
    <contour>
      <point x="140" y="0" type="line"/>
      <point x="39" y="523" type="line"/>
      <point x="273" y="523" type="line"/>
      <point x="304" y="237" type="line"/>
      <point x="431" y="523" type="line"/>
      <point x="655" y="523" type="line"/>
      <point x="379" y="0" type="line"/>
    </contour>
  </outline>
</glyph>
<glyph name="x" format="2">
  <advance width="633"/>
  <unicode hex="0078"/>
  <outline>
    <contour>
      <point x="-40" y="0" type="line"/>
      <point x="169" y="267" type="line"/>
      <point x="53" y="523" type="line"/>
      <point x="304" y="523" type="line"/>
      <point x="343" y="412" type="line"/>
      <point x="415" y="523" type="line"/>
      <point x="654" y="523" type="line"/>
      <point x="456" y="279" type="line"/>
      <point x="588" y="0" type="line"/>
      <point x="337" y="0" type="line"/>
      <point x="289" y="128" type="line"/>
      <point x="198" y="0" type="line"/>
    </contour>
  </outline>
</glyph>
<glyph name="y" format="2">
  <advance width="614"/>
  <unicode hex="0079"/>
  <outline>
    <contour>
      <point x="47" y="-172" type="line"/>
      <point x="168" y="59" type="line"/>
      <point x="39" y="523" type="line"/>
      <point x="277" y="523" type="line"/>
      <point x="320" y="291" type="line"/>
      <point x="430" y="523" type="line"/>
      <point x="655" y="523" type="line"/>
      <point x="273" y="-172" type="line"/>
    </contour>
  </outline>
</glyph>
<glyph name="z" format="2">
  <advance width="521"/>
  <unicode hex="007A"/>
  <outline>
    <contour>
      <point x="-38" y="0" type="line"/>
      <point x="-35" y="21" type="line"/>
      <point x="209" y="358" type="line"/>
      <point x="38" y="358" type="line"/>
      <point x="63" y="523" type="line"/>
      <point x="554" y="523" type="line"/>
      <point x="551" y="502" type="line"/>
      <point x="294" y="163" type="line"/>
      <point x="481" y="163" type="line"/>
      <point x="456" y="0" type="line"/>
    </contour>
  </outline>
</glyph>
<glyph name="braceleft" format="2">
  <advance width="437"/>
  <unicode hex="007B"/>
  <outline>
    <contour>
      <point x="336" y="-148" type="line"/>
      <point x="118" y="-148"/>
      <point x="20" y="-60"/>
      <point x="74" y="102" type="curve" smooth="yes"/>
      <point x="97" y="176" type="line" smooth="yes"/>
      <point x="111" y="220"/>
      <point x="88" y="241"/>
      <point x="23" y="245" type="curve"/>
      <point x="48" y="402" type="line"/>
      <point x="117" y="402"/>
      <point x="143" y="421"/>
      <point x="142" y="462" type="curve" smooth="yes"/>
      <point x="142" y="536" type="line" smooth="yes"/>
      <point x="142" y="720"/>
      <point x="246" y="776"/>
      <point x="482" y="776" type="curve"/>
      <point x="456" y="611" type="line"/>
      <point x="389" y="606"/>
      <point x="372" y="586"/>
      <point x="369" y="533" type="curve" smooth="yes"/>
      <point x="364" y="439" type="line" smooth="yes"/>
      <point x="361" y="373"/>
      <point x="316" y="329"/>
      <point x="239" y="315" type="curve"/>
      <point x="315" y="296"/>
      <point x="341" y="246"/>
      <point x="323" y="180" type="curve" smooth="yes"/>
      <point x="298" y="87" type="line" smooth="yes"/>
      <point x="285" y="38"/>
      <point x="297" y="22"/>
      <point x="362" y="17" type="curve"/>
    </contour>
  </outline>
</glyph>
<glyph name="braceright" format="2">
  <advance width="437"/>
  <unicode hex="007D"/>
  <outline>
    <contour>
      <point x="115" y="776" type="line"/>
      <point x="333" y="776"/>
      <point x="427" y="689"/>
      <point x="377" y="526" type="curve" smooth="yes"/>
      <point x="355" y="454" type="line" smooth="yes"/>
      <point x="342" y="410"/>
      <point x="364" y="389"/>
      <point x="429" y="385" type="curve"/>
      <point x="404" y="228" type="line"/>
      <point x="335" y="228"/>
      <point x="311" y="209"/>
      <point x="310" y="168" type="curve" smooth="yes"/>
      <point x="309" y="92" type="line" smooth="yes"/>
      <point x="307" y="-92"/>
      <point x="205" y="-148"/>
      <point x="-31" y="-148" type="curve"/>
      <point x="-5" y="17" type="line"/>
      <point x="62" y="22"/>
      <point x="79" y="42"/>
      <point x="82" y="95" type="curve" smooth="yes"/>
      <point x="88" y="191" type="line" smooth="yes"/>
      <point x="92" y="257"/>
      <point x="136" y="301"/>
      <point x="213" y="315" type="curve"/>
      <point x="137" y="334"/>
      <point x="112" y="384"/>
      <point x="129" y="450" type="curve" smooth="yes"/>
      <point x="153" y="541" type="line" smooth="yes"/>
      <point x="166" y="590"/>
      <point x="154" y="606"/>
      <point x="89" y="611" type="curve"/>
    </contour>
  </outline>
</glyph>
<glyph name="asciitilde" format="2">
  <advance width="556"/>
  <unicode hex="007E"/>
  <outline>
    <contour>
      <point x="14" y="210" type="line"/>
      <point x="36" y="384"/>
      <point x="117" y="444"/>
      <point x="202" y="444" type="curve" smooth="yes"/>
      <point x="277" y="444"/>
      <point x="333" y="403"/>
      <point x="369" y="403" type="curve" smooth="yes"/>
      <point x="398" y="403"/>
      <point x="411" y="420"/>
      <point x="418" y="445" type="curve"/>
      <point x="560" y="445" type="line"/>
      <point x="543" y="286"/>
      <point x="458" y="211"/>
      <point x="372" y="211" type="curve" smooth="yes"/>
      <point x="296" y="211"/>
      <point x="241" y="252"/>
      <point x="204" y="252" type="curve" smooth="yes"/>
      <point x="175" y="252"/>
      <point x="162" y="234"/>
      <point x="156" y="210" type="curve"/>
    </contour>
  </outline>
</glyph>
<glyph name="exclamdown" format="2">
  <advance width="358"/>
  <unicode hex="00A1"/>
  <outline>
    <contour>
      <point x="211" y="612" type="curve" smooth="yes"/>
      <point x="282" y="612"/>
      <point x="333" y="561"/>
      <point x="333" y="496" type="curve" smooth="yes"/>
      <point x="333" y="431"/>
      <point x="279" y="377"/>
      <point x="208" y="377" type="curve" smooth="yes"/>
      <point x="137" y="377"/>
      <point x="84" y="429"/>
      <point x="84" y="494" type="curve" smooth="yes"/>
      <point x="84" y="559"/>
      <point x="140" y="612"/>
    </contour>
    <contour>
      <point x="285" y="346" type="line"/>
      <point x="244" y="-117" type="line"/>
      <point x="-14" y="-117" type="line"/>
      <point x="93" y="346" type="line"/>
    </contour>
  </outline>
</glyph>
<glyph name="cent" format="2">
  <advance width="610"/>
  <unicode hex="00A2"/>
  <outline>
    <contour>
      <point x="222" y="-135" type="line"/>
      <point x="242" y="-10" type="line"/>
      <point x="116" y="7"/>
      <point x="13" y="83"/>
      <point x="12" y="219" type="curve" smooth="yes"/>
      <point x="11" y="398"/>
      <point x="134" y="533"/>
      <point x="328" y="538" type="curve"/>
      <point x="343" y="629" type="line"/>
      <point x="412" y="629" type="line"/>
      <point x="397" y="535" type="line"/>
      <point x="523" y="519"/>
      <point x="601" y="448"/>
      <point x="605" y="308" type="curve"/>
      <point x="401" y="308" type="line"/>
      <point x="401" y="340"/>
      <point x="393" y="360"/>
      <point x="371" y="370" type="curve"/>
      <point x="334" y="140" type="line"/>
      <point x="371" y="148"/>
      <point x="390" y="172"/>
      <point x="399" y="215" type="curve"/>
      <point x="595" y="215" type="line"/>
      <point x="583" y="82"/>
      <point x="477" y="-10"/>
      <point x="310" y="-14" type="curve"/>
      <point x="291" y="-135" type="line"/>
    </contour>
    <contour>
      <point x="232" y="222" type="curve" smooth="yes"/>
      <point x="232" y="182"/>
      <point x="243" y="157"/>
      <point x="266" y="145" type="curve"/>
      <point x="302" y="372" type="line"/>
      <point x="258" y="358"/>
      <point x="232" y="308"/>
    </contour>
  </outline>
</glyph>
<glyph name="sterling" format="2">
  <advance width="688"/>
  <unicode hex="00A3"/>
  <outline>
    <contour>
      <point x="29" y="282" type="line"/>
      <point x="50" y="414" type="line"/>
      <point x="90" y="414" type="line"/>
      <point x="87" y="432"/>
      <point x="86" y="450"/>
      <point x="86" y="470" type="curve" smooth="yes"/>
      <point x="86" y="634"/>
      <point x="223" y="726"/>
      <point x="396" y="726" type="curve" smooth="yes"/>
      <point x="566" y="726"/>
      <point x="694" y="663"/>
      <point x="692" y="458" type="curve"/>
      <point x="447" y="458" type="line"/>
      <point x="449" y="508"/>
      <point x="435" y="528"/>
      <point x="399" y="528" type="curve" smooth="yes"/>
      <point x="350" y="528"/>
      <point x="339" y="482"/>
      <point x="339" y="431" type="curve" smooth="yes"/>
      <point x="339" y="414" type="line"/>
      <point x="507" y="414" type="line"/>
      <point x="486" y="282" type="line"/>
      <point x="339" y="282" type="line"/>
      <point x="337" y="259"/>
      <point x="331" y="231"/>
      <point x="319" y="204" type="curve"/>
      <point x="343" y="199"/>
      <point x="363" y="195"/>
      <point x="381" y="195" type="curve" smooth="yes"/>
      <point x="411" y="195"/>
      <point x="430" y="210"/>
      <point x="435" y="240" type="curve"/>
      <point x="674" y="240" type="line"/>
      <point x="656" y="97"/>
      <point x="573" y="-9"/>
      <point x="417" y="-9" type="curve" smooth="yes"/>
      <point x="310" y="-9"/>
      <point x="246" y="38"/>
      <point x="202" y="38" type="curve" smooth="yes"/>
      <point x="178" y="38"/>
      <point x="162" y="23"/>
      <point x="158" y="0" type="curve"/>
      <point x="-33" y="0" type="line"/>
      <point x="-19" y="92"/>
      <point x="21" y="169"/>
      <point x="92" y="204" type="curve"/>
      <point x="103" y="229"/>
      <point x="109" y="254"/>
      <point x="110" y="282" type="curve"/>
    </contour>
  </outline>
</glyph>
<glyph name="yen" format="2">
  <advance width="682"/>
  <unicode hex="00A5"/>
  <outline>
    <contour>
      <point x="60" y="301" type="line"/>
      <point x="72" y="379" type="line"/>
      <point x="200" y="379" type="line"/>
      <point x="73" y="715" type="line"/>
      <point x="355" y="715" type="line"/>
      <point x="392" y="529" type="line"/>
      <point x="492" y="715" type="line"/>
      <point x="751" y="715" type="line"/>
      <point x="526" y="379" type="line"/>
      <point x="656" y="379" type="line"/>
      <point x="644" y="301" type="line"/>
      <point x="485" y="301" type="line"/>
      <point x="479" y="263" type="line"/>
      <point x="637" y="263" type="line"/>
      <point x="625" y="185" type="line"/>
      <point x="467" y="185" type="line"/>
      <point x="438" y="0" type="line"/>
      <point x="170" y="0" type="line"/>
      <point x="199" y="185" type="line"/>
      <point x="41" y="185" type="line"/>
      <point x="53" y="263" type="line"/>
      <point x="211" y="263" type="line"/>
      <point x="217" y="301" type="line"/>
    </contour>
  </outline>
</glyph>
<glyph name="brokenbar" format="2">
  <advance width="275"/>
  <unicode hex="00A6"/>
  <outline>
    <contour>
      <point x="73" y="-148" type="line"/>
      <point x="73" y="303" type="line"/>
      <point x="228" y="303" type="line"/>
      <point x="228" y="-148" type="line"/>
    </contour>
    <contour>
      <point x="73" y="375" type="line"/>
      <point x="73" y="776" type="line"/>
      <point x="228" y="776" type="line"/>
      <point x="228" y="375" type="line"/>
    </contour>
  </outline>
</glyph>
<glyph name="section" format="2">
  <advance width="641"/>
  <unicode hex="00A7"/>
  <outline>
    <contour>
      <point x="280" y="-137" type="curve" smooth="yes"/>
      <point x="149" y="-137"/>
      <point x="38" y="-84"/>
      <point x="37" y="56" type="curve"/>
      <point x="242" y="56" type="line"/>
      <point x="244" y="27"/>
      <point x="256" y="10"/>
      <point x="287" y="10" type="curve" smooth="yes"/>
      <point x="306" y="10"/>
      <point x="320" y="17"/>
      <point x="320" y="33" type="curve" smooth="yes"/>
      <point x="320" y="51"/>
      <point x="293" y="60"/>
      <point x="229" y="79" type="curve" smooth="yes"/>
      <point x="97" y="118"/>
      <point x="12" y="167"/>
      <point x="12" y="271" type="curve" smooth="yes"/>
      <point x="12" y="361"/>
      <point x="64" y="406"/>
      <point x="141" y="431" type="curve"/>
      <point x="124" y="455"/>
      <point x="115" y="482"/>
      <point x="115" y="510" type="curve" smooth="yes"/>
      <point x="115" y="661"/>
      <point x="232" y="726"/>
      <point x="374" y="726" type="curve" smooth="yes"/>
      <point x="505" y="726"/>
      <point x="610" y="677"/>
      <point x="614" y="529" type="curve"/>
      <point x="406" y="529" type="line"/>
      <point x="404" y="556"/>
      <point x="399" y="574"/>
      <point x="365" y="575" type="curve" smooth="yes"/>
      <point x="343" y="575"/>
      <point x="331" y="566"/>
      <point x="331" y="550" type="curve" smooth="yes"/>
      <point x="331" y="530"/>
      <point x="356" y="524"/>
      <point x="420" y="504" type="curve" smooth="yes"/>
      <point x="550" y="464"/>
      <point x="636" y="417"/>
      <point x="636" y="311" type="curve" smooth="yes"/>
      <point x="636" y="224"/>
      <point x="587" y="181"/>
      <point x="507" y="153" type="curve"/>
      <point x="526" y="130"/>
      <point x="537" y="103"/>
      <point x="537" y="74" type="curve" smooth="yes"/>
      <point x="537" y="-77"/>
      <point x="413" y="-137"/>
    </contour>
    <contour>
      <point x="386" y="239" type="line"/>
      <point x="400" y="241"/>
      <point x="411" y="248"/>
      <point x="411" y="262" type="curve" smooth="yes"/>
      <point x="411" y="282"/>
      <point x="394" y="287"/>
      <point x="332" y="314" type="curve" smooth="yes"/>
      <point x="265" y="344" type="line"/>
      <point x="252" y="343"/>
      <point x="239" y="337"/>
      <point x="239" y="321" type="curve" smooth="yes"/>
      <point x="239" y="303"/>
      <point x="257" y="295"/>
      <point x="317" y="269" type="curve" smooth="yes"/>
    </contour>
  </outline>
</glyph>
<glyph name="dieresis" format="2">
  <advance width="400"/>
  <unicode hex="00A8"/>
  <outline>
    <contour>
      <point x="148" y="552" type="curve" smooth="yes"/>
      <point x="91" y="552"/>
      <point x="46" y="596"/>
      <point x="46" y="651" type="curve" smooth="yes"/>
      <point x="46" y="706"/>
      <point x="91" y="750"/>
      <point x="148" y="750" type="curve" smooth="yes"/>
      <point x="205" y="750"/>
      <point x="251" y="706"/>
      <point x="251" y="651" type="curve" smooth="yes"/>
      <point x="251" y="596"/>
      <point x="205" y="552"/>
    </contour>
    <contour>
      <point x="373" y="552" type="curve" smooth="yes"/>
      <point x="316" y="552"/>
      <point x="272" y="596"/>
      <point x="272" y="651" type="curve" smooth="yes"/>
      <point x="272" y="706"/>
      <point x="316" y="750"/>
      <point x="373" y="750" type="curve" smooth="yes"/>
      <point x="431" y="750"/>
      <point x="476" y="706"/>
      <point x="476" y="651" type="curve" smooth="yes"/>
      <point x="476" y="596"/>
      <point x="431" y="552"/>
    </contour>
  </outline>
</glyph>
<glyph name="copyright" format="2">
  <advance width="842"/>
  <unicode hex="00A9"/>
  <outline>
    <contour>
      <point x="444" y="149" type="curve" smooth="yes"/>
      <point x="290" y="149"/>
      <point x="222" y="231"/>
      <point x="222" y="354" type="curve" smooth="yes"/>
      <point x="222" y="362" type="line" smooth="yes"/>
      <point x="222" y="488"/>
      <point x="315" y="566"/>
      <point x="437" y="566" type="curve" smooth="yes"/>
      <point x="552" y="566"/>
      <point x="627" y="516"/>
      <point x="636" y="400" type="curve"/>
      <point x="481" y="400" type="line"/>
      <point x="479" y="430"/>
      <point x="464" y="448"/>
      <point x="437" y="448" type="curve" smooth="yes"/>
      <point x="401" y="448"/>
      <point x="380" y="421"/>
      <point x="380" y="362" type="curve" smooth="yes"/>
      <point x="380" y="355" type="line" smooth="yes"/>
      <point x="380" y="298"/>
      <point x="400" y="268"/>
      <point x="440" y="268" type="curve" smooth="yes"/>
      <point x="468" y="268"/>
      <point x="489" y="283"/>
      <point x="492" y="317" type="curve"/>
      <point x="641" y="317" type="line"/>
      <point x="637" y="208"/>
      <point x="556" y="149"/>
    </contour>
    <contour>
      <point x="433" y="30" type="curve" smooth="yes"/>
      <point x="613" y="30"/>
      <point x="757" y="162"/>
      <point x="757" y="359" type="curve" smooth="yes"/>
      <point x="757" y="553"/>
      <point x="617" y="685"/>
      <point x="435" y="685" type="curve" smooth="yes"/>
      <point x="251" y="685"/>
      <point x="111" y="552"/>
      <point x="111" y="357" type="curve" smooth="yes"/>
      <point x="111" y="160"/>
      <point x="255" y="30"/>
    </contour>
    <contour>
      <point x="433" y="-25" type="curve" smooth="yes"/>
      <point x="216" y="-25"/>
      <point x="41" y="140"/>
      <point x="41" y="357" type="curve" smooth="yes"/>
      <point x="41" y="571"/>
      <point x="215" y="740"/>
      <point x="435" y="740" type="curve" smooth="yes"/>
      <point x="658" y="740"/>
      <point x="827" y="572"/>
      <point x="827" y="359" type="curve" smooth="yes"/>
      <point x="827" y="141"/>
      <point x="653" y="-25"/>
    </contour>
  </outline>
</glyph>
<glyph name="ordfeminine" format="2">
  <advance width="516"/>
  <unicode hex="00AA"/>
  <outline>
    <contour>
      <point x="496" y="298" type="curve"/>
      <point x="307" y="298" type="line"/>
      <point x="304" y="312"/>
      <point x="303" y="334"/>
      <point x="303" y="349" type="curve"/>
      <point x="285" y="322"/>
      <point x="251" y="286"/>
      <point x="181" y="286" type="curve" smooth="yes"/>
      <point x="115" y="286"/>
      <point x="52" y="324"/>
      <point x="52" y="398" type="curve" smooth="yes"/>
      <point x="52" y="510"/>
      <point x="138" y="545"/>
      <point x="293" y="545" type="curve" smooth="yes"/>
      <point x="326" y="545" type="line"/>
      <point x="327" y="553" type="line" smooth="yes"/>
      <point x="329" y="572"/>
      <point x="331" y="591"/>
      <point x="303" y="591" type="curve" smooth="yes"/>
      <point x="279" y="591"/>
      <point x="272" y="572"/>
      <point x="269" y="558" type="curve"/>
      <point x="84" y="558" type="line"/>
      <point x="103" y="664"/>
      <point x="185" y="723"/>
      <point x="319" y="723" type="curve" smooth="yes"/>
      <point x="485" y="723"/>
      <point x="539" y="663"/>
      <point x="515" y="510" type="curve" smooth="yes"/>
      <point x="502" y="428" type="line" smooth="yes"/>
      <point x="493" y="376"/>
      <point x="491" y="333"/>
    </contour>
    <contour>
      <point x="272" y="414" type="curve" smooth="yes"/>
      <point x="293" y="414"/>
      <point x="306" y="424"/>
      <point x="309" y="441" type="curve" smooth="yes"/>
      <point x="311" y="453" type="line"/>
      <point x="286" y="453" type="line" smooth="yes"/>
      <point x="255" y="453"/>
      <point x="247" y="445"/>
      <point x="247" y="432" type="curve" smooth="yes"/>
      <point x="247" y="420"/>
      <point x="256" y="414"/>
    </contour>
  </outline>
</glyph>
<glyph name="guillemotleft" format="2">
  <advance width="470"/>
  <unicode hex="00AB"/>
  <outline>
    <contour>
      <point x="111" y="63" type="line"/>
      <point x="15" y="267" type="line"/>
      <point x="153" y="459" type="line"/>
      <point x="289" y="459" type="line"/>
      <point x="152" y="266" type="line"/>
      <point x="240" y="63" type="line"/>
    </contour>
    <contour>
      <point x="289" y="63" type="line"/>
      <point x="198" y="264" type="line"/>
      <point x="336" y="459" type="line"/>
      <point x="472" y="459" type="line"/>
      <point x="335" y="260" type="line"/>
      <point x="418" y="63" type="line"/>
    </contour>
  </outline>
</glyph>
<glyph name="registered" format="2">
  <advance width="518"/>
  <unicode hex="00AE"/>
  <outline>
    <contour>
      <point x="206" y="396" type="line"/>
      <point x="206" y="615" type="line"/>
      <point x="302" y="615" type="line" smooth="yes"/>
      <point x="367" y="615"/>
      <point x="397" y="589"/>
      <point x="397" y="541" type="curve" smooth="yes"/>
      <point x="397" y="540" type="line" smooth="yes"/>
      <point x="397" y="511"/>
      <point x="384" y="494"/>
      <point x="365" y="483" type="curve"/>
      <point x="410" y="396" type="line"/>
      <point x="327" y="396" type="line"/>
      <point x="293" y="466" type="line"/>
      <point x="287" y="466" type="line"/>
      <point x="287" y="396" type="line"/>
    </contour>
    <contour>
      <point x="287" y="517" type="line"/>
      <point x="296" y="517" type="line" smooth="yes"/>
      <point x="312" y="517"/>
      <point x="319" y="523"/>
      <point x="319" y="536" type="curve" smooth="yes"/>
      <point x="319" y="537" type="line" smooth="yes"/>
      <point x="319" y="549"/>
      <point x="312" y="554"/>
      <point x="296" y="554" type="curve" smooth="yes"/>
      <point x="287" y="554" type="line"/>
    </contour>
    <contour>
      <point x="296" y="320" type="curve" smooth="yes"/>
      <point x="402" y="320"/>
      <point x="483" y="395"/>
      <point x="483" y="503" type="curve" smooth="yes"/>
      <point x="483" y="611"/>
      <point x="405" y="686"/>
      <point x="296" y="686" type="curve" smooth="yes"/>
      <point x="187" y="686"/>
      <point x="109" y="610"/>
      <point x="109" y="502" type="curve" smooth="yes"/>
      <point x="109" y="393"/>
      <point x="191" y="320"/>
    </contour>
    <contour>
      <point x="296" y="280" type="curve" smooth="yes"/>
      <point x="167" y="280"/>
      <point x="63" y="376"/>
      <point x="63" y="502" type="curve" smooth="yes"/>
      <point x="63" y="626"/>
      <point x="166" y="726"/>
      <point x="296" y="726" type="curve" smooth="yes"/>
      <point x="428" y="726"/>
      <point x="529" y="627"/>
      <point x="529" y="503" type="curve" smooth="yes"/>
      <point x="529" y="377"/>
      <point x="426" y="280"/>
    </contour>
  </outline>
</glyph>
<glyph name="macron" format="2">
  <advance width="400"/>
  <unicode hex="00AF"/>
  <outline>
    <contour>
      <point x="85" y="593" type="line"/>
      <point x="104" y="712" type="line"/>
      <point x="435" y="712" type="line"/>
      <point x="416" y="593" type="line"/>
    </contour>
  </outline>
</glyph>
<glyph name="degree" format="2">
  <advance width="466"/>
  <unicode hex="00B0"/>
  <outline>
    <contour>
      <point x="277" y="444" type="curve" smooth="yes"/>
      <point x="330" y="444"/>
      <point x="368" y="488"/>
      <point x="368" y="545" type="curve" smooth="yes"/>
      <point x="368" y="604"/>
      <point x="330" y="648"/>
      <point x="277" y="648" type="curve" smooth="yes"/>
      <point x="222" y="648"/>
      <point x="184" y="604"/>
      <point x="184" y="545" type="curve" smooth="yes"/>
      <point x="184" y="488"/>
      <point x="222" y="444"/>
    </contour>
    <contour>
      <point x="277" y="368" type="curve" smooth="yes"/>
      <point x="175" y="368"/>
      <point x="93" y="449"/>
      <point x="93" y="545" type="curve" smooth="yes"/>
      <point x="93" y="643"/>
      <point x="175" y="724"/>
      <point x="277" y="724" type="curve" smooth="yes"/>
      <point x="377" y="724"/>
      <point x="459" y="643"/>
      <point x="459" y="545" type="curve" smooth="yes"/>
      <point x="459" y="449"/>
      <point x="377" y="368"/>
    </contour>
  </outline>
</glyph>
<glyph name="twosuperior" format="2">
  <advance width="388"/>
  <unicode hex="00B2"/>
  <outline>
    <contour>
      <point x="12" y="322" type="line"/>
      <point x="16" y="342" type="line"/>
      <point x="165" y="475" type="line" smooth="yes"/>
      <point x="199" y="505"/>
      <point x="256" y="553"/>
      <point x="256" y="579" type="curve" smooth="yes"/>
      <point x="256" y="594"/>
      <point x="250" y="601"/>
      <point x="237" y="601" type="curve" smooth="yes"/>
      <point x="221" y="601"/>
      <point x="208" y="588"/>
      <point x="201" y="555" type="curve"/>
      <point x="49" y="555" type="line"/>
      <point x="65" y="669"/>
      <point x="142" y="721"/>
      <point x="250" y="721" type="curve" smooth="yes"/>
      <point x="344" y="721"/>
      <point x="421" y="691"/>
      <point x="421" y="599" type="curve" smooth="yes"/>
      <point x="421" y="543"/>
      <point x="378" y="499"/>
      <point x="315" y="448" type="curve" smooth="yes"/>
      <point x="304" y="439" type="line"/>
      <point x="397" y="439" type="line"/>
      <point x="378" y="322" type="line"/>
    </contour>
  </outline>
</glyph>
<glyph name="acute" format="2">
  <advance width="400"/>
  <unicode hex="00B4"/>
  <outline>
    <contour>
      <point x="159" y="568" type="line"/>
      <point x="230" y="743" type="line"/>
      <point x="449" y="743" type="line"/>
      <point x="322" y="568" type="line"/>
    </contour>
  </outline>
</glyph>
<glyph name="paragraph" format="2">
  <advance width="532"/>
  <unicode hex="00B6"/>
  <outline>
    <contour>
      <point x="188" y="-100" type="line"/>
      <point x="254" y="320" type="line"/>
      <point x="252" y="320" type="line" smooth="yes"/>
      <point x="143" y="320"/>
      <point x="55" y="377"/>
      <point x="55" y="494" type="curve" smooth="yes"/>
      <point x="55" y="642"/>
      <point x="161" y="715"/>
      <point x="304" y="715" type="curve" smooth="yes"/>
      <point x="545" y="715" type="line"/>
      <point x="416" y="-100" type="line"/>
      <point x="337" y="-100" type="line"/>
      <point x="455" y="648" type="line"/>
      <point x="384" y="648" type="line"/>
      <point x="266" y="-100" type="line"/>
    </contour>
  </outline>
</glyph>
<glyph name="periodcentered" format="2">
  <advance width="308"/>
  <unicode hex="00B7"/>
  <outline>
    <contour>
      <point x="161" y="206" type="curve" smooth="yes"/>
      <point x="90" y="206"/>
      <point x="39" y="259"/>
      <point x="39" y="326" type="curve" smooth="yes"/>
      <point x="39" y="392"/>
      <point x="89" y="446"/>
      <point x="160" y="446" type="curve" smooth="yes"/>
      <point x="233" y="446"/>
      <point x="287" y="392"/>
      <point x="287" y="326" type="curve" smooth="yes"/>
      <point x="287" y="259"/>
      <point x="234" y="206"/>
    </contour>
  </outline>
</glyph>
<glyph name="cedilla" format="2">
  <advance width="400"/>
  <unicode hex="00B8"/>
  <outline>
    <contour>
      <point x="137" y="-232" type="curve" smooth="yes"/>
      <point x="67" y="-232"/>
      <point x="2" y="-204"/>
      <point x="-3" y="-135" type="curve"/>
      <point x="97" y="-135" type="line"/>
      <point x="99" y="-146"/>
      <point x="105" y="-158"/>
      <point x="128" y="-158" type="curve" smooth="yes"/>
      <point x="141" y="-158"/>
      <point x="158" y="-150"/>
      <point x="158" y="-128" type="curve" smooth="yes"/>
      <point x="158" y="-110"/>
      <point x="147" y="-102"/>
      <point x="128" y="-102" type="curve" smooth="yes"/>
      <point x="112" y="-102"/>
      <point x="104" y="-107"/>
      <point x="97" y="-113" type="curve"/>
      <point x="59" y="-71" type="line"/>
      <point x="117" y="0" type="line"/>
      <point x="199" y="0" type="line"/>
      <point x="164" y="-41" type="line"/>
      <point x="224" y="-37"/>
      <point x="270" y="-68"/>
      <point x="270" y="-124" type="curve" smooth="yes"/>
      <point x="270" y="-198"/>
      <point x="208" y="-232"/>
    </contour>
  </outline>
</glyph>
<glyph name="onesuperior" format="2">
  <advance width="315"/>
  <unicode hex="00B9"/>
  <outline>
    <contour>
      <point x="109" y="322" type="line"/>
      <point x="146" y="553" type="line"/>
      <point x="57" y="511" type="line"/>
      <point x="78" y="645" type="line"/>
      <point x="197" y="715" type="line"/>
      <point x="339" y="715" type="line"/>
      <point x="276" y="322" type="line"/>
    </contour>
  </outline>
</glyph>
<glyph name="ordmasculine" format="2">
  <advance width="537"/>
  <unicode hex="00BA"/>
  <outline>
    <contour>
      <point x="279" y="286" type="curve" smooth="yes"/>
      <point x="146" y="286"/>
      <point x="61" y="354"/>
      <point x="61" y="473" type="curve" smooth="yes"/>
      <point x="61" y="626"/>
      <point x="184" y="723"/>
      <point x="326" y="723" type="curve" smooth="yes"/>
      <point x="471" y="723"/>
      <point x="543" y="646"/>
      <point x="543" y="530" type="curve" smooth="yes"/>
      <point x="543" y="377"/>
      <point x="415" y="286"/>
    </contour>
    <contour>
      <point x="293" y="427" type="curve" smooth="yes"/>
      <point x="332" y="427"/>
      <point x="348" y="481"/>
      <point x="348" y="535" type="curve" smooth="yes"/>
      <point x="348" y="564"/>
      <point x="340" y="581"/>
      <point x="313" y="581" type="curve" smooth="yes"/>
      <point x="278" y="581"/>
      <point x="257" y="534"/>
      <point x="257" y="473" type="curve" smooth="yes"/>
      <point x="257" y="443"/>
      <point x="269" y="427"/>
    </contour>
  </outline>
</glyph>
<glyph name="guillemotright" format="2">
  <advance width="470"/>
  <unicode hex="00BB"/>
  <outline>
    <contour>
      <point x="358" y="459" type="line"/>
      <point x="454" y="255" type="line"/>
      <point x="316" y="63" type="line"/>
      <point x="180" y="63" type="line"/>
      <point x="317" y="256" type="line"/>
      <point x="229" y="459" type="line"/>
    </contour>
    <contour>
      <point x="180" y="459" type="line"/>
      <point x="271" y="258" type="line"/>
      <point x="133" y="63" type="line"/>
      <point x="-3" y="63" type="line"/>
      <point x="134" y="262" type="line"/>
      <point x="51" y="459" type="line"/>
    </contour>
  </outline>
</glyph>
<glyph name="onequarter" format="2">
  <advance width="862"/>
  <unicode hex="00BC"/>
  <outline>
    <contour>
      <point x="112" y="322" type="line"/>
      <point x="149" y="553" type="line"/>
      <point x="60" y="511" type="line"/>
      <point x="81" y="645" type="line"/>
      <point x="200" y="715" type="line"/>
      <point x="342" y="715" type="line"/>
      <point x="279" y="322" type="line"/>
    </contour>
    <contour>
      <point x="71" y="0" type="line"/>
      <point x="689" y="715" type="line"/>
      <point x="798" y="715" type="line"/>
      <point x="180" y="0" type="line"/>
    </contour>
    <contour>
      <point x="587" y="0" type="line"/>
      <point x="598" y="70" type="line"/>
      <point x="404" y="70" type="line"/>
      <point x="414" y="132" type="line"/>
      <point x="613" y="393" type="line"/>
      <point x="811" y="393" type="line"/>
      <point x="777" y="177" type="line"/>
      <point x="826" y="177" type="line"/>
      <point x="809" y="70" type="line"/>
      <point x="760" y="70" type="line"/>
      <point x="749" y="0" type="line"/>
    </contour>
    <contour>
      <point x="560" y="177" type="line"/>
      <point x="621" y="177" type="line"/>
      <point x="638" y="283" type="line"/>
    </contour>
  </outline>
</glyph>
<glyph name="onehalf" format="2">
  <advance width="874"/>
  <unicode hex="00BD"/>
  <outline>
    <contour>
      <point x="112" y="322" type="line"/>
      <point x="149" y="553" type="line"/>
      <point x="60" y="511" type="line"/>
      <point x="81" y="645" type="line"/>
      <point x="200" y="715" type="line"/>
      <point x="342" y="715" type="line"/>
      <point x="279" y="322" type="line"/>
    </contour>
    <contour>
      <point x="58" y="0" type="line"/>
      <point x="676" y="715" type="line"/>
      <point x="785" y="715" type="line"/>
      <point x="167" y="0" type="line"/>
    </contour>
    <contour>
      <point x="445" y="0" type="line"/>
      <point x="449" y="20" type="line"/>
      <point x="598" y="153" type="line" smooth="yes"/>
      <point x="632" y="183"/>
      <point x="689" y="231"/>
      <point x="689" y="257" type="curve" smooth="yes"/>
      <point x="689" y="272"/>
      <point x="683" y="279"/>
      <point x="670" y="279" type="curve" smooth="yes"/>
      <point x="654" y="279"/>
      <point x="641" y="266"/>
      <point x="634" y="233" type="curve"/>
      <point x="482" y="233" type="line"/>
      <point x="498" y="347"/>
      <point x="575" y="399"/>
      <point x="683" y="399" type="curve" smooth="yes"/>
      <point x="777" y="399"/>
      <point x="854" y="369"/>
      <point x="854" y="277" type="curve" smooth="yes"/>
      <point x="854" y="221"/>
      <point x="811" y="177"/>
      <point x="748" y="126" type="curve" smooth="yes"/>
      <point x="737" y="117" type="line"/>
      <point x="830" y="117" type="line"/>
      <point x="811" y="0" type="line"/>
    </contour>
  </outline>
</glyph>
<glyph name="threequarters" format="2">
  <advance width="910"/>
  <unicode hex="00BE"/>
  <outline>
    <contour>
      <point x="234" y="314" type="curve" smooth="yes"/>
      <point x="123" y="314"/>
      <point x="50" y="357"/>
      <point x="49" y="459" type="curve"/>
      <point x="195" y="459" type="line"/>
      <point x="195" y="438"/>
      <point x="205" y="427"/>
      <point x="226" y="427" type="curve" smooth="yes"/>
      <point x="238" y="427"/>
      <point x="253" y="433"/>
      <point x="253" y="453" type="curve" smooth="yes"/>
      <point x="253" y="466"/>
      <point x="243" y="474"/>
      <point x="216" y="474" type="curve" smooth="yes"/>
      <point x="186" y="474" type="line"/>
      <point x="200" y="562" type="line"/>
      <point x="237" y="562" type="line" smooth="yes"/>
      <point x="261" y="562"/>
      <point x="273" y="571"/>
      <point x="273" y="588" type="curve" smooth="yes"/>
      <point x="273" y="600"/>
      <point x="266" y="609"/>
      <point x="248" y="609" type="curve" smooth="yes"/>
      <point x="233" y="609"/>
      <point x="219" y="601"/>
      <point x="214" y="579" type="curve"/>
      <point x="70" y="579" type="line"/>
      <point x="83" y="669"/>
      <point x="150" y="721"/>
      <point x="264" y="721" type="curve" smooth="yes"/>
      <point x="339" y="721"/>
      <point x="429" y="699"/>
      <point x="429" y="613" type="curve" smooth="yes"/>
      <point x="429" y="562"/>
      <point x="396" y="532"/>
      <point x="348" y="519" type="curve"/>
      <point x="389" y="510"/>
      <point x="416" y="487"/>
      <point x="416" y="441" type="curve" smooth="yes"/>
      <point x="416" y="351"/>
      <point x="332" y="314"/>
    </contour>
    <contour>
      <point x="132" y="0" type="line"/>
      <point x="750" y="715" type="line"/>
      <point x="859" y="715" type="line"/>
      <point x="241" y="0" type="line"/>
    </contour>
    <contour>
      <point x="635" y="0" type="line"/>
      <point x="646" y="70" type="line"/>
      <point x="452" y="70" type="line"/>
      <point x="462" y="132" type="line"/>
      <point x="661" y="393" type="line"/>
      <point x="859" y="393" type="line"/>
      <point x="825" y="177" type="line"/>
      <point x="874" y="177" type="line"/>
      <point x="857" y="70" type="line"/>
      <point x="808" y="70" type="line"/>
      <point x="797" y="0" type="line"/>
    </contour>
    <contour>
      <point x="608" y="177" type="line"/>
      <point x="669" y="177" type="line"/>
      <point x="686" y="283" type="line"/>
    </contour>
  </outline>
</glyph>
<glyph name="questiondown" format="2">
  <advance width="591"/>
  <unicode hex="00BF"/>
  <outline>
    <contour>
      <point x="440" y="347" type="line"/>
      <point x="438" y="337" type="line" smooth="yes"/>
      <point x="410" y="198"/>
      <point x="240" y="166"/>
      <point x="240" y="89" type="curve" smooth="yes"/>
      <point x="241" y="69"/>
      <point x="253" y="58"/>
      <point x="274" y="58" type="curve" smooth="yes"/>
      <point x="301" y="58"/>
      <point x="319" y="77"/>
      <point x="329" y="124" type="curve"/>
      <point x="553" y="124" type="line"/>
      <point x="532" y="-48"/>
      <point x="402" y="-127"/>
      <point x="243" y="-127" type="curve" smooth="yes"/>
      <point x="76" y="-127"/>
      <point x="-10" y="-58"/>
      <point x="-10" y="60" type="curve" smooth="yes"/>
      <point x="-10" y="225"/>
      <point x="168" y="254"/>
      <point x="221" y="344" type="curve"/>
      <point x="222" y="347" type="line"/>
    </contour>
    <contour>
      <point x="357" y="613" type="curve" smooth="yes"/>
      <point x="428" y="613"/>
      <point x="479" y="562"/>
      <point x="479" y="497" type="curve" smooth="yes"/>
      <point x="479" y="432"/>
      <point x="425" y="378"/>
      <point x="354" y="378" type="curve" smooth="yes"/>
      <point x="283" y="378"/>
      <point x="230" y="430"/>
      <point x="230" y="495" type="curve" smooth="yes"/>
      <point x="230" y="560"/>
      <point x="286" y="613"/>
    </contour>
  </outline>
</glyph>
<glyph name="Acircumflex" format="2">
  <advance width="784"/>
  <unicode hex="00C2"/>
  <outline>
    <contour>
      <point x="463" y="0" type="line"/>
      <point x="454" y="95" type="line"/>
      <point x="252" y="95" type="line"/>
      <point x="213" y="0" type="line"/>
      <point x="-41" y="0" type="line"/>
      <point x="292" y="715" type="line"/>
      <point x="635" y="715" type="line"/>
      <point x="741" y="0" type="line"/>
    </contour>
    <contour>
      <point x="249" y="753" type="line"/>
      <point x="384" y="908" type="line"/>
      <point x="573" y="908" type="line"/>
      <point x="666" y="753" type="line"/>
      <point x="507" y="753" type="line"/>
      <point x="467" y="797" type="line"/>
      <point x="417" y="753" type="line"/>
    </contour>
    <contour>
      <point x="418" y="501" type="line"/>
      <point x="325" y="273" type="line"/>
      <point x="438" y="273" type="line"/>
    </contour>
  </outline>
</glyph>
<glyph name="Atilde" format="2">
  <advance width="784"/>
  <unicode hex="00C3"/>
  <outline>
    <contour>
      <point x="463" y="0" type="line"/>
      <point x="454" y="95" type="line"/>
      <point x="252" y="95" type="line"/>
      <point x="213" y="0" type="line"/>
      <point x="-41" y="0" type="line"/>
      <point x="292" y="715" type="line"/>
      <point x="635" y="715" type="line"/>
      <point x="741" y="0" type="line"/>
    </contour>
    <contour>
      <point x="534" y="750" type="curve" smooth="yes"/>
      <point x="471" y="750"/>
      <point x="442" y="779"/>
      <point x="411" y="779" type="curve" smooth="yes"/>
      <point x="396" y="779"/>
      <point x="384" y="768"/>
      <point x="381" y="753" type="curve"/>
      <point x="258" y="753" type="line"/>
      <point x="277" y="875"/>
      <point x="339" y="925"/>
      <point x="407" y="925" type="curve" smooth="yes"/>
      <point x="466" y="925"/>
      <point x="498" y="896"/>
      <point x="533" y="896" type="curve" smooth="yes"/>
      <point x="550" y="896"/>
      <point x="559" y="906"/>
      <point x="564" y="922" type="curve"/>
      <point x="687" y="922" type="line"/>
      <point x="666" y="800"/>
      <point x="599" y="750"/>
    </contour>
    <contour>
      <point x="418" y="501" type="line"/>
      <point x="325" y="273" type="line"/>
      <point x="438" y="273" type="line"/>
    </contour>
  </outline>
</glyph>
<glyph name="Adieresis" format="2">
  <advance width="784"/>
  <unicode hex="00C4"/>
  <outline>
    <contour>
      <point x="463" y="0" type="line"/>
      <point x="454" y="95" type="line"/>
      <point x="252" y="95" type="line"/>
      <point x="213" y="0" type="line"/>
      <point x="-41" y="0" type="line"/>
      <point x="292" y="715" type="line"/>
      <point x="635" y="715" type="line"/>
      <point x="741" y="0" type="line"/>
    </contour>
    <contour>
      <point x="353" y="742" type="curve" smooth="yes"/>
      <point x="296" y="742"/>
      <point x="251" y="786"/>
      <point x="251" y="841" type="curve" smooth="yes"/>
      <point x="251" y="896"/>
      <point x="296" y="940"/>
      <point x="353" y="940" type="curve" smooth="yes"/>
      <point x="410" y="940"/>
      <point x="456" y="896"/>
      <point x="456" y="841" type="curve" smooth="yes"/>
      <point x="456" y="786"/>
      <point x="410" y="742"/>
    </contour>
    <contour>
      <point x="586" y="742" type="curve" smooth="yes"/>
      <point x="529" y="742"/>
      <point x="485" y="786"/>
      <point x="485" y="841" type="curve" smooth="yes"/>
      <point x="485" y="896"/>
      <point x="529" y="940"/>
      <point x="586" y="940" type="curve" smooth="yes"/>
      <point x="644" y="940"/>
      <point x="689" y="896"/>
      <point x="689" y="841" type="curve" smooth="yes"/>
      <point x="689" y="786"/>
      <point x="644" y="742"/>
    </contour>
    <contour>
      <point x="418" y="501" type="line"/>
      <point x="325" y="273" type="line"/>
      <point x="438" y="273" type="line"/>
    </contour>
  </outline>
</glyph>
<glyph name="Aring" format="2">
  <advance width="784"/>
  <unicode hex="00C5"/>
  <outline>
    <contour>
      <point x="463" y="0" type="line"/>
      <point x="454" y="95" type="line"/>
      <point x="252" y="95" type="line"/>
      <point x="213" y="0" type="line"/>
      <point x="-41" y="0" type="line"/>
      <point x="292" y="715" type="line"/>
      <point x="635" y="715" type="line"/>
      <point x="741" y="0" type="line"/>
    </contour>
    <contour>
      <point x="468" y="737" type="curve" smooth="yes"/>
      <point x="399" y="737"/>
      <point x="342" y="792"/>
      <point x="342" y="859" type="curve" smooth="yes"/>
      <point x="342" y="926"/>
      <point x="399" y="981"/>
      <point x="468" y="981" type="curve" smooth="yes"/>
      <point x="537" y="981"/>
      <point x="594" y="926"/>
      <point x="594" y="859" type="curve" smooth="yes"/>
      <point x="594" y="792"/>
      <point x="537" y="737"/>
    </contour>
    <contour>
      <point x="418" y="501" type="line"/>
      <point x="325" y="273" type="line"/>
      <point x="438" y="273" type="line"/>
    </contour>
    <contour>
      <point x="468" y="812" type="curve" smooth="yes"/>
      <point x="493" y="812"/>
      <point x="511" y="831"/>
      <point x="511" y="859" type="curve" smooth="yes"/>
      <point x="511" y="887"/>
      <point x="493" y="906"/>
      <point x="468" y="906" type="curve" smooth="yes"/>
      <point x="442" y="906"/>
      <point x="425" y="887"/>
      <point x="425" y="859" type="curve" smooth="yes"/>
      <point x="425" y="831"/>
      <point x="442" y="812"/>
    </contour>
  </outline>
</glyph>
<glyph name="Ccedilla" format="2">
  <advance width="779"/>
  <unicode hex="00C7"/>
  <outline>
    <contour>
      <point x="322" y="-232" type="curve" smooth="yes"/>
      <point x="252" y="-232"/>
      <point x="187" y="-204"/>
      <point x="182" y="-135" type="curve"/>
      <point x="282" y="-135" type="line"/>
      <point x="284" y="-146"/>
      <point x="290" y="-158"/>
      <point x="313" y="-158" type="curve" smooth="yes"/>
      <point x="326" y="-158"/>
      <point x="343" y="-150"/>
      <point x="343" y="-128" type="curve" smooth="yes"/>
      <point x="343" y="-110"/>
      <point x="332" y="-102"/>
      <point x="313" y="-102" type="curve" smooth="yes"/>
      <point x="297" y="-102"/>
      <point x="289" y="-107"/>
      <point x="282" y="-113" type="curve"/>
      <point x="244" y="-71" type="line"/>
      <point x="297" y="-6" type="line"/>
      <point x="135" y="21"/>
      <point x="32" y="121"/>
      <point x="32" y="302" type="curve" smooth="yes"/>
      <point x="32" y="552"/>
      <point x="181" y="726"/>
      <point x="442" y="726" type="curve" smooth="yes"/>
      <point x="650" y="726"/>
      <point x="775" y="629"/>
      <point x="781" y="430" type="curve"/>
      <point x="511" y="430" type="line"/>
      <point x="509" y="486"/>
      <point x="487" y="519"/>
      <point x="435" y="519" type="curve" smooth="yes"/>
      <point x="348" y="519"/>
      <point x="312" y="421"/>
      <point x="310" y="314" type="curve" smooth="yes"/>
      <point x="309" y="254"/>
      <point x="329" y="196"/>
      <point x="399" y="196" type="curve" smooth="yes"/>
      <point x="447" y="196"/>
      <point x="485" y="221"/>
      <point x="499" y="285" type="curve"/>
      <point x="764" y="285" type="line"/>
      <point x="739" y="81"/>
      <point x="582" y="-14"/>
      <point x="396" y="-14" type="curve" smooth="yes"/>
      <point x="388" y="-14"/>
      <point x="385" y="-14"/>
      <point x="372" y="-13" type="curve"/>
      <point x="349" y="-41" type="line"/>
      <point x="409" y="-37"/>
      <point x="455" y="-68"/>
      <point x="455" y="-124" type="curve" smooth="yes"/>
      <point x="455" y="-198"/>
      <point x="393" y="-232"/>
    </contour>
  </outline>
</glyph>
<glyph name="Edieresis" format="2">
  <advance width="635"/>
  <unicode hex="00CB"/>
  <outline>
    <contour>
      <point x="16" y="0" type="line"/>
      <point x="129" y="715" type="line"/>
      <point x="663" y="715" type="line"/>
      <point x="631" y="512" type="line"/>
      <point x="362" y="512" type="line"/>
      <point x="352" y="451" type="line"/>
      <point x="564" y="451" type="line"/>
      <point x="536" y="269" type="line"/>
      <point x="324" y="269" type="line"/>
      <point x="313" y="203" type="line"/>
      <point x="597" y="203" type="line"/>
      <point x="565" y="0" type="line"/>
    </contour>
    <contour>
      <point x="293" y="742" type="curve" smooth="yes"/>
      <point x="236" y="742"/>
      <point x="191" y="786"/>
      <point x="191" y="841" type="curve" smooth="yes"/>
      <point x="191" y="896"/>
      <point x="236" y="940"/>
      <point x="293" y="940" type="curve" smooth="yes"/>
      <point x="350" y="940"/>
      <point x="396" y="896"/>
      <point x="396" y="841" type="curve" smooth="yes"/>
      <point x="396" y="786"/>
      <point x="350" y="742"/>
    </contour>
    <contour>
      <point x="526" y="742" type="curve" smooth="yes"/>
      <point x="469" y="742"/>
      <point x="425" y="786"/>
      <point x="425" y="841" type="curve" smooth="yes"/>
      <point x="425" y="896"/>
      <point x="469" y="940"/>
      <point x="526" y="940" type="curve" smooth="yes"/>
      <point x="584" y="940"/>
      <point x="629" y="896"/>
      <point x="629" y="841" type="curve" smooth="yes"/>
      <point x="629" y="786"/>
      <point x="584" y="742"/>
    </contour>
  </outline>
</glyph>
<glyph name="Igrave" format="2">
  <advance width="391"/>
  <unicode hex="00CC"/>
  <outline>
    <contour>
      <point x="19" y="0" type="line"/>
      <point x="132" y="715" type="line"/>
      <point x="401" y="715" type="line"/>
      <point x="288" y="0" type="line"/>
    </contour>
    <contour>
      <point x="194" y="753" type="line"/>
      <point x="105" y="908" type="line"/>
      <point x="332" y="908" type="line"/>
      <point x="362" y="753" type="line"/>
    </contour>
  </outline>
</glyph>
<glyph name="Iacute" format="2">
  <advance width="391"/>
  <unicode hex="00CD"/>
  <outline>
    <contour>
      <point x="19" y="0" type="line"/>
      <point x="132" y="715" type="line"/>
      <point x="401" y="715" type="line"/>
      <point x="288" y="0" type="line"/>
    </contour>
    <contour>
      <point x="168" y="753" type="line"/>
      <point x="230" y="908" type="line"/>
      <point x="459" y="908" type="line"/>
      <point x="341" y="753" type="line"/>
    </contour>
  </outline>
</glyph>
<glyph name="Icircumflex" format="2">
  <advance width="391"/>
  <unicode hex="00CE"/>
  <outline>
    <contour>
      <point x="19" y="0" type="line"/>
      <point x="132" y="715" type="line"/>
      <point x="401" y="715" type="line"/>
      <point x="288" y="0" type="line"/>
    </contour>
    <contour>
      <point x="60" y="753" type="line"/>
      <point x="195" y="908" type="line"/>
      <point x="384" y="908" type="line"/>
      <point x="477" y="753" type="line"/>
      <point x="318" y="753" type="line"/>
      <point x="278" y="797" type="line"/>
      <point x="228" y="753" type="line"/>
    </contour>
  </outline>
</glyph>
<glyph name="Idieresis" format="2">
  <advance width="391"/>
  <unicode hex="00CF"/>
  <outline>
    <contour>
      <point x="19" y="0" type="line"/>
      <point x="132" y="715" type="line"/>
      <point x="401" y="715" type="line"/>
      <point x="288" y="0" type="line"/>
    </contour>
    <contour>
      <point x="166" y="742" type="curve" smooth="yes"/>
      <point x="109" y="742"/>
      <point x="64" y="786"/>
      <point x="64" y="841" type="curve" smooth="yes"/>
      <point x="64" y="896"/>
      <point x="109" y="940"/>
      <point x="166" y="940" type="curve" smooth="yes"/>
      <point x="223" y="940"/>
      <point x="269" y="896"/>
      <point x="269" y="841" type="curve" smooth="yes"/>
      <point x="269" y="786"/>
      <point x="223" y="742"/>
    </contour>
    <contour>
      <point x="399" y="742" type="curve" smooth="yes"/>
      <point x="342" y="742"/>
      <point x="298" y="786"/>
      <point x="298" y="841" type="curve" smooth="yes"/>
      <point x="298" y="896"/>
      <point x="342" y="940"/>
      <point x="399" y="940" type="curve" smooth="yes"/>
      <point x="457" y="940"/>
      <point x="502" y="896"/>
      <point x="502" y="841" type="curve" smooth="yes"/>
      <point x="502" y="786"/>
      <point x="457" y="742"/>
    </contour>
  </outline>
</glyph>
<glyph name="Eth" format="2">
  <advance width="791"/>
  <unicode hex="00D0"/>
  <outline>
    <contour>
      <point x="28" y="272" type="line"/>
      <point x="55" y="447" type="line"/>
      <point x="104" y="447" type="line"/>
      <point x="147" y="715" type="line"/>
      <point x="408" y="715" type="line" smooth="yes"/>
      <point x="654" y="715"/>
      <point x="787" y="607"/>
      <point x="787" y="411" type="curve" smooth="yes"/>
      <point x="787" y="132"/>
      <point x="609" y="0"/>
      <point x="367" y="0" type="curve" smooth="yes"/>
      <point x="34" y="0" type="line"/>
      <point x="77" y="272" type="line"/>
    </contour>
    <contour>
      <point x="326" y="201" type="line"/>
      <point x="370" y="201" type="line" smooth="yes"/>
      <point x="462" y="201"/>
      <point x="511" y="270"/>
      <point x="511" y="399" type="curve" smooth="yes"/>
      <point x="511" y="479"/>
      <point x="473" y="514"/>
      <point x="403" y="514" type="curve" smooth="yes"/>
      <point x="376" y="514" type="line"/>
      <point x="365" y="447" type="line"/>
      <point x="440" y="447" type="line"/>
      <point x="413" y="272" type="line"/>
      <point x="337" y="272" type="line"/>
    </contour>
  </outline>
</glyph>
<glyph name="Ntilde" format="2">
  <advance width="805"/>
  <unicode hex="00D1"/>
  <outline>
    <contour>
      <point x="16" y="0" type="line"/>
      <point x="129" y="715" type="line"/>
      <point x="423" y="715" type="line"/>
      <point x="531" y="398" type="line"/>
      <point x="581" y="715" type="line"/>
      <point x="817" y="715" type="line"/>
      <point x="704" y="0" type="line"/>
      <point x="454" y="0" type="line"/>
      <point x="312" y="375" type="line"/>
      <point x="253" y="0" type="line"/>
    </contour>
    <contour>
      <point x="563" y="750" type="curve" smooth="yes"/>
      <point x="500" y="750"/>
      <point x="471" y="779"/>
      <point x="440" y="779" type="curve" smooth="yes"/>
      <point x="425" y="779"/>
      <point x="413" y="768"/>
      <point x="410" y="753" type="curve"/>
      <point x="287" y="753" type="line"/>
      <point x="306" y="875"/>
      <point x="368" y="925"/>
      <point x="436" y="925" type="curve" smooth="yes"/>
      <point x="495" y="925"/>
      <point x="527" y="896"/>
      <point x="562" y="896" type="curve" smooth="yes"/>
      <point x="579" y="896"/>
      <point x="588" y="906"/>
      <point x="593" y="922" type="curve"/>
      <point x="716" y="922" type="line"/>
      <point x="695" y="800"/>
      <point x="628" y="750"/>
    </contour>
  </outline>
</glyph>
<glyph name="Ograve" format="2">
  <advance width="823"/>
  <unicode hex="00D2"/>
  <outline>
    <contour>
      <point x="308" y="307" type="curve" smooth="yes"/>
      <point x="308" y="244"/>
      <point x="333" y="194"/>
      <point x="408" y="194" type="curve" smooth="yes"/>
      <point x="508" y="194"/>
      <point x="543" y="304"/>
      <point x="543" y="402" type="curve" smooth="yes"/>
      <point x="543" y="466"/>
      <point x="519" y="517"/>
      <point x="445" y="519" type="curve" smooth="yes"/>
      <point x="349" y="521"/>
      <point x="308" y="413"/>
    </contour>
    <contour>
      <point x="387" y="-14" type="curve" smooth="yes"/>
      <point x="201" y="-14"/>
      <point x="32" y="87"/>
      <point x="32" y="296" type="curve" smooth="yes"/>
      <point x="32" y="554"/>
      <point x="202" y="726"/>
      <point x="453" y="726" type="curve" smooth="yes"/>
      <point x="647" y="726"/>
      <point x="820" y="631"/>
      <point x="820" y="412" type="curve" smooth="yes"/>
      <point x="820" y="157"/>
      <point x="652" y="-14"/>
    </contour>
    <contour>
      <point x="388" y="753" type="line"/>
      <point x="299" y="908" type="line"/>
      <point x="526" y="908" type="line"/>
      <point x="556" y="753" type="line"/>
    </contour>
  </outline>
</glyph>
<glyph name="Otilde" format="2">
  <advance width="823"/>
  <unicode hex="00D5"/>
  <outline>
    <contour>
      <point x="308" y="307" type="curve" smooth="yes"/>
      <point x="308" y="244"/>
      <point x="333" y="194"/>
      <point x="408" y="194" type="curve" smooth="yes"/>
      <point x="508" y="194"/>
      <point x="543" y="304"/>
      <point x="543" y="402" type="curve" smooth="yes"/>
      <point x="543" y="466"/>
      <point x="519" y="517"/>
      <point x="445" y="519" type="curve" smooth="yes"/>
      <point x="349" y="521"/>
      <point x="308" y="413"/>
    </contour>
    <contour>
      <point x="387" y="-14" type="curve" smooth="yes"/>
      <point x="201" y="-14"/>
      <point x="32" y="87"/>
      <point x="32" y="296" type="curve" smooth="yes"/>
      <point x="32" y="554"/>
      <point x="202" y="726"/>
      <point x="453" y="726" type="curve" smooth="yes"/>
      <point x="647" y="726"/>
      <point x="820" y="631"/>
      <point x="820" y="412" type="curve" smooth="yes"/>
      <point x="820" y="157"/>
      <point x="652" y="-14"/>
    </contour>
    <contour>
      <point x="530" y="750" type="curve" smooth="yes"/>
      <point x="467" y="750"/>
      <point x="438" y="779"/>
      <point x="407" y="779" type="curve" smooth="yes"/>
      <point x="392" y="779"/>
      <point x="380" y="768"/>
      <point x="377" y="753" type="curve"/>
      <point x="254" y="753" type="line"/>
      <point x="273" y="875"/>
      <point x="335" y="925"/>
      <point x="403" y="925" type="curve" smooth="yes"/>
      <point x="462" y="925"/>
      <point x="494" y="896"/>
      <point x="529" y="896" type="curve" smooth="yes"/>
      <point x="546" y="896"/>
      <point x="555" y="906"/>
      <point x="560" y="922" type="curve"/>
      <point x="683" y="922" type="line"/>
      <point x="662" y="800"/>
      <point x="595" y="750"/>
    </contour>
  </outline>
</glyph>
<glyph name="Odieresis" format="2">
  <advance width="823"/>
  <unicode hex="00D6"/>
  <outline>
    <contour>
      <point x="308" y="307" type="curve" smooth="yes"/>
      <point x="308" y="244"/>
      <point x="333" y="194"/>
      <point x="408" y="194" type="curve" smooth="yes"/>
      <point x="508" y="194"/>
      <point x="543" y="304"/>
      <point x="543" y="402" type="curve" smooth="yes"/>
      <point x="543" y="466"/>
      <point x="519" y="517"/>
      <point x="445" y="519" type="curve" smooth="yes"/>
      <point x="349" y="521"/>
      <point x="308" y="413"/>
    </contour>
    <contour>
      <point x="387" y="-14" type="curve" smooth="yes"/>
      <point x="201" y="-14"/>
      <point x="32" y="87"/>
      <point x="32" y="296" type="curve" smooth="yes"/>
      <point x="32" y="554"/>
      <point x="202" y="726"/>
      <point x="453" y="726" type="curve" smooth="yes"/>
      <point x="647" y="726"/>
      <point x="820" y="631"/>
      <point x="820" y="412" type="curve" smooth="yes"/>
      <point x="820" y="157"/>
      <point x="652" y="-14"/>
    </contour>
    <contour>
      <point x="360" y="742" type="curve" smooth="yes"/>
      <point x="303" y="742"/>
      <point x="258" y="786"/>
      <point x="258" y="841" type="curve" smooth="yes"/>
      <point x="258" y="896"/>
      <point x="303" y="940"/>
      <point x="360" y="940" type="curve" smooth="yes"/>
      <point x="417" y="940"/>
      <point x="463" y="896"/>
      <point x="463" y="841" type="curve" smooth="yes"/>
      <point x="463" y="786"/>
      <point x="417" y="742"/>
    </contour>
    <contour>
      <point x="593" y="742" type="curve" smooth="yes"/>
      <point x="536" y="742"/>
      <point x="492" y="786"/>
      <point x="492" y="841" type="curve" smooth="yes"/>
      <point x="492" y="896"/>
      <point x="536" y="940"/>
      <point x="593" y="940" type="curve" smooth="yes"/>
      <point x="651" y="940"/>
      <point x="696" y="896"/>
      <point x="696" y="841" type="curve" smooth="yes"/>
      <point x="696" y="786"/>
      <point x="651" y="742"/>
    </contour>
  </outline>
</glyph>
<glyph name="multiply" format="2">
  <advance width="623"/>
  <unicode hex="00D7"/>
  <outline>
    <contour>
      <point x="29" y="188" type="line"/>
      <point x="203" y="339" type="line"/>
      <point x="73" y="493" type="line"/>
      <point x="207" y="612" type="line"/>
      <point x="339" y="456" type="line"/>
      <point x="513" y="607" type="line"/>
      <point x="616" y="488" type="line"/>
      <point x="441" y="336" type="line"/>
      <point x="572" y="183" type="line"/>
      <point x="437" y="64" type="line"/>
      <point x="305" y="219" type="line"/>
      <point x="132" y="69" type="line"/>
    </contour>
  </outline>
</glyph>
<glyph name="Ucircumflex" format="2">
  <advance width="799"/>
  <unicode hex="00DB"/>
  <outline>
    <contour>
      <point x="391" y="-14" type="curve" smooth="yes"/>
      <point x="156" y="-14"/>
      <point x="26" y="98"/>
      <point x="62" y="321" type="curve" smooth="yes"/>
      <point x="125" y="715" type="line"/>
      <point x="391" y="715" type="line"/>
      <point x="327" y="313" type="line" smooth="yes"/>
      <point x="315" y="237"/>
      <point x="330" y="194"/>
      <point x="394" y="194" type="curve" smooth="yes"/>
      <point x="461" y="194"/>
      <point x="472" y="235"/>
      <point x="483" y="303" type="curve" smooth="yes"/>
      <point x="548" y="715" type="line"/>
      <point x="816" y="715" type="line"/>
      <point x="748" y="283" type="line" smooth="yes"/>
      <point x="715" y="71"/>
      <point x="601" y="-14"/>
    </contour>
    <contour>
      <point x="257" y="753" type="line"/>
      <point x="392" y="908" type="line"/>
      <point x="581" y="908" type="line"/>
      <point x="674" y="753" type="line"/>
      <point x="515" y="753" type="line"/>
      <point x="475" y="797" type="line"/>
      <point x="425" y="753" type="line"/>
    </contour>
  </outline>
</glyph>
<glyph name="Udieresis" format="2">
  <advance width="799"/>
  <unicode hex="00DC"/>
  <outline>
    <contour>
      <point x="391" y="-14" type="curve" smooth="yes"/>
      <point x="156" y="-14"/>
      <point x="26" y="98"/>
      <point x="62" y="321" type="curve" smooth="yes"/>
      <point x="125" y="715" type="line"/>
      <point x="391" y="715" type="line"/>
      <point x="327" y="313" type="line" smooth="yes"/>
      <point x="315" y="237"/>
      <point x="330" y="194"/>
      <point x="394" y="194" type="curve" smooth="yes"/>
      <point x="461" y="194"/>
      <point x="472" y="235"/>
      <point x="483" y="303" type="curve" smooth="yes"/>
      <point x="548" y="715" type="line"/>
      <point x="816" y="715" type="line"/>
      <point x="748" y="283" type="line" smooth="yes"/>
      <point x="715" y="71"/>
      <point x="601" y="-14"/>
    </contour>
    <contour>
      <point x="359" y="742" type="curve" smooth="yes"/>
      <point x="302" y="742"/>
      <point x="257" y="786"/>
      <point x="257" y="841" type="curve" smooth="yes"/>
      <point x="257" y="896"/>
      <point x="302" y="940"/>
      <point x="359" y="940" type="curve" smooth="yes"/>
      <point x="416" y="940"/>
      <point x="462" y="896"/>
      <point x="462" y="841" type="curve" smooth="yes"/>
      <point x="462" y="786"/>
      <point x="416" y="742"/>
    </contour>
    <contour>
      <point x="592" y="742" type="curve" smooth="yes"/>
      <point x="535" y="742"/>
      <point x="491" y="786"/>
      <point x="491" y="841" type="curve" smooth="yes"/>
      <point x="491" y="896"/>
      <point x="535" y="940"/>
      <point x="592" y="940" type="curve" smooth="yes"/>
      <point x="650" y="940"/>
      <point x="695" y="896"/>
      <point x="695" y="841" type="curve" smooth="yes"/>
      <point x="695" y="786"/>
      <point x="650" y="742"/>
    </contour>
  </outline>
</glyph>
<glyph name="Yacute" format="2">
  <advance width="722"/>
  <unicode hex="00DD"/>
  <outline>
    <contour>
      <point x="187" y="0" type="line"/>
      <point x="234" y="304" type="line"/>
      <point x="70" y="715" type="line"/>
      <point x="346" y="715" type="line"/>
      <point x="405" y="525" type="line"/>
      <point x="523" y="715" type="line"/>
      <point x="788" y="715" type="line"/>
      <point x="501" y="291" type="line"/>
      <point x="455" y="0" type="line"/>
    </contour>
    <contour>
      <point x="353" y="753" type="line"/>
      <point x="415" y="908" type="line"/>
      <point x="644" y="908" type="line"/>
      <point x="526" y="753" type="line"/>
    </contour>
  </outline>
</glyph>
<glyph name="Thorn" format="2">
  <advance width="688"/>
  <unicode hex="00DE"/>
  <outline>
    <contour>
      <point x="375" y="120" type="curve" smooth="yes"/>
      <point x="301" y="120" type="line"/>
      <point x="283" y="0" type="line"/>
      <point x="16" y="0" type="line"/>
      <point x="129" y="715" type="line"/>
      <point x="394" y="715" type="line"/>
      <point x="377" y="605" type="line"/>
      <point x="402" y="605" type="line" smooth="yes"/>
      <point x="594" y="605"/>
      <point x="689" y="528"/>
      <point x="689" y="393" type="curve" smooth="yes"/>
      <point x="689" y="228"/>
      <point x="576" y="120"/>
    </contour>
    <contour>
      <point x="372" y="422" type="curve" smooth="yes"/>
      <point x="348" y="422" type="line"/>
      <point x="329" y="296" type="line"/>
      <point x="361" y="296" type="line" smooth="yes"/>
      <point x="409" y="296"/>
      <point x="437" y="322"/>
      <point x="437" y="371" type="curve" smooth="yes"/>
      <point x="437" y="401"/>
      <point x="417" y="422"/>
    </contour>
  </outline>
</glyph>
<glyph name="germandbls" format="2">
  <advance width="657"/>
  <unicode hex="00DF"/>
  <outline>
    <contour>
      <point x="370" y="-10" type="curve" smooth="yes"/>
      <point x="327" y="-10"/>
      <point x="291" y="-4"/>
      <point x="262" y="4" type="curve"/>
      <point x="289" y="169" type="line"/>
      <point x="298" y="165"/>
      <point x="311" y="162"/>
      <point x="325" y="162" type="curve" smooth="yes"/>
      <point x="392" y="162"/>
      <point x="412" y="214"/>
      <point x="412" y="285" type="curve" smooth="yes"/>
      <point x="412" y="352"/>
      <point x="375" y="373"/>
      <point x="320" y="370" type="curve"/>
      <point x="343" y="515" type="line"/>
      <point x="388" y="516"/>
      <point x="417" y="533"/>
      <point x="417" y="577" type="curve" smooth="yes"/>
      <point x="417" y="606"/>
      <point x="401" y="625"/>
      <point x="370" y="625" type="curve" smooth="yes"/>
      <point x="338" y="625"/>
      <point x="319" y="604"/>
      <point x="311" y="554" type="curve" smooth="yes"/>
      <point x="224" y="0" type="line"/>
      <point x="-5" y="0" type="line"/>
      <point x="81" y="540" type="line" smooth="yes"/>
      <point x="108" y="712"/>
      <point x="222" y="769"/>
      <point x="378" y="769" type="curve" smooth="yes"/>
      <point x="532" y="769"/>
      <point x="631" y="710"/>
      <point x="631" y="591" type="curve" smooth="yes"/>
      <point x="631" y="513"/>
      <point x="577" y="462"/>
      <point x="497" y="441" type="curve"/>
      <point x="578" y="419"/>
      <point x="640" y="355"/>
      <point x="640" y="252" type="curve" smooth="yes"/>
      <point x="640" y="94"/>
      <point x="545" y="-10"/>
    </contour>
  </outline>
</glyph>
<glyph name="acircumflex" format="2">
  <advance width="595"/>
  <unicode hex="00E2"/>
  <outline>
    <contour>
      <point x="263" y="134" type="curve" smooth="yes"/>
      <point x="296" y="134"/>
      <point x="320" y="156"/>
      <point x="324" y="183" type="curve" smooth="yes"/>
      <point x="328" y="202" type="line"/>
      <point x="288" y="202" type="line" smooth="yes"/>
      <point x="239" y="202"/>
      <point x="224" y="190"/>
      <point x="224" y="166" type="curve" smooth="yes"/>
      <point x="224" y="148"/>
      <point x="238" y="134"/>
    </contour>
    <contour>
      <point x="540" y="0" type="curve"/>
      <point x="318" y="0" type="line"/>
      <point x="314" y="19"/>
      <point x="314" y="45"/>
      <point x="314" y="65" type="curve"/>
      <point x="289" y="27"/>
      <point x="245" y="-14"/>
      <point x="160" y="-14" type="curve" smooth="yes"/>
      <point x="72" y="-14"/>
      <point x="-4" y="36"/>
      <point x="-4" y="130" type="curve" smooth="yes"/>
      <point x="-4" y="270"/>
      <point x="96" y="316"/>
      <point x="282" y="316" type="curve" smooth="yes"/>
      <point x="346" y="316" type="line"/>
      <point x="347" y="323" type="line" smooth="yes"/>
      <point x="352" y="356"/>
      <point x="349" y="384"/>
      <point x="306" y="384" type="curve" smooth="yes"/>
      <point x="269" y="384"/>
      <point x="260" y="357"/>
      <point x="256" y="339" type="curve"/>
      <point x="44" y="339" type="line"/>
      <point x="70" y="468"/>
      <point x="159" y="539"/>
      <point x="317" y="539" type="curve" smooth="yes"/>
      <point x="511" y="539"/>
      <point x="594" y="457"/>
      <point x="568" y="293" type="curve" smooth="yes"/>
      <point x="548" y="166" type="line" smooth="yes"/>
      <point x="537" y="98"/>
      <point x="534" y="44"/>
    </contour>
    <contour>
      <point x="126" y="571" type="line"/>
      <point x="278" y="743" type="line"/>
      <point x="433" y="743" type="line"/>
      <point x="535" y="571" type="line"/>
      <point x="383" y="571" type="line"/>
      <point x="341" y="617" type="line"/>
      <point x="287" y="571" type="line"/>
    </contour>
  </outline>
</glyph>
<glyph name="atilde" format="2">
  <advance width="595"/>
  <unicode hex="00E3"/>
  <outline>
    <contour>
      <point x="263" y="134" type="curve" smooth="yes"/>
      <point x="296" y="134"/>
      <point x="320" y="156"/>
      <point x="324" y="183" type="curve" smooth="yes"/>
      <point x="328" y="202" type="line"/>
      <point x="288" y="202" type="line" smooth="yes"/>
      <point x="239" y="202"/>
      <point x="224" y="190"/>
      <point x="224" y="166" type="curve" smooth="yes"/>
      <point x="224" y="148"/>
      <point x="238" y="134"/>
    </contour>
    <contour>
      <point x="540" y="0" type="curve"/>
      <point x="318" y="0" type="line"/>
      <point x="314" y="19"/>
      <point x="314" y="45"/>
      <point x="314" y="65" type="curve"/>
      <point x="289" y="27"/>
      <point x="245" y="-14"/>
      <point x="160" y="-14" type="curve" smooth="yes"/>
      <point x="72" y="-14"/>
      <point x="-4" y="36"/>
      <point x="-4" y="130" type="curve" smooth="yes"/>
      <point x="-4" y="270"/>
      <point x="96" y="316"/>
      <point x="282" y="316" type="curve" smooth="yes"/>
      <point x="346" y="316" type="line"/>
      <point x="347" y="323" type="line" smooth="yes"/>
      <point x="352" y="356"/>
      <point x="349" y="384"/>
      <point x="306" y="384" type="curve" smooth="yes"/>
      <point x="269" y="384"/>
      <point x="260" y="357"/>
      <point x="256" y="339" type="curve"/>
      <point x="44" y="339" type="line"/>
      <point x="70" y="468"/>
      <point x="159" y="539"/>
      <point x="317" y="539" type="curve" smooth="yes"/>
      <point x="511" y="539"/>
      <point x="594" y="457"/>
      <point x="568" y="293" type="curve" smooth="yes"/>
      <point x="548" y="166" type="line" smooth="yes"/>
      <point x="537" y="98"/>
      <point x="534" y="44"/>
    </contour>
    <contour>
      <point x="403" y="570" type="curve" smooth="yes"/>
      <point x="340" y="570"/>
      <point x="314" y="599"/>
      <point x="283" y="599" type="curve" smooth="yes"/>
      <point x="268" y="599"/>
      <point x="258" y="588"/>
      <point x="254" y="573" type="curve"/>
      <point x="138" y="573" type="line"/>
      <point x="156" y="695"/>
      <point x="209" y="749"/>
      <point x="277" y="749" type="curve" smooth="yes"/>
      <point x="336" y="749"/>
      <point x="366" y="720"/>
      <point x="401" y="720" type="curve" smooth="yes"/>
      <point x="418" y="720"/>
      <point x="425" y="730"/>
      <point x="430" y="746" type="curve"/>
      <point x="546" y="746" type="line"/>
      <point x="527" y="624"/>
      <point x="468" y="570"/>
    </contour>
  </outline>
</glyph>
<glyph name="ccedilla" format="2">
  <advance width="592"/>
  <unicode hex="00E7"/>
  <outline>
    <contour>
      <point x="236" y="-232" type="curve" smooth="yes"/>
      <point x="166" y="-232"/>
      <point x="101" y="-204"/>
      <point x="96" y="-135" type="curve"/>
      <point x="196" y="-135" type="line"/>
      <point x="198" y="-146"/>
      <point x="204" y="-158"/>
      <point x="227" y="-158" type="curve" smooth="yes"/>
      <point x="240" y="-158"/>
      <point x="257" y="-150"/>
      <point x="257" y="-128" type="curve" smooth="yes"/>
      <point x="257" y="-110"/>
      <point x="246" y="-102"/>
      <point x="227" y="-102" type="curve" smooth="yes"/>
      <point x="211" y="-102"/>
      <point x="203" y="-107"/>
      <point x="196" y="-113" type="curve"/>
      <point x="158" y="-71" type="line"/>
      <point x="212" y="-5" type="line"/>
      <point x="99" y="18"/>
      <point x="16" y="93"/>
      <point x="16" y="228" type="curve" smooth="yes"/>
      <point x="16" y="411"/>
      <point x="135" y="539"/>
      <point x="322" y="539" type="curve" smooth="yes"/>
      <point x="469" y="539"/>
      <point x="579" y="471"/>
      <point x="584" y="308" type="curve"/>
      <point x="370" y="308" type="line"/>
      <point x="367" y="344"/>
      <point x="355" y="364"/>
      <point x="318" y="364" type="curve" smooth="yes"/>
      <point x="256" y="364"/>
      <point x="244" y="287"/>
      <point x="244" y="225" type="curve" smooth="yes"/>
      <point x="244" y="181"/>
      <point x="257" y="149"/>
      <point x="302" y="149" type="curve" smooth="yes"/>
      <point x="339" y="149"/>
      <point x="361" y="170"/>
      <point x="369" y="215" type="curve"/>
      <point x="573" y="215" type="line"/>
      <point x="557" y="68"/>
      <point x="461" y="-13"/>
      <point x="293" y="-13" type="curve" smooth="yes"/>
      <point x="287" y="-13" type="line"/>
      <point x="263" y="-41" type="line"/>
      <point x="323" y="-37"/>
      <point x="369" y="-68"/>
      <point x="369" y="-124" type="curve" smooth="yes"/>
      <point x="369" y="-198"/>
      <point x="307" y="-232"/>
    </contour>
  </outline>
</glyph>
<glyph name="edieresis" format="2">
  <advance width="616"/>
  <unicode hex="00EB"/>
  <outline>
    <contour>
      <point x="590" y="215" type="line"/>
      <point x="238" y="215" type="line"/>
      <point x="239" y="175"/>
      <point x="256" y="134"/>
      <point x="312" y="134" type="curve" smooth="yes"/>
      <point x="354" y="134"/>
      <point x="371" y="158"/>
      <point x="379" y="184" type="curve"/>
      <point x="592" y="184" type="line"/>
      <point x="569" y="57"/>
      <point x="464" y="-14"/>
      <point x="307" y="-14" type="curve" smooth="yes"/>
      <point x="151" y="-14"/>
      <point x="16" y="53"/>
      <point x="16" y="230" type="curve" smooth="yes"/>
      <point x="16" y="418"/>
      <point x="152" y="539"/>
      <point x="332" y="539" type="curve" smooth="yes"/>
      <point x="515" y="539"/>
      <point x="622" y="426"/>
      <point x="593" y="235" type="curve" smooth="yes"/>
    </contour>
    <contour>
      <point x="236" y="552" type="curve" smooth="yes"/>
      <point x="179" y="552"/>
      <point x="134" y="596"/>
      <point x="134" y="651" type="curve" smooth="yes"/>
      <point x="134" y="706"/>
      <point x="179" y="750"/>
      <point x="236" y="750" type="curve" smooth="yes"/>
      <point x="293" y="750"/>
      <point x="339" y="706"/>
      <point x="339" y="651" type="curve" smooth="yes"/>
      <point x="339" y="596"/>
      <point x="293" y="552"/>
    </contour>
    <contour>
      <point x="461" y="552" type="curve" smooth="yes"/>
      <point x="404" y="552"/>
      <point x="360" y="596"/>
      <point x="360" y="651" type="curve" smooth="yes"/>
      <point x="360" y="706"/>
      <point x="404" y="750"/>
      <point x="461" y="750" type="curve" smooth="yes"/>
      <point x="519" y="750"/>
      <point x="564" y="706"/>
      <point x="564" y="651" type="curve" smooth="yes"/>
      <point x="564" y="596"/>
      <point x="519" y="552"/>
    </contour>
    <contour>
      <point x="329" y="398" type="curve" smooth="yes"/>
      <point x="296" y="398"/>
      <point x="266" y="377"/>
      <point x="250" y="321" type="curve"/>
      <point x="389" y="321" type="line"/>
      <point x="392" y="364"/>
      <point x="375" y="398"/>
    </contour>
  </outline>
</glyph>
<glyph name="igrave" format="2">
  <advance width="316"/>
  <unicode hex="00EC"/>
  <outline>
    <contour>
      <point x="2" y="0" type="line"/>
      <point x="84" y="523" type="line"/>
      <point x="312" y="523" type="line"/>
      <point x="230" y="0" type="line"/>
    </contour>
    <contour>
      <point x="132" y="568" type="line"/>
      <point x="37" y="743" type="line"/>
      <point x="254" y="743" type="line"/>
      <point x="290" y="568" type="line"/>
    </contour>
  </outline>
</glyph>
<glyph name="iacute" format="2">
  <advance width="316"/>
  <unicode hex="00ED"/>
  <outline>
    <contour>
      <point x="2" y="0" type="line"/>
      <point x="84" y="523" type="line"/>
      <point x="312" y="523" type="line"/>
      <point x="230" y="0" type="line"/>
    </contour>
    <contour>
      <point x="116" y="568" type="line"/>
      <point x="187" y="743" type="line"/>
      <point x="406" y="743" type="line"/>
      <point x="279" y="568" type="line"/>
    </contour>
  </outline>
</glyph>
<glyph name="icircumflex" format="2">
  <advance width="316"/>
  <unicode hex="00EE"/>
  <outline>
    <contour>
      <point x="2" y="0" type="line"/>
      <point x="84" y="523" type="line"/>
      <point x="312" y="523" type="line"/>
      <point x="230" y="0" type="line"/>
    </contour>
    <contour>
      <point x="2" y="571" type="line"/>
      <point x="154" y="743" type="line"/>
      <point x="309" y="743" type="line"/>
      <point x="411" y="571" type="line"/>
      <point x="259" y="571" type="line"/>
      <point x="217" y="617" type="line"/>
      <point x="163" y="571" type="line"/>
    </contour>
  </outline>
</glyph>
<glyph name="idieresis" format="2">
  <advance width="316"/>
  <unicode hex="00EF"/>
  <outline>
    <contour>
      <point x="108" y="552" type="curve" smooth="yes"/>
      <point x="51" y="552"/>
      <point x="6" y="596"/>
      <point x="6" y="651" type="curve" smooth="yes"/>
      <point x="6" y="706"/>
      <point x="51" y="750"/>
      <point x="108" y="750" type="curve" smooth="yes"/>
      <point x="165" y="750"/>
      <point x="211" y="706"/>
      <point x="211" y="651" type="curve" smooth="yes"/>
      <point x="211" y="596"/>
      <point x="165" y="552"/>
    </contour>
    <contour>
      <point x="333" y="552" type="curve" smooth="yes"/>
      <point x="276" y="552"/>
      <point x="232" y="596"/>
      <point x="232" y="651" type="curve" smooth="yes"/>
      <point x="232" y="706"/>
      <point x="276" y="750"/>
      <point x="333" y="750" type="curve" smooth="yes"/>
      <point x="391" y="750"/>
      <point x="436" y="706"/>
      <point x="436" y="651" type="curve" smooth="yes"/>
      <point x="436" y="596"/>
      <point x="391" y="552"/>
    </contour>
    <contour>
      <point x="2" y="0" type="line"/>
      <point x="84" y="523" type="line"/>
      <point x="312" y="523" type="line"/>
      <point x="230" y="0" type="line"/>
    </contour>
  </outline>
</glyph>
<glyph name="eth" format="2">
  <advance width="635"/>
  <unicode hex="00F0"/>
  <outline>
    <contour>
      <point x="136" y="556" type="line"/>
      <point x="121" y="617" type="line"/>
      <point x="240" y="651" type="line"/>
      <point x="202" y="686"/>
      <point x="164" y="718"/>
      <point x="132" y="743" type="curve"/>
      <point x="397" y="743" type="line"/>
      <point x="412" y="733"/>
      <point x="429" y="722"/>
      <point x="445" y="709" type="curve"/>
      <point x="562" y="742" type="line"/>
      <point x="576" y="680" type="line"/>
      <point x="498" y="658" type="line"/>
      <point x="565" y="583"/>
      <point x="621" y="477"/>
      <point x="621" y="344" type="curve" smooth="yes"/>
      <point x="621" y="146"/>
      <point x="523" y="-14"/>
      <point x="302" y="-14" type="curve" smooth="yes"/>
      <point x="141" y="-14"/>
      <point x="17" y="63"/>
      <point x="17" y="236" type="curve" smooth="yes"/>
      <point x="17" y="397"/>
      <point x="112" y="528"/>
      <point x="272" y="528" type="curve" smooth="yes"/>
      <point x="314" y="528"/>
      <point x="349" y="516"/>
      <point x="376" y="483" type="curve"/>
      <point x="356" y="522"/>
      <point x="325" y="562"/>
      <point x="291" y="599" type="curve"/>
    </contour>
    <contour>
      <point x="244" y="224" type="curve" smooth="yes"/>
      <point x="244" y="183"/>
      <point x="260" y="152"/>
      <point x="307" y="152" type="curve" smooth="yes"/>
      <point x="372" y="152"/>
      <point x="389" y="238"/>
      <point x="389" y="303" type="curve" smooth="yes"/>
      <point x="389" y="344"/>
      <point x="372" y="372"/>
      <point x="327" y="372" type="curve" smooth="yes"/>
      <point x="267" y="372"/>
      <point x="244" y="305"/>
    </contour>
  </outline>
</glyph>
<glyph name="ntilde" format="2">
  <advance width="635"/>
  <unicode hex="00F1"/>
  <outline>
    <contour>
      <point x="-5" y="0" type="line"/>
      <point x="49" y="344" type="line" smooth="yes"/>
      <point x="61" y="421"/>
      <point x="68" y="474"/>
      <point x="70" y="523" type="curve"/>
      <point x="295" y="523" type="line"/>
      <point x="295" y="498"/>
      <point x="293" y="456"/>
      <point x="289" y="426" type="curve"/>
      <point x="326" y="488"/>
      <point x="385" y="539"/>
      <point x="470" y="539" type="curve" smooth="yes"/>
      <point x="564" y="539"/>
      <point x="637" y="474"/>
      <point x="612" y="316" type="curve" smooth="yes"/>
      <point x="562" y="0" type="line"/>
      <point x="333" y="0" type="line"/>
      <point x="378" y="287" type="line" smooth="yes"/>
      <point x="385" y="334"/>
      <point x="371" y="357"/>
      <point x="335" y="357" type="curve" smooth="yes"/>
      <point x="294" y="357"/>
      <point x="276" y="334"/>
      <point x="268" y="281" type="curve" smooth="yes"/>
      <point x="224" y="0" type="line"/>
    </contour>
    <contour>
      <point x="425" y="570" type="curve" smooth="yes"/>
      <point x="362" y="570"/>
      <point x="336" y="599"/>
      <point x="305" y="599" type="curve" smooth="yes"/>
      <point x="290" y="599"/>
      <point x="280" y="588"/>
      <point x="276" y="573" type="curve"/>
      <point x="160" y="573" type="line"/>
      <point x="178" y="695"/>
      <point x="231" y="749"/>
      <point x="299" y="749" type="curve" smooth="yes"/>
      <point x="358" y="749"/>
      <point x="388" y="720"/>
      <point x="423" y="720" type="curve" smooth="yes"/>
      <point x="440" y="720"/>
      <point x="447" y="730"/>
      <point x="452" y="746" type="curve"/>
      <point x="568" y="746" type="line"/>
      <point x="549" y="624"/>
      <point x="490" y="570"/>
    </contour>
  </outline>
</glyph>
<glyph name="ograve" format="2">
  <advance width="629"/>
  <unicode hex="00F2"/>
  <outline>
    <contour>
      <point x="244" y="226" type="curve" smooth="yes"/>
      <point x="244" y="195"/>
      <point x="252" y="152"/>
      <point x="303" y="152" type="curve" smooth="yes"/>
      <point x="362" y="152"/>
      <point x="385" y="218"/>
      <point x="385" y="304" type="curve" smooth="yes"/>
      <point x="385" y="339"/>
      <point x="370" y="372"/>
      <point x="329" y="372" type="curve" smooth="yes"/>
      <point x="268" y="372"/>
      <point x="244" y="310"/>
    </contour>
    <contour>
      <point x="300" y="-14" type="curve" smooth="yes"/>
      <point x="160" y="-14"/>
      <point x="18" y="53"/>
      <point x="17" y="228" type="curve" smooth="yes"/>
      <point x="16" y="408"/>
      <point x="143" y="539"/>
      <point x="331" y="539" type="curve" smooth="yes"/>
      <point x="471" y="539"/>
      <point x="614" y="469"/>
      <point x="614" y="292" type="curve" smooth="yes"/>
      <point x="614" y="109"/>
      <point x="486" y="-14"/>
    </contour>
    <contour>
      <point x="266" y="568" type="line"/>
      <point x="171" y="743" type="line"/>
      <point x="388" y="743" type="line"/>
      <point x="424" y="568" type="line"/>
    </contour>
  </outline>
</glyph>
<glyph name="otilde" format="2">
  <advance width="629"/>
  <unicode hex="00F5"/>
  <outline>
    <contour>
      <point x="244" y="226" type="curve" smooth="yes"/>
      <point x="244" y="195"/>
      <point x="252" y="152"/>
      <point x="303" y="152" type="curve" smooth="yes"/>
      <point x="362" y="152"/>
      <point x="385" y="218"/>
      <point x="385" y="304" type="curve" smooth="yes"/>
      <point x="385" y="339"/>
      <point x="370" y="372"/>
      <point x="329" y="372" type="curve" smooth="yes"/>
      <point x="268" y="372"/>
      <point x="244" y="310"/>
    </contour>
    <contour>
      <point x="300" y="-14" type="curve" smooth="yes"/>
      <point x="160" y="-14"/>
      <point x="18" y="53"/>
      <point x="17" y="228" type="curve" smooth="yes"/>
      <point x="16" y="408"/>
      <point x="143" y="539"/>
      <point x="331" y="539" type="curve" smooth="yes"/>
      <point x="471" y="539"/>
      <point x="614" y="469"/>
      <point x="614" y="292" type="curve" smooth="yes"/>
      <point x="614" y="109"/>
      <point x="486" y="-14"/>
    </contour>
    <contour>
      <point x="415" y="570" type="curve" smooth="yes"/>
      <point x="352" y="570"/>
      <point x="326" y="599"/>
      <point x="295" y="599" type="curve" smooth="yes"/>
      <point x="280" y="599"/>
      <point x="270" y="588"/>
      <point x="266" y="573" type="curve"/>
      <point x="150" y="573" type="line"/>
      <point x="168" y="695"/>
      <point x="221" y="749"/>
      <point x="289" y="749" type="curve" smooth="yes"/>
      <point x="348" y="749"/>
      <point x="378" y="720"/>
      <point x="413" y="720" type="curve" smooth="yes"/>
      <point x="430" y="720"/>
      <point x="437" y="730"/>
      <point x="442" y="746" type="curve"/>
      <point x="558" y="746" type="line"/>
      <point x="539" y="624"/>
      <point x="480" y="570"/>
    </contour>
  </outline>
</glyph>
<glyph name="yacute" format="2">
  <advance width="614"/>
  <unicode hex="00FD"/>
  <outline>
    <contour>
      <point x="47" y="-172" type="line"/>
      <point x="168" y="59" type="line"/>
      <point x="39" y="523" type="line"/>
      <point x="277" y="523" type="line"/>
      <point x="320" y="291" type="line"/>
      <point x="430" y="523" type="line"/>
      <point x="655" y="523" type="line"/>
      <point x="273" y="-172" type="line"/>
    </contour>
    <contour>
      <point x="276" y="568" type="line"/>
      <point x="347" y="743" type="line"/>
      <point x="566" y="743" type="line"/>
      <point x="439" y="568" type="line"/>
    </contour>
  </outline>
</glyph>
<glyph name="thorn" format="2">
  <advance width="651"/>
  <unicode hex="00FE"/>
  <outline>
    <contour>
      <point x="196" y="-172" type="line"/>
      <point x="-33" y="-172" type="line"/>
      <point x="112" y="743" type="line"/>
      <point x="341" y="743" type="line"/>
      <point x="294" y="445" type="line"/>
      <point x="328" y="502"/>
      <point x="383" y="539"/>
      <point x="466" y="539" type="curve" smooth="yes"/>
      <point x="559" y="539"/>
      <point x="637" y="468"/>
      <point x="637" y="315" type="curve" smooth="yes"/>
      <point x="637" y="98"/>
      <point x="527" y="-14"/>
      <point x="389" y="-14" type="curve" smooth="yes"/>
      <point x="317" y="-14"/>
      <point x="254" y="21"/>
      <point x="237" y="81" type="curve"/>
    </contour>
    <contour>
      <point x="315" y="156" type="curve" smooth="yes"/>
      <point x="365" y="156"/>
      <point x="403" y="211"/>
      <point x="403" y="298" type="curve" smooth="yes"/>
      <point x="403" y="346"/>
      <point x="384" y="373"/>
      <point x="344" y="373" type="curve" smooth="yes"/>
      <point x="292" y="373"/>
      <point x="258" y="310"/>
      <point x="258" y="232" type="curve" smooth="yes"/>
      <point x="258" y="182"/>
      <point x="276" y="156"/>
    </contour>
  </outline>
</glyph>
<glyph name="ydieresis" format="2">
  <advance width="614"/>
  <unicode hex="00FF"/>
  <outline>
    <contour>
      <point x="47" y="-172" type="line"/>
      <point x="168" y="59" type="line"/>
      <point x="39" y="523" type="line"/>
      <point x="277" y="523" type="line"/>
      <point x="320" y="291" type="line"/>
      <point x="430" y="523" type="line"/>
      <point x="655" y="523" type="line"/>
      <point x="273" y="-172" type="line"/>
    </contour>
    <contour>
      <point x="255" y="552" type="curve" smooth="yes"/>
      <point x="198" y="552"/>
      <point x="153" y="596"/>
      <point x="153" y="651" type="curve" smooth="yes"/>
      <point x="153" y="706"/>
      <point x="198" y="750"/>
      <point x="255" y="750" type="curve" smooth="yes"/>
      <point x="312" y="750"/>
      <point x="358" y="706"/>
      <point x="358" y="651" type="curve" smooth="yes"/>
      <point x="358" y="596"/>
      <point x="312" y="552"/>
    </contour>
    <contour>
      <point x="480" y="552" type="curve" smooth="yes"/>
      <point x="423" y="552"/>
      <point x="379" y="596"/>
      <point x="379" y="651" type="curve" smooth="yes"/>
      <point x="379" y="706"/>
      <point x="423" y="750"/>
      <point x="480" y="750" type="curve" smooth="yes"/>
      <point x="538" y="750"/>
      <point x="583" y="706"/>
      <point x="583" y="651" type="curve" smooth="yes"/>
      <point x="583" y="596"/>
      <point x="538" y="552"/>
    </contour>
  </outline>
</glyph>
<glyph name="Amacron" format="2">
  <advance width="784"/>
  <unicode hex="0100"/>
  <outline>
    <contour>
      <point x="463" y="0" type="line"/>
      <point x="454" y="95" type="line"/>
      <point x="252" y="95" type="line"/>
      <point x="213" y="0" type="line"/>
      <point x="-41" y="0" type="line"/>
      <point x="292" y="715" type="line"/>
      <point x="635" y="715" type="line"/>
      <point x="741" y="0" type="line"/>
    </contour>
    <contour>
      <point x="292" y="764" type="line"/>
      <point x="312" y="893" type="line"/>
      <point x="663" y="893" type="line"/>
      <point x="643" y="764" type="line"/>
    </contour>
    <contour>
      <point x="418" y="501" type="line"/>
      <point x="325" y="273" type="line"/>
      <point x="438" y="273" type="line"/>
    </contour>
  </outline>
</glyph>
<glyph name="Abreve" format="2">
  <advance width="784"/>
  <unicode hex="0102"/>
  <outline>
    <contour>
      <point x="463" y="0" type="line"/>
      <point x="454" y="95" type="line"/>
      <point x="252" y="95" type="line"/>
      <point x="213" y="0" type="line"/>
      <point x="-41" y="0" type="line"/>
      <point x="292" y="715" type="line"/>
      <point x="635" y="715" type="line"/>
      <point x="741" y="0" type="line"/>
    </contour>
    <contour>
      <point x="475" y="744" type="curve" smooth="yes"/>
      <point x="356" y="744"/>
      <point x="298" y="807"/>
      <point x="297" y="908" type="curve"/>
      <point x="437" y="908" type="line"/>
      <point x="438" y="887"/>
      <point x="451" y="872"/>
      <point x="477" y="872" type="curve" smooth="yes"/>
      <point x="499" y="872"/>
      <point x="515" y="884"/>
      <point x="519" y="908" type="curve"/>
      <point x="661" y="908" type="line"/>
      <point x="643" y="801"/>
      <point x="575" y="744"/>
    </contour>
    <contour>
      <point x="418" y="501" type="line"/>
      <point x="325" y="273" type="line"/>
      <point x="438" y="273" type="line"/>
    </contour>
  </outline>
</glyph>
<glyph name="Aogonek" format="2">
  <advance width="784"/>
  <unicode hex="0104"/>
  <outline>
    <contour>
      <point x="463" y="0" type="line"/>
      <point x="454" y="95" type="line"/>
      <point x="252" y="95" type="line"/>
      <point x="213" y="0" type="line"/>
      <point x="-41" y="0" type="line"/>
      <point x="292" y="715" type="line"/>
      <point x="635" y="715" type="line"/>
      <point x="739" y="14" type="line"/>
      <point x="702" y="-11"/>
      <point x="684" y="-34"/>
      <point x="684" y="-55" type="curve" smooth="yes"/>
      <point x="684" y="-69"/>
      <point x="694" y="-75"/>
      <point x="709" y="-75" type="curve" smooth="yes"/>
      <point x="716" y="-75"/>
      <point x="722" y="-74"/>
      <point x="727" y="-73" type="curve"/>
      <point x="712" y="-166" type="line"/>
      <point x="694" y="-174"/>
      <point x="666" y="-182"/>
      <point x="625" y="-182" type="curve" smooth="yes"/>
      <point x="565" y="-182"/>
      <point x="505" y="-165"/>
      <point x="505" y="-104" type="curve" smooth="yes"/>
      <point x="505" y="-48"/>
      <point x="561" y="-14"/>
      <point x="606" y="0" type="curve"/>
    </contour>
    <contour>
      <point x="418" y="501" type="line"/>
      <point x="325" y="273" type="line"/>
      <point x="438" y="273" type="line"/>
    </contour>
  </outline>
</glyph>
<glyph name="aogonek" format="2">
  <advance width="595"/>
  <unicode hex="0105"/>
  <outline>
    <contour>
      <point x="263" y="134" type="curve" smooth="yes"/>
      <point x="296" y="134"/>
      <point x="320" y="156"/>
      <point x="324" y="183" type="curve" smooth="yes"/>
      <point x="328" y="202" type="line"/>
      <point x="288" y="202" type="line" smooth="yes"/>
      <point x="239" y="202"/>
      <point x="224" y="190"/>
      <point x="224" y="166" type="curve" smooth="yes"/>
      <point x="224" y="148"/>
      <point x="238" y="134"/>
    </contour>
    <contour>
      <point x="568" y="293" type="curve" smooth="yes"/>
      <point x="548" y="166" type="line" smooth="yes"/>
      <point x="537" y="101"/>
      <point x="534" y="51"/>
      <point x="539" y="8" type="curve"/>
      <point x="518" y="-11"/>
      <point x="500" y="-35"/>
      <point x="500" y="-55" type="curve" smooth="yes"/>
      <point x="500" y="-69"/>
      <point x="510" y="-75"/>
      <point x="525" y="-75" type="curve" smooth="yes"/>
      <point x="532" y="-75"/>
      <point x="538" y="-74"/>
      <point x="543" y="-73" type="curve"/>
      <point x="528" y="-166" type="line"/>
      <point x="510" y="-174"/>
      <point x="482" y="-182"/>
      <point x="441" y="-182" type="curve" smooth="yes"/>
      <point x="381" y="-182"/>
      <point x="321" y="-165"/>
      <point x="321" y="-104" type="curve" smooth="yes"/>
      <point x="321" y="-48"/>
      <point x="377" y="-14"/>
      <point x="422" y="0" type="curve"/>
      <point x="318" y="0" type="line"/>
      <point x="314" y="19"/>
      <point x="314" y="45"/>
      <point x="314" y="65" type="curve"/>
      <point x="289" y="27"/>
      <point x="245" y="-14"/>
      <point x="160" y="-14" type="curve" smooth="yes"/>
      <point x="72" y="-14"/>
      <point x="-4" y="36"/>
      <point x="-4" y="130" type="curve" smooth="yes"/>
      <point x="-4" y="270"/>
      <point x="96" y="316"/>
      <point x="282" y="316" type="curve" smooth="yes"/>
      <point x="346" y="316" type="line"/>
      <point x="347" y="323" type="line" smooth="yes"/>
      <point x="352" y="356"/>
      <point x="349" y="384"/>
      <point x="306" y="384" type="curve" smooth="yes"/>
      <point x="269" y="384"/>
      <point x="260" y="357"/>
      <point x="256" y="339" type="curve"/>
      <point x="44" y="339" type="line"/>
      <point x="70" y="468"/>
      <point x="159" y="539"/>
      <point x="317" y="539" type="curve" smooth="yes"/>
      <point x="511" y="539"/>
      <point x="594" y="457"/>
    </contour>
  </outline>
</glyph>
<glyph name="Ccaron" format="2">
  <advance width="779"/>
  <unicode hex="010C"/>
  <outline>
    <contour>
      <point x="396" y="-14" type="curve" smooth="yes"/>
      <point x="178" y="-14"/>
      <point x="32" y="87"/>
      <point x="32" y="302" type="curve" smooth="yes"/>
      <point x="32" y="552"/>
      <point x="181" y="726"/>
      <point x="442" y="726" type="curve" smooth="yes"/>
      <point x="650" y="726"/>
      <point x="775" y="629"/>
      <point x="781" y="430" type="curve"/>
      <point x="511" y="430" type="line"/>
      <point x="509" y="486"/>
      <point x="487" y="519"/>
      <point x="435" y="519" type="curve" smooth="yes"/>
      <point x="348" y="519"/>
      <point x="312" y="421"/>
      <point x="310" y="314" type="curve" smooth="yes"/>
      <point x="309" y="254"/>
      <point x="329" y="196"/>
      <point x="399" y="196" type="curve" smooth="yes"/>
      <point x="447" y="196"/>
      <point x="485" y="221"/>
      <point x="499" y="285" type="curve"/>
      <point x="764" y="285" type="line"/>
      <point x="739" y="81"/>
      <point x="582" y="-14"/>
    </contour>
    <contour>
      <point x="675" y="908" type="line"/>
      <point x="540" y="753" type="line"/>
      <point x="351" y="753" type="line"/>
      <point x="258" y="908" type="line"/>
      <point x="417" y="908" type="line"/>
      <point x="457" y="864" type="line"/>
      <point x="507" y="908" type="line"/>
    </contour>
  </outline>
</glyph>
<glyph name="ccaron" format="2">
  <advance width="592"/>
  <unicode hex="010D"/>
  <outline>
    <contour>
      <point x="293" y="-13" type="curve" smooth="yes"/>
      <point x="141" y="-13"/>
      <point x="16" y="63"/>
      <point x="16" y="228" type="curve" smooth="yes"/>
      <point x="16" y="411"/>
      <point x="135" y="539"/>
      <point x="322" y="539" type="curve" smooth="yes"/>
      <point x="469" y="539"/>
      <point x="579" y="471"/>
      <point x="584" y="308" type="curve"/>
      <point x="370" y="308" type="line"/>
      <point x="367" y="344"/>
      <point x="355" y="364"/>
      <point x="318" y="364" type="curve" smooth="yes"/>
      <point x="256" y="364"/>
      <point x="244" y="287"/>
      <point x="244" y="225" type="curve" smooth="yes"/>
      <point x="244" y="181"/>
      <point x="257" y="149"/>
      <point x="302" y="149" type="curve" smooth="yes"/>
      <point x="339" y="149"/>
      <point x="361" y="170"/>
      <point x="369" y="215" type="curve"/>
      <point x="573" y="215" type="line"/>
      <point x="557" y="68"/>
      <point x="461" y="-13"/>
    </contour>
    <contour>
      <point x="551" y="743" type="line"/>
      <point x="399" y="571" type="line"/>
      <point x="244" y="571" type="line"/>
      <point x="142" y="743" type="line"/>
      <point x="294" y="743" type="line"/>
      <point x="336" y="697" type="line"/>
      <point x="390" y="743" type="line"/>
    </contour>
  </outline>
</glyph>
<glyph name="Dcaron" format="2">
  <advance width="773"/>
  <unicode hex="010E"/>
  <outline>
    <contour>
      <point x="16" y="0" type="line"/>
      <point x="129" y="715" type="line"/>
      <point x="390" y="715" type="line" smooth="yes"/>
      <point x="636" y="715"/>
      <point x="769" y="607"/>
      <point x="769" y="411" type="curve" smooth="yes"/>
      <point x="769" y="132"/>
      <point x="591" y="0"/>
      <point x="349" y="0" type="curve" smooth="yes"/>
    </contour>
    <contour>
      <point x="314" y="201" type="line"/>
      <point x="352" y="201" type="line" smooth="yes"/>
      <point x="444" y="201"/>
      <point x="493" y="270"/>
      <point x="493" y="399" type="curve" smooth="yes"/>
      <point x="493" y="479"/>
      <point x="455" y="514"/>
      <point x="385" y="514" type="curve" smooth="yes"/>
      <point x="364" y="514" type="line"/>
    </contour>
    <contour>
      <point x="648" y="908" type="line"/>
      <point x="513" y="753" type="line"/>
      <point x="324" y="753" type="line"/>
      <point x="231" y="908" type="line"/>
      <point x="390" y="908" type="line"/>
      <point x="430" y="864" type="line"/>
      <point x="480" y="908" type="line"/>
    </contour>
  </outline>
</glyph>
<glyph name="Ebreve" format="2">
  <advance width="635"/>
  <unicode hex="0114"/>
  <outline>
    <contour>
      <point x="16" y="0" type="line"/>
      <point x="129" y="715" type="line"/>
      <point x="663" y="715" type="line"/>
      <point x="631" y="512" type="line"/>
      <point x="362" y="512" type="line"/>
      <point x="352" y="451" type="line"/>
      <point x="564" y="451" type="line"/>
      <point x="536" y="269" type="line"/>
      <point x="324" y="269" type="line"/>
      <point x="313" y="203" type="line"/>
      <point x="597" y="203" type="line"/>
      <point x="565" y="0" type="line"/>
    </contour>
    <contour>
      <point x="407" y="744" type="curve" smooth="yes"/>
      <point x="288" y="744"/>
      <point x="230" y="807"/>
      <point x="229" y="908" type="curve"/>
      <point x="369" y="908" type="line"/>
      <point x="370" y="887"/>
      <point x="383" y="872"/>
      <point x="409" y="872" type="curve" smooth="yes"/>
      <point x="431" y="872"/>
      <point x="447" y="884"/>
      <point x="451" y="908" type="curve"/>
      <point x="593" y="908" type="line"/>
      <point x="575" y="801"/>
      <point x="507" y="744"/>
    </contour>
  </outline>
</glyph>
<glyph name="ebreve" format="2">
  <advance width="616"/>
  <unicode hex="0115"/>
  <outline>
    <contour>
      <point x="590" y="215" type="line"/>
      <point x="238" y="215" type="line"/>
      <point x="239" y="175"/>
      <point x="256" y="134"/>
      <point x="312" y="134" type="curve" smooth="yes"/>
      <point x="354" y="134"/>
      <point x="371" y="158"/>
      <point x="379" y="184" type="curve"/>
      <point x="592" y="184" type="line"/>
      <point x="569" y="57"/>
      <point x="464" y="-14"/>
      <point x="307" y="-14" type="curve" smooth="yes"/>
      <point x="151" y="-14"/>
      <point x="16" y="53"/>
      <point x="16" y="230" type="curve" smooth="yes"/>
      <point x="16" y="418"/>
      <point x="152" y="539"/>
      <point x="332" y="539" type="curve" smooth="yes"/>
      <point x="515" y="539"/>
      <point x="622" y="426"/>
      <point x="593" y="235" type="curve" smooth="yes"/>
    </contour>
    <contour>
      <point x="351" y="570" type="curve" smooth="yes"/>
      <point x="239" y="570"/>
      <point x="173" y="632"/>
      <point x="177" y="742" type="curve"/>
      <point x="310" y="742" type="line"/>
      <point x="311" y="717"/>
      <point x="325" y="702"/>
      <point x="353" y="702" type="curve" smooth="yes"/>
      <point x="379" y="702"/>
      <point x="397" y="717"/>
      <point x="400" y="742" type="curve"/>
      <point x="535" y="742" type="line"/>
      <point x="519" y="628"/>
      <point x="453" y="570"/>
    </contour>
    <contour>
      <point x="329" y="398" type="curve" smooth="yes"/>
      <point x="296" y="398"/>
      <point x="266" y="377"/>
      <point x="250" y="321" type="curve"/>
      <point x="389" y="321" type="line"/>
      <point x="392" y="364"/>
      <point x="375" y="398"/>
    </contour>
  </outline>
</glyph>
<glyph name="Edotaccent" format="2">
  <advance width="635"/>
  <unicode hex="0116"/>
  <outline>
    <contour>
      <point x="16" y="0" type="line"/>
      <point x="129" y="715" type="line"/>
      <point x="663" y="715" type="line"/>
      <point x="631" y="512" type="line"/>
      <point x="362" y="512" type="line"/>
      <point x="352" y="451" type="line"/>
      <point x="564" y="451" type="line"/>
      <point x="536" y="269" type="line"/>
      <point x="324" y="269" type="line"/>
      <point x="313" y="203" type="line"/>
      <point x="597" y="203" type="line"/>
      <point x="565" y="0" type="line"/>
    </contour>
    <contour>
      <point x="401" y="742" type="curve" smooth="yes"/>
      <point x="334" y="742"/>
      <point x="285" y="786"/>
      <point x="285" y="848" type="curve" smooth="yes"/>
      <point x="285" y="910"/>
      <point x="335" y="955"/>
      <point x="401" y="955" type="curve" smooth="yes"/>
      <point x="467" y="955"/>
      <point x="518" y="910"/>
      <point x="518" y="848" type="curve" smooth="yes"/>
      <point x="518" y="786"/>
      <point x="467" y="742"/>
    </contour>
  </outline>
</glyph>
<glyph name="Eogonek" format="2">
  <advance width="635"/>
  <unicode hex="0118"/>
  <outline>
    <contour>
      <point x="16" y="0" type="line"/>
      <point x="129" y="715" type="line"/>
      <point x="663" y="715" type="line"/>
      <point x="631" y="512" type="line"/>
      <point x="362" y="512" type="line"/>
      <point x="352" y="451" type="line"/>
      <point x="564" y="451" type="line"/>
      <point x="536" y="269" type="line"/>
      <point x="324" y="269" type="line"/>
      <point x="313" y="203" type="line"/>
      <point x="597" y="203" type="line"/>
      <point x="565" y="0" type="line"/>
      <point x="525" y="0" type="line"/>
      <point x="510" y="-12"/>
      <point x="488" y="-34"/>
      <point x="488" y="-55" type="curve" smooth="yes"/>
      <point x="488" y="-69"/>
      <point x="498" y="-75"/>
      <point x="513" y="-75" type="curve" smooth="yes"/>
      <point x="520" y="-75"/>
      <point x="526" y="-74"/>
      <point x="531" y="-73" type="curve"/>
      <point x="516" y="-166" type="line"/>
      <point x="498" y="-174"/>
      <point x="470" y="-182"/>
      <point x="429" y="-182" type="curve" smooth="yes"/>
      <point x="369" y="-182"/>
      <point x="309" y="-165"/>
      <point x="309" y="-104" type="curve" smooth="yes"/>
      <point x="309" y="-48"/>
      <point x="365" y="-14"/>
      <point x="410" y="0" type="curve"/>
    </contour>
  </outline>
</glyph>
<glyph name="eogonek" format="2">
  <advance width="616"/>
  <unicode hex="0119"/>
  <outline>
    <contour>
      <point x="332" y="539" type="curve" smooth="yes"/>
      <point x="515" y="539"/>
      <point x="622" y="426"/>
      <point x="593" y="235" type="curve" smooth="yes"/>
      <point x="590" y="215" type="line"/>
      <point x="238" y="215" type="line"/>
      <point x="239" y="175"/>
      <point x="256" y="134"/>
      <point x="312" y="134" type="curve" smooth="yes"/>
      <point x="354" y="134"/>
      <point x="371" y="158"/>
      <point x="379" y="184" type="curve"/>
      <point x="592" y="184" type="line"/>
      <point x="580" y="121"/>
      <point x="552" y="76"/>
      <point x="502" y="38" type="curve" smooth="yes"/>
      <point x="476" y="18"/>
      <point x="409" y="-14"/>
      <point x="409" y="-55" type="curve" smooth="yes"/>
      <point x="409" y="-69"/>
      <point x="419" y="-75"/>
      <point x="434" y="-75" type="curve" smooth="yes"/>
      <point x="441" y="-75"/>
      <point x="447" y="-74"/>
      <point x="452" y="-73" type="curve"/>
      <point x="437" y="-166" type="line"/>
      <point x="419" y="-174"/>
      <point x="391" y="-182"/>
      <point x="350" y="-182" type="curve" smooth="yes"/>
      <point x="290" y="-182"/>
      <point x="230" y="-165"/>
      <point x="230" y="-108" type="curve" smooth="yes"/>
      <point x="230" y="-55"/>
      <point x="276" y="-29"/>
      <point x="316" y="-14" type="curve"/>
      <point x="307" y="-14" type="line" smooth="yes"/>
      <point x="151" y="-14"/>
      <point x="16" y="53"/>
      <point x="16" y="230" type="curve" smooth="yes"/>
      <point x="16" y="418"/>
      <point x="154" y="539"/>
    </contour>
    <contour>
      <point x="329" y="398" type="curve" smooth="yes"/>
      <point x="296" y="398"/>
      <point x="266" y="377"/>
      <point x="250" y="321" type="curve"/>
      <point x="389" y="321" type="line"/>
      <point x="392" y="364"/>
      <point x="375" y="398"/>
    </contour>
  </outline>
</glyph>
<glyph name="gcircumflex" format="2">
  <advance width="648"/>
  <unicode hex="011D"/>
  <outline>
    <contour>
      <point x="268" y="-195" type="curve" smooth="yes"/>
      <point x="68" y="-195"/>
      <point x="-19" y="-107"/>
      <point x="-23" y="12" type="curve"/>
      <point x="203" y="12" type="line"/>
      <point x="205" y="-11"/>
      <point x="219" y="-41"/>
      <point x="267" y="-41" type="curve" smooth="yes"/>
      <point x="326" y="-41"/>
      <point x="338" y="-8"/>
      <point x="344" y="31" type="curve" smooth="yes"/>
      <point x="359" y="125" type="line"/>
      <point x="328" y="76"/>
      <point x="278" y="39"/>
      <point x="199" y="39" type="curve" smooth="yes"/>
      <point x="99" y="39"/>
      <point x="16" y="105"/>
      <point x="16" y="248" type="curve" smooth="yes"/>
      <point x="16" y="427"/>
      <point x="124" y="539"/>
      <point x="267" y="539" type="curve" smooth="yes"/>
      <point x="344" y="539"/>
      <point x="390" y="503"/>
      <point x="410" y="447" type="curve"/>
      <point x="422" y="523" type="line"/>
      <point x="651" y="523" type="line"/>
      <point x="573" y="32" type="line" smooth="yes"/>
      <point x="548" y="-123"/>
      <point x="461" y="-195"/>
    </contour>
    <contour>
      <point x="306" y="191" type="curve" smooth="yes"/>
      <point x="365" y="191"/>
      <point x="390" y="248"/>
      <point x="390" y="308" type="curve" smooth="yes"/>
      <point x="389" y="345"/>
      <point x="372" y="376"/>
      <point x="335" y="376" type="curve" smooth="yes"/>
      <point x="276" y="376"/>
      <point x="251" y="317"/>
      <point x="251" y="264" type="curve" smooth="yes"/>
      <point x="251" y="221"/>
      <point x="268" y="191"/>
    </contour>
    <contour>
      <point x="155" y="571" type="line"/>
      <point x="307" y="743" type="line"/>
      <point x="462" y="743" type="line"/>
      <point x="564" y="571" type="line"/>
      <point x="412" y="571" type="line"/>
      <point x="370" y="617" type="line"/>
      <point x="316" y="571" type="line"/>
    </contour>
  </outline>
</glyph>
<glyph name="Gbreve" format="2">
  <advance width="797"/>
  <unicode hex="011E"/>
  <outline>
    <contour>
      <point x="402" y="-14" type="curve" smooth="yes"/>
      <point x="185" y="-14"/>
      <point x="32" y="86"/>
      <point x="32" y="304" type="curve" smooth="yes"/>
      <point x="32" y="551"/>
      <point x="205" y="726"/>
      <point x="452" y="726" type="curve" smooth="yes"/>
      <point x="632" y="726"/>
      <point x="784" y="650"/>
      <point x="793" y="444" type="curve"/>
      <point x="529" y="444" type="line"/>
      <point x="525" y="489"/>
      <point x="506" y="517"/>
      <point x="443" y="517" type="curve" smooth="yes"/>
      <point x="351" y="517"/>
      <point x="307" y="414"/>
      <point x="307" y="307" type="curve" smooth="yes"/>
      <point x="307" y="230"/>
      <point x="338" y="187"/>
      <point x="420" y="187" type="curve" smooth="yes"/>
      <point x="484" y="187"/>
      <point x="508" y="215"/>
      <point x="518" y="245" type="curve"/>
      <point x="420" y="245" type="line"/>
      <point x="446" y="407" type="line"/>
      <point x="799" y="407" type="line"/>
      <point x="776" y="118"/>
      <point x="681" y="-14"/>
    </contour>
    <contour>
      <point x="455" y="744" type="curve" smooth="yes"/>
      <point x="336" y="744"/>
      <point x="278" y="807"/>
      <point x="277" y="908" type="curve"/>
      <point x="417" y="908" type="line"/>
      <point x="418" y="887"/>
      <point x="431" y="872"/>
      <point x="457" y="872" type="curve" smooth="yes"/>
      <point x="479" y="872"/>
      <point x="495" y="884"/>
      <point x="499" y="908" type="curve"/>
      <point x="641" y="908" type="line"/>
      <point x="623" y="801"/>
      <point x="555" y="744"/>
    </contour>
  </outline>
</glyph>
<glyph name="Gdotaccent" format="2">
  <advance width="797"/>
  <unicode hex="0120"/>
  <outline>
    <contour>
      <point x="402" y="-14" type="curve" smooth="yes"/>
      <point x="185" y="-14"/>
      <point x="32" y="86"/>
      <point x="32" y="304" type="curve" smooth="yes"/>
      <point x="32" y="551"/>
      <point x="205" y="726"/>
      <point x="452" y="726" type="curve" smooth="yes"/>
      <point x="632" y="726"/>
      <point x="784" y="650"/>
      <point x="793" y="444" type="curve"/>
      <point x="529" y="444" type="line"/>
      <point x="525" y="489"/>
      <point x="506" y="517"/>
      <point x="443" y="517" type="curve" smooth="yes"/>
      <point x="351" y="517"/>
      <point x="307" y="414"/>
      <point x="307" y="307" type="curve" smooth="yes"/>
      <point x="307" y="230"/>
      <point x="338" y="187"/>
      <point x="420" y="187" type="curve" smooth="yes"/>
      <point x="484" y="187"/>
      <point x="508" y="215"/>
      <point x="518" y="245" type="curve"/>
      <point x="420" y="245" type="line"/>
      <point x="446" y="407" type="line"/>
      <point x="799" y="407" type="line"/>
      <point x="776" y="118"/>
      <point x="681" y="-14"/>
    </contour>
    <contour>
      <point x="449" y="742" type="curve" smooth="yes"/>
      <point x="382" y="742"/>
      <point x="333" y="786"/>
      <point x="333" y="848" type="curve" smooth="yes"/>
      <point x="333" y="910"/>
      <point x="383" y="955"/>
      <point x="449" y="955" type="curve" smooth="yes"/>
      <point x="515" y="955"/>
      <point x="566" y="910"/>
      <point x="566" y="848" type="curve" smooth="yes"/>
      <point x="566" y="786"/>
      <point x="515" y="742"/>
    </contour>
  </outline>
</glyph>
<glyph name="Hcircumflex" format="2">
  <advance width="812"/>
  <unicode hex="0124"/>
  <outline>
    <contour>
      <point x="16" y="0" type="line"/>
      <point x="129" y="715" type="line"/>
      <point x="396" y="715" type="line"/>
      <point x="357" y="468" type="line"/>
      <point x="520" y="468" type="line"/>
      <point x="559" y="715" type="line"/>
      <point x="825" y="715" type="line"/>
      <point x="712" y="0" type="line"/>
      <point x="446" y="0" type="line"/>
      <point x="487" y="263" type="line"/>
      <point x="324" y="263" type="line"/>
      <point x="283" y="0" type="line"/>
    </contour>
    <contour>
      <point x="266" y="753" type="line"/>
      <point x="401" y="908" type="line"/>
      <point x="590" y="908" type="line"/>
      <point x="683" y="753" type="line"/>
      <point x="524" y="753" type="line"/>
      <point x="484" y="797" type="line"/>
      <point x="434" y="753" type="line"/>
    </contour>
  </outline>
</glyph>
<glyph name="hcircumflex" format="2">
  <advance width="635"/>
  <unicode hex="0125"/>
  <outline>
    <contour>
      <point x="-5" y="0" type="line"/>
      <point x="112" y="743" type="line"/>
      <point x="341" y="743" type="line"/>
      <point x="291" y="429" type="line"/>
      <point x="328" y="491"/>
      <point x="385" y="539"/>
      <point x="470" y="539" type="curve" smooth="yes"/>
      <point x="564" y="539"/>
      <point x="637" y="474"/>
      <point x="612" y="316" type="curve" smooth="yes"/>
      <point x="562" y="0" type="line"/>
      <point x="333" y="0" type="line"/>
      <point x="378" y="287" type="line" smooth="yes"/>
      <point x="385" y="334"/>
      <point x="371" y="357"/>
      <point x="335" y="357" type="curve" smooth="yes"/>
      <point x="294" y="357"/>
      <point x="276" y="334"/>
      <point x="268" y="281" type="curve" smooth="yes"/>
      <point x="224" y="0" type="line"/>
    </contour>
    <contour>
      <point x="186" y="778" type="line"/>
      <point x="321" y="933" type="line"/>
      <point x="510" y="933" type="line"/>
      <point x="603" y="778" type="line"/>
      <point x="444" y="778" type="line"/>
      <point x="404" y="822" type="line"/>
      <point x="354" y="778" type="line"/>
    </contour>
  </outline>
</glyph>
<glyph name="Hbar" format="2">
  <advance width="812"/>
  <unicode hex="0126"/>
  <outline>
    <contour>
      <point x="45" y="535" type="line"/>
      <point x="63" y="646" type="line"/>
      <point x="118" y="646" type="line"/>
      <point x="129" y="715" type="line"/>
      <point x="396" y="715" type="line"/>
      <point x="385" y="646" type="line"/>
      <point x="548" y="646" type="line"/>
      <point x="559" y="715" type="line"/>
      <point x="825" y="715" type="line"/>
      <point x="814" y="646" type="line"/>
      <point x="869" y="646" type="line"/>
      <point x="851" y="535" type="line"/>
      <point x="796" y="535" type="line"/>
      <point x="712" y="0" type="line"/>
      <point x="446" y="0" type="line"/>
      <point x="487" y="263" type="line"/>
      <point x="324" y="263" type="line"/>
      <point x="283" y="0" type="line"/>
      <point x="16" y="0" type="line"/>
      <point x="100" y="535" type="line"/>
    </contour>
    <contour>
      <point x="357" y="468" type="line"/>
      <point x="520" y="468" type="line"/>
      <point x="530" y="535" type="line"/>
      <point x="367" y="535" type="line"/>
    </contour>
  </outline>
</glyph>
<glyph name="hbar" format="2">
  <advance width="635"/>
  <unicode hex="0127"/>
  <outline>
    <contour>
      <point x="38" y="572" type="line"/>
      <point x="56" y="686" type="line"/>
      <point x="103" y="686" type="line"/>
      <point x="112" y="743" type="line"/>
      <point x="341" y="743" type="line"/>
      <point x="332" y="686" type="line"/>
      <point x="475" y="686" type="line"/>
      <point x="457" y="572" type="line"/>
      <point x="314" y="572" type="line"/>
      <point x="291" y="429" type="line"/>
      <point x="328" y="491"/>
      <point x="385" y="539"/>
      <point x="470" y="539" type="curve" smooth="yes"/>
      <point x="564" y="539"/>
      <point x="637" y="474"/>
      <point x="612" y="316" type="curve" smooth="yes"/>
      <point x="562" y="0" type="line"/>
      <point x="333" y="0" type="line"/>
      <point x="378" y="287" type="line" smooth="yes"/>
      <point x="385" y="334"/>
      <point x="371" y="357"/>
      <point x="335" y="357" type="curve" smooth="yes"/>
      <point x="294" y="357"/>
      <point x="276" y="334"/>
      <point x="268" y="281" type="curve" smooth="yes"/>
      <point x="224" y="0" type="line"/>
      <point x="-5" y="0" type="line"/>
      <point x="85" y="572" type="line"/>
    </contour>
  </outline>
</glyph>
<glyph name="Itilde" format="2">
  <advance width="391"/>
  <unicode hex="0128"/>
  <outline>
    <contour>
      <point x="19" y="0" type="line"/>
      <point x="132" y="715" type="line"/>
      <point x="401" y="715" type="line"/>
      <point x="288" y="0" type="line"/>
    </contour>
    <contour>
      <point x="348" y="750" type="curve" smooth="yes"/>
      <point x="285" y="750"/>
      <point x="256" y="779"/>
      <point x="225" y="779" type="curve" smooth="yes"/>
      <point x="210" y="779"/>
      <point x="198" y="768"/>
      <point x="195" y="753" type="curve"/>
      <point x="72" y="753" type="line"/>
      <point x="91" y="875"/>
      <point x="153" y="925"/>
      <point x="221" y="925" type="curve" smooth="yes"/>
      <point x="280" y="925"/>
      <point x="312" y="896"/>
      <point x="347" y="896" type="curve" smooth="yes"/>
      <point x="364" y="896"/>
      <point x="373" y="906"/>
      <point x="378" y="922" type="curve"/>
      <point x="501" y="922" type="line"/>
      <point x="480" y="800"/>
      <point x="413" y="750"/>
    </contour>
  </outline>
</glyph>
<glyph name="itilde" format="2">
  <advance width="316"/>
  <unicode hex="0129"/>
  <outline>
    <contour>
      <point x="2" y="0" type="line"/>
      <point x="84" y="523" type="line"/>
      <point x="312" y="523" type="line"/>
      <point x="230" y="0" type="line"/>
    </contour>
    <contour>
      <point x="281" y="570" type="curve" smooth="yes"/>
      <point x="218" y="570"/>
      <point x="192" y="599"/>
      <point x="161" y="599" type="curve" smooth="yes"/>
      <point x="146" y="599"/>
      <point x="136" y="588"/>
      <point x="132" y="573" type="curve"/>
      <point x="16" y="573" type="line"/>
      <point x="34" y="695"/>
      <point x="87" y="749"/>
      <point x="155" y="749" type="curve" smooth="yes"/>
      <point x="214" y="749"/>
      <point x="244" y="720"/>
      <point x="279" y="720" type="curve" smooth="yes"/>
      <point x="296" y="720"/>
      <point x="303" y="730"/>
      <point x="308" y="746" type="curve"/>
      <point x="424" y="746" type="line"/>
      <point x="405" y="624"/>
      <point x="346" y="570"/>
    </contour>
  </outline>
</glyph>
<glyph name="Ibreve" format="2">
  <advance width="391"/>
  <unicode hex="012C"/>
  <outline>
    <contour>
      <point x="19" y="0" type="line"/>
      <point x="132" y="715" type="line"/>
      <point x="401" y="715" type="line"/>
      <point x="288" y="0" type="line"/>
    </contour>
    <contour>
      <point x="281" y="744" type="curve" smooth="yes"/>
      <point x="162" y="744"/>
      <point x="104" y="807"/>
      <point x="103" y="908" type="curve"/>
      <point x="243" y="908" type="line"/>
      <point x="244" y="887"/>
      <point x="257" y="872"/>
      <point x="283" y="872" type="curve" smooth="yes"/>
      <point x="305" y="872"/>
      <point x="321" y="884"/>
      <point x="325" y="908" type="curve"/>
      <point x="467" y="908" type="line"/>
      <point x="449" y="801"/>
      <point x="381" y="744"/>
    </contour>
  </outline>
</glyph>
<glyph name="ibreve" format="2">
  <advance width="316"/>
  <unicode hex="012D"/>
  <outline>
    <contour>
      <point x="2" y="0" type="line"/>
      <point x="84" y="523" type="line"/>
      <point x="312" y="523" type="line"/>
      <point x="230" y="0" type="line"/>
    </contour>
    <contour>
      <point x="213" y="570" type="curve" smooth="yes"/>
      <point x="101" y="570"/>
      <point x="35" y="632"/>
      <point x="39" y="742" type="curve"/>
      <point x="172" y="742" type="line"/>
      <point x="173" y="717"/>
      <point x="187" y="702"/>
      <point x="215" y="702" type="curve" smooth="yes"/>
      <point x="241" y="702"/>
      <point x="259" y="717"/>
      <point x="262" y="742" type="curve"/>
      <point x="397" y="742" type="line"/>
      <point x="381" y="628"/>
      <point x="315" y="570"/>
    </contour>
  </outline>
</glyph>
<glyph name="Iogonek" format="2">
  <advance width="391"/>
  <unicode hex="012E"/>
  <outline>
    <contour>
      <point x="19" y="0" type="line"/>
      <point x="132" y="715" type="line"/>
      <point x="401" y="715" type="line"/>
      <point x="291" y="18" type="line"/>
      <point x="253" y="-11"/>
      <point x="233" y="-34"/>
      <point x="233" y="-55" type="curve" smooth="yes"/>
      <point x="233" y="-69"/>
      <point x="243" y="-75"/>
      <point x="258" y="-75" type="curve" smooth="yes"/>
      <point x="265" y="-75"/>
      <point x="271" y="-74"/>
      <point x="276" y="-73" type="curve"/>
      <point x="261" y="-166" type="line"/>
      <point x="243" y="-174"/>
      <point x="215" y="-182"/>
      <point x="174" y="-182" type="curve" smooth="yes"/>
      <point x="114" y="-182"/>
      <point x="54" y="-165"/>
      <point x="54" y="-104" type="curve" smooth="yes"/>
      <point x="54" y="-48"/>
      <point x="110" y="-14"/>
      <point x="155" y="0" type="curve"/>
    </contour>
  </outline>
</glyph>
<glyph name="iogonek" format="2">
  <advance width="316"/>
  <unicode hex="012F"/>
  <outline>
    <contour>
      <point x="2" y="0" type="line"/>
      <point x="84" y="523" type="line"/>
      <point x="312" y="523" type="line"/>
      <point x="233" y="17" type="line"/>
      <point x="195" y="-10"/>
      <point x="175" y="-34"/>
      <point x="175" y="-55" type="curve" smooth="yes"/>
      <point x="175" y="-69"/>
      <point x="185" y="-75"/>
      <point x="200" y="-75" type="curve" smooth="yes"/>
      <point x="207" y="-75"/>
      <point x="213" y="-74"/>
      <point x="218" y="-73" type="curve"/>
      <point x="203" y="-166" type="line"/>
      <point x="185" y="-174"/>
      <point x="157" y="-182"/>
      <point x="116" y="-182" type="curve" smooth="yes"/>
      <point x="56" y="-182"/>
      <point x="-4" y="-165"/>
      <point x="-4" y="-104" type="curve" smooth="yes"/>
      <point x="-4" y="-48"/>
      <point x="52" y="-14"/>
      <point x="97" y="0" type="curve"/>
    </contour>
    <contour>
      <point x="216" y="544" type="curve" smooth="yes"/>
      <point x="147" y="544"/>
      <point x="99" y="590"/>
      <point x="99" y="654" type="curve" smooth="yes"/>
      <point x="99" y="718"/>
      <point x="148" y="764"/>
      <point x="217" y="764" type="curve" smooth="yes"/>
      <point x="285" y="764"/>
      <point x="335" y="718"/>
      <point x="335" y="654" type="curve" smooth="yes"/>
      <point x="335" y="590"/>
      <point x="284" y="544"/>
    </contour>
  </outline>
</glyph>
<glyph name="IJ" format="2">
  <advance width="879"/>
  <unicode hex="0132"/>
  <outline>
    <contour>
      <point x="19" y="0" type="line"/>
      <point x="132" y="715" type="line"/>
      <point x="401" y="715" type="line"/>
      <point x="288" y="0" type="line"/>
    </contour>
    <contour>
      <point x="533" y="-9" type="curve" smooth="yes"/>
      <point x="444" y="-9"/>
      <point x="393" y="9"/>
      <point x="362" y="23" type="curve"/>
      <point x="393" y="217" type="line"/>
      <point x="416" y="209"/>
      <point x="444" y="201"/>
      <point x="481" y="201" type="curve" smooth="yes"/>
      <point x="522" y="201"/>
      <point x="558" y="217"/>
      <point x="566" y="270" type="curve" smooth="yes"/>
      <point x="637" y="715" type="line"/>
      <point x="904" y="715" type="line"/>
      <point x="832" y="261" type="line" smooth="yes"/>
      <point x="803" y="76"/>
      <point x="702" y="-9"/>
    </contour>
  </outline>
</glyph>
<glyph name="ij" format="2">
  <advance width="632"/>
  <unicode hex="0133"/>
  <outline>
    <contour>
      <point x="216" y="544" type="curve" smooth="yes"/>
      <point x="147" y="544"/>
      <point x="99" y="590"/>
      <point x="99" y="654" type="curve" smooth="yes"/>
      <point x="99" y="718"/>
      <point x="148" y="764"/>
      <point x="217" y="764" type="curve" smooth="yes"/>
      <point x="285" y="764"/>
      <point x="335" y="718"/>
      <point x="335" y="654" type="curve" smooth="yes"/>
      <point x="335" y="590"/>
      <point x="284" y="544"/>
    </contour>
    <contour>
      <point x="2" y="0" type="line"/>
      <point x="84" y="523" type="line"/>
      <point x="312" y="523" type="line"/>
      <point x="230" y="0" type="line"/>
    </contour>
    <contour>
      <point x="233" y="-179" type="curve"/>
      <point x="257" y="-20" type="line"/>
      <point x="293" y="-18"/>
      <point x="316" y="-7"/>
      <point x="321" y="28" type="curve" smooth="yes"/>
      <point x="399" y="523" type="line"/>
      <point x="627" y="523" type="line"/>
      <point x="545" y="5" type="line" smooth="yes"/>
      <point x="529" y="-100"/>
      <point x="464" y="-193"/>
    </contour>
    <contour>
      <point x="531" y="544" type="curve" smooth="yes"/>
      <point x="462" y="544"/>
      <point x="414" y="590"/>
      <point x="414" y="654" type="curve" smooth="yes"/>
      <point x="414" y="718"/>
      <point x="463" y="764"/>
      <point x="532" y="764" type="curve" smooth="yes"/>
      <point x="600" y="764"/>
      <point x="650" y="718"/>
      <point x="650" y="654" type="curve" smooth="yes"/>
      <point x="650" y="590"/>
      <point x="599" y="544"/>
    </contour>
  </outline>
</glyph>
<glyph name="Jcircumflex" format="2">
  <advance width="508"/>
  <unicode hex="0134"/>
  <outline>
    <contour>
      <point x="162" y="-9" type="curve" smooth="yes"/>
      <point x="73" y="-9"/>
      <point x="22" y="9"/>
      <point x="-9" y="23" type="curve"/>
      <point x="22" y="217" type="line"/>
      <point x="45" y="209"/>
      <point x="73" y="201"/>
      <point x="110" y="201" type="curve" smooth="yes"/>
      <point x="151" y="201"/>
      <point x="187" y="217"/>
      <point x="195" y="270" type="curve" smooth="yes"/>
      <point x="266" y="715" type="line"/>
      <point x="533" y="715" type="line"/>
      <point x="461" y="261" type="line" smooth="yes"/>
      <point x="432" y="76"/>
      <point x="331" y="-9"/>
    </contour>
    <contour>
      <point x="189" y="753" type="line"/>
      <point x="324" y="908" type="line"/>
      <point x="513" y="908" type="line"/>
      <point x="606" y="753" type="line"/>
      <point x="447" y="753" type="line"/>
      <point x="407" y="797" type="line"/>
      <point x="357" y="753" type="line"/>
    </contour>
  </outline>
</glyph>
<glyph name="Kcommaaccent" format="2">
  <advance width="782"/>
  <unicode hex="0136"/>
  <outline>
    <contour>
      <point x="16" y="0" type="line"/>
      <point x="129" y="715" type="line"/>
      <point x="396" y="715" type="line"/>
      <point x="357" y="467" type="line"/>
      <point x="569" y="715" type="line"/>
      <point x="851" y="715" type="line"/>
      <point x="551" y="374" type="line"/>
      <point x="735" y="0" type="line"/>
      <point x="449" y="0" type="line"/>
      <point x="326" y="274" type="line"/>
      <point x="283" y="0" type="line"/>
    </contour>
    <contour>
      <point x="336" y="-236" type="line"/>
      <point x="212" y="-209" type="line"/>
      <point x="253" y="-36" type="line"/>
      <point x="450" y="-36" type="line"/>
    </contour>
  </outline>
</glyph>
<glyph name="Lacute" format="2">
  <advance width="595"/>
  <unicode hex="0139"/>
  <outline>
    <contour>
      <point x="16" y="0" type="line"/>
      <point x="129" y="715" type="line"/>
      <point x="396" y="715" type="line"/>
      <point x="315" y="204" type="line"/>
      <point x="556" y="204" type="line"/>
      <point x="524" y="0" type="line"/>
    </contour>
    <contour>
      <point x="164" y="753" type="line"/>
      <point x="226" y="908" type="line"/>
      <point x="455" y="908" type="line"/>
      <point x="337" y="753" type="line"/>
    </contour>
  </outline>
</glyph>
<glyph name="lacute" format="2">
  <advance width="312"/>
  <unicode hex="013A"/>
  <outline>
    <contour>
      <point x="1" y="0" type="line"/>
      <point x="118" y="743" type="line"/>
      <point x="345" y="743" type="line"/>
      <point x="228" y="0" type="line"/>
    </contour>
    <contour>
      <point x="137" y="778" type="line"/>
      <point x="199" y="933" type="line"/>
      <point x="428" y="933" type="line"/>
      <point x="310" y="778" type="line"/>
    </contour>
  </outline>
</glyph>
<glyph name="lcommaaccent" format="2">
  <advance width="312"/>
  <unicode hex="013C"/>
  <outline>
    <contour>
      <point x="1" y="0" type="line"/>
      <point x="118" y="743" type="line"/>
      <point x="345" y="743" type="line"/>
      <point x="228" y="0" type="line"/>
    </contour>
    <contour>
      <point x="92" y="-236" type="line"/>
      <point x="-32" y="-209" type="line"/>
      <point x="9" y="-36" type="line"/>
      <point x="206" y="-36" type="line"/>
    </contour>
  </outline>
</glyph>
<glyph name="Lcaron" format="2">
  <advance width="595"/>
  <unicode hex="013D"/>
  <outline>
    <contour>
      <point x="414" y="529" type="line"/>
      <point x="457" y="715" type="line"/>
      <point x="633" y="715" type="line"/>
      <point x="541" y="529" type="line"/>
    </contour>
    <contour>
      <point x="16" y="0" type="line"/>
      <point x="129" y="715" type="line"/>
      <point x="396" y="715" type="line"/>
      <point x="315" y="204" type="line"/>
      <point x="556" y="204" type="line"/>
      <point x="524" y="0" type="line"/>
    </contour>
  </outline>
</glyph>
<glyph name="Ldot" format="2">
  <advance width="635"/>
  <unicode hex="013F"/>
  <outline>
    <contour>
      <point x="16" y="0" type="line"/>
      <point x="129" y="715" type="line"/>
      <point x="396" y="715" type="line"/>
      <point x="315" y="204" type="line"/>
      <point x="556" y="204" type="line"/>
      <point x="524" y="0" type="line"/>
    </contour>
    <contour>
      <point x="535" y="290" type="curve" smooth="yes"/>
      <point x="464" y="290"/>
      <point x="413" y="343"/>
      <point x="413" y="410" type="curve" smooth="yes"/>
      <point x="413" y="476"/>
      <point x="463" y="530"/>
      <point x="534" y="530" type="curve" smooth="yes"/>
      <point x="607" y="530"/>
      <point x="661" y="476"/>
      <point x="661" y="410" type="curve" smooth="yes"/>
      <point x="661" y="343"/>
      <point x="608" y="290"/>
    </contour>
  </outline>
</glyph>
<glyph name="ldot" format="2">
  <advance width="520"/>
  <unicode hex="0140"/>
  <outline>
    <contour>
      <point x="1" y="0" type="line"/>
      <point x="118" y="743" type="line"/>
      <point x="345" y="743" type="line"/>
      <point x="228" y="0" type="line"/>
    </contour>
    <contour>
      <point x="428" y="236" type="curve" smooth="yes"/>
      <point x="357" y="236"/>
      <point x="306" y="289"/>
      <point x="306" y="356" type="curve" smooth="yes"/>
      <point x="306" y="422"/>
      <point x="356" y="476"/>
      <point x="427" y="476" type="curve" smooth="yes"/>
      <point x="500" y="476"/>
      <point x="554" y="422"/>
      <point x="554" y="356" type="curve" smooth="yes"/>
      <point x="554" y="289"/>
      <point x="501" y="236"/>
    </contour>
  </outline>
</glyph>
<glyph name="Lslash" format="2">
  <advance width="613"/>
  <unicode hex="0141"/>
  <outline>
    <contour>
      <point x="8" y="216" type="line"/>
      <point x="28" y="350" type="line"/>
      <point x="92" y="370" type="line"/>
      <point x="147" y="715" type="line"/>
      <point x="414" y="715" type="line"/>
      <point x="373" y="459" type="line"/>
      <point x="552" y="516" type="line"/>
      <point x="530" y="382" type="line"/>
      <point x="352" y="325" type="line"/>
      <point x="333" y="204" type="line"/>
      <point x="574" y="204" type="line"/>
      <point x="542" y="0" type="line"/>
      <point x="34" y="0" type="line"/>
      <point x="71" y="236" type="line"/>
    </contour>
  </outline>
</glyph>
<glyph name="lslash" format="2">
  <advance width="363"/>
  <unicode hex="0142"/>
  <outline>
    <contour>
      <point x="10" y="235" type="line"/>
      <point x="32" y="377" type="line"/>
      <point x="89" y="400" type="line"/>
      <point x="143" y="743" type="line"/>
      <point x="370" y="743" type="line"/>
      <point x="332" y="500" type="line"/>
      <point x="392" y="525" type="line"/>
      <point x="370" y="383" type="line"/>
      <point x="309" y="358" type="line"/>
      <point x="253" y="0" type="line"/>
      <point x="26" y="0" type="line"/>
      <point x="66" y="258" type="line"/>
    </contour>
  </outline>
</glyph>
<glyph name="Nacute" format="2">
  <advance width="805"/>
  <unicode hex="0143"/>
  <outline>
    <contour>
      <point x="16" y="0" type="line"/>
      <point x="129" y="715" type="line"/>
      <point x="423" y="715" type="line"/>
      <point x="531" y="398" type="line"/>
      <point x="581" y="715" type="line"/>
      <point x="817" y="715" type="line"/>
      <point x="704" y="0" type="line"/>
      <point x="454" y="0" type="line"/>
      <point x="312" y="375" type="line"/>
      <point x="253" y="0" type="line"/>
    </contour>
    <contour>
      <point x="390" y="753" type="line"/>
      <point x="452" y="908" type="line"/>
      <point x="681" y="908" type="line"/>
      <point x="563" y="753" type="line"/>
    </contour>
  </outline>
</glyph>
<glyph name="nacute" format="2">
  <advance width="635"/>
  <unicode hex="0144"/>
  <outline>
    <contour>
      <point x="-5" y="0" type="line"/>
      <point x="49" y="344" type="line" smooth="yes"/>
      <point x="61" y="421"/>
      <point x="68" y="474"/>
      <point x="70" y="523" type="curve"/>
      <point x="295" y="523" type="line"/>
      <point x="295" y="498"/>
      <point x="293" y="456"/>
      <point x="289" y="426" type="curve"/>
      <point x="326" y="488"/>
      <point x="385" y="539"/>
      <point x="470" y="539" type="curve" smooth="yes"/>
      <point x="564" y="539"/>
      <point x="637" y="474"/>
      <point x="612" y="316" type="curve" smooth="yes"/>
      <point x="562" y="0" type="line"/>
      <point x="333" y="0" type="line"/>
      <point x="378" y="287" type="line" smooth="yes"/>
      <point x="385" y="334"/>
      <point x="371" y="357"/>
      <point x="335" y="357" type="curve" smooth="yes"/>
      <point x="294" y="357"/>
      <point x="276" y="334"/>
      <point x="268" y="281" type="curve" smooth="yes"/>
      <point x="224" y="0" type="line"/>
    </contour>
    <contour>
      <point x="269" y="568" type="line"/>
      <point x="340" y="743" type="line"/>
      <point x="559" y="743" type="line"/>
      <point x="432" y="568" type="line"/>
    </contour>
  </outline>
</glyph>
<glyph name="Ncommaaccent" format="2">
  <advance width="805"/>
  <unicode hex="0145"/>
  <outline>
    <contour>
      <point x="16" y="0" type="line"/>
      <point x="129" y="715" type="line"/>
      <point x="423" y="715" type="line"/>
      <point x="531" y="398" type="line"/>
      <point x="581" y="715" type="line"/>
      <point x="817" y="715" type="line"/>
      <point x="704" y="0" type="line"/>
      <point x="454" y="0" type="line"/>
      <point x="312" y="375" type="line"/>
      <point x="253" y="0" type="line"/>
    </contour>
    <contour>
      <point x="339" y="-236" type="line"/>
      <point x="215" y="-209" type="line"/>
      <point x="256" y="-36" type="line"/>
      <point x="453" y="-36" type="line"/>
    </contour>
  </outline>
</glyph>
<glyph name="Ncaron" format="2">
  <advance width="805"/>
  <unicode hex="0147"/>
  <outline>
    <contour>
      <point x="16" y="0" type="line"/>
      <point x="129" y="715" type="line"/>
      <point x="423" y="715" type="line"/>
      <point x="531" y="398" type="line"/>
      <point x="581" y="715" type="line"/>
      <point x="817" y="715" type="line"/>
      <point x="704" y="0" type="line"/>
      <point x="454" y="0" type="line"/>
      <point x="312" y="375" type="line"/>
      <point x="253" y="0" type="line"/>
    </contour>
    <contour>
      <point x="718" y="908" type="line"/>
      <point x="583" y="753" type="line"/>
      <point x="394" y="753" type="line"/>
      <point x="301" y="908" type="line"/>
      <point x="460" y="908" type="line"/>
      <point x="500" y="864" type="line"/>
      <point x="550" y="908" type="line"/>
    </contour>
  </outline>
</glyph>
<glyph name="napostrophe" format="2">
  <advance width="814"/>
  <unicode hex="0149"/>
  <outline>
    <contour>
      <point x="174" y="0" type="line"/>
      <point x="228" y="344" type="line" smooth="yes"/>
      <point x="240" y="421"/>
      <point x="247" y="474"/>
      <point x="249" y="523" type="curve"/>
      <point x="474" y="523" type="line"/>
      <point x="474" y="498"/>
      <point x="472" y="456"/>
      <point x="468" y="426" type="curve"/>
      <point x="505" y="488"/>
      <point x="564" y="539"/>
      <point x="649" y="539" type="curve" smooth="yes"/>
      <point x="743" y="539"/>
      <point x="816" y="474"/>
      <point x="791" y="316" type="curve" smooth="yes"/>
      <point x="741" y="0" type="line"/>
      <point x="512" y="0" type="line"/>
      <point x="557" y="287" type="line" smooth="yes"/>
      <point x="564" y="334"/>
      <point x="550" y="357"/>
      <point x="514" y="357" type="curve" smooth="yes"/>
      <point x="473" y="357"/>
      <point x="455" y="334"/>
      <point x="447" y="281" type="curve" smooth="yes"/>
      <point x="403" y="0" type="line"/>
    </contour>
    <contour>
      <point x="103" y="729" type="line"/>
      <point x="297" y="667" type="line"/>
      <point x="127" y="397" type="line"/>
      <point x="4" y="442" type="line"/>
    </contour>
  </outline>
</glyph>
<glyph name="Eng" format="2">
  <advance width="805"/>
  <unicode hex="014A"/>
  <outline>
    <contour>
      <point x="425" y="-192" type="curve" smooth="yes"/>
      <point x="353" y="-192"/>
      <point x="310" y="-181"/>
      <point x="279" y="-167" type="curve"/>
      <point x="308" y="16" type="line"/>
      <point x="328" y="10"/>
      <point x="345" y="5"/>
      <point x="378" y="5" type="curve" smooth="yes"/>
      <point x="410" y="5"/>
      <point x="431" y="13"/>
      <point x="444" y="27" type="curve"/>
      <point x="312" y="375" type="line"/>
      <point x="253" y="0" type="line"/>
      <point x="16" y="0" type="line"/>
      <point x="129" y="715" type="line"/>
      <point x="424" y="715" type="line"/>
      <point x="531" y="398" type="line"/>
      <point x="581" y="715" type="line"/>
      <point x="817" y="715" type="line"/>
      <point x="707" y="20" type="line" smooth="yes"/>
      <point x="687" y="-103"/>
      <point x="604" y="-192"/>
    </contour>
  </outline>
</glyph>
<glyph name="eng" format="2">
  <advance width="638"/>
  <unicode hex="014B"/>
  <outline>
    <contour>
      <point x="612" y="316" type="curve" smooth="yes"/>
      <point x="563" y="5" type="line" smooth="yes"/>
      <point x="547" y="-100"/>
      <point x="481" y="-193"/>
      <point x="250" y="-179" type="curve"/>
      <point x="274" y="-20" type="line"/>
      <point x="310" y="-18"/>
      <point x="333" y="-7"/>
      <point x="338" y="28" type="curve" smooth="yes"/>
      <point x="378" y="287" type="line" smooth="yes"/>
      <point x="385" y="334"/>
      <point x="371" y="357"/>
      <point x="335" y="357" type="curve" smooth="yes"/>
      <point x="294" y="357"/>
      <point x="276" y="334"/>
      <point x="268" y="281" type="curve" smooth="yes"/>
      <point x="224" y="0" type="line"/>
      <point x="-5" y="0" type="line"/>
      <point x="49" y="344" type="line" smooth="yes"/>
      <point x="61" y="421"/>
      <point x="68" y="474"/>
      <point x="70" y="523" type="curve"/>
      <point x="295" y="523" type="line"/>
      <point x="295" y="498"/>
      <point x="293" y="456"/>
      <point x="289" y="426" type="curve"/>
      <point x="326" y="488"/>
      <point x="385" y="539"/>
      <point x="470" y="539" type="curve" smooth="yes"/>
      <point x="564" y="539"/>
      <point x="637" y="474"/>
    </contour>
  </outline>
</glyph>
<glyph name="obreve" format="2">
  <advance width="629"/>
  <unicode hex="014F"/>
  <outline>
    <contour>
      <point x="244" y="226" type="curve" smooth="yes"/>
      <point x="244" y="195"/>
      <point x="252" y="152"/>
      <point x="303" y="152" type="curve" smooth="yes"/>
      <point x="362" y="152"/>
      <point x="385" y="218"/>
      <point x="385" y="304" type="curve" smooth="yes"/>
      <point x="385" y="339"/>
      <point x="370" y="372"/>
      <point x="329" y="372" type="curve" smooth="yes"/>
      <point x="268" y="372"/>
      <point x="244" y="310"/>
    </contour>
    <contour>
      <point x="300" y="-14" type="curve" smooth="yes"/>
      <point x="160" y="-14"/>
      <point x="18" y="53"/>
      <point x="17" y="228" type="curve" smooth="yes"/>
      <point x="16" y="408"/>
      <point x="143" y="539"/>
      <point x="331" y="539" type="curve" smooth="yes"/>
      <point x="471" y="539"/>
      <point x="614" y="469"/>
      <point x="614" y="292" type="curve" smooth="yes"/>
      <point x="614" y="109"/>
      <point x="486" y="-14"/>
    </contour>
    <contour>
      <point x="346" y="570" type="curve" smooth="yes"/>
      <point x="234" y="570"/>
      <point x="168" y="632"/>
      <point x="172" y="742" type="curve"/>
      <point x="305" y="742" type="line"/>
      <point x="306" y="717"/>
      <point x="320" y="702"/>
      <point x="348" y="702" type="curve" smooth="yes"/>
      <point x="374" y="702"/>
      <point x="392" y="717"/>
      <point x="395" y="742" type="curve"/>
      <point x="530" y="742" type="line"/>
      <point x="514" y="628"/>
      <point x="448" y="570"/>
    </contour>
  </outline>
</glyph>
<glyph name="OE" format="2">
  <advance width="996"/>
  <unicode hex="0152"/>
  <outline>
    <contour>
      <point x="452" y="715" type="curve" smooth="yes"/>
      <point x="1024" y="715" type="line"/>
      <point x="992" y="512" type="line"/>
      <point x="737" y="512" type="line"/>
      <point x="727" y="451" type="line"/>
      <point x="925" y="451" type="line"/>
      <point x="897" y="269" type="line"/>
      <point x="699" y="269" type="line"/>
      <point x="688" y="203" type="line"/>
      <point x="958" y="203" type="line"/>
      <point x="926" y="0" type="line"/>
      <point x="401" y="0" type="line" smooth="yes"/>
      <point x="161" y="0"/>
      <point x="32" y="101"/>
      <point x="32" y="297" type="curve" smooth="yes"/>
      <point x="32" y="576"/>
      <point x="210" y="715"/>
    </contour>
    <contour>
      <point x="475" y="514" type="line"/>
      <point x="449" y="514" type="line" smooth="yes"/>
      <point x="357" y="514"/>
      <point x="308" y="438"/>
      <point x="308" y="309" type="curve" smooth="yes"/>
      <point x="308" y="229"/>
      <point x="346" y="201"/>
      <point x="416" y="201" type="curve" smooth="yes"/>
      <point x="425" y="201" type="line"/>
    </contour>
  </outline>
</glyph>
<glyph name="oe" format="2">
  <advance width="982"/>
  <unicode hex="0153"/>
  <outline>
    <contour>
      <point x="698" y="539" type="curve" smooth="yes"/>
      <point x="881" y="539"/>
      <point x="988" y="426"/>
      <point x="959" y="235" type="curve" smooth="yes"/>
      <point x="956" y="215" type="line"/>
      <point x="604" y="215" type="line"/>
      <point x="605" y="175"/>
      <point x="622" y="134"/>
      <point x="678" y="134" type="curve" smooth="yes"/>
      <point x="720" y="134"/>
      <point x="737" y="158"/>
      <point x="745" y="184" type="curve"/>
      <point x="958" y="184" type="line"/>
      <point x="935" y="57"/>
      <point x="830" y="-14"/>
      <point x="673" y="-14" type="curve" smooth="yes"/>
      <point x="596" y="-14"/>
      <point x="529" y="4"/>
      <point x="481" y="48" type="curve"/>
      <point x="433" y="8"/>
      <point x="371" y="-14"/>
      <point x="300" y="-14" type="curve" smooth="yes"/>
      <point x="160" y="-14"/>
      <point x="18" y="55"/>
      <point x="17" y="230" type="curve" smooth="yes"/>
      <point x="16" y="410"/>
      <point x="143" y="539"/>
      <point x="331" y="539" type="curve" smooth="yes"/>
      <point x="400" y="539"/>
      <point x="467" y="518"/>
      <point x="514" y="472" type="curve"/>
      <point x="564" y="515"/>
      <point x="628" y="539"/>
    </contour>
    <contour>
      <point x="244" y="226" type="curve" smooth="yes"/>
      <point x="244" y="195"/>
      <point x="252" y="152"/>
      <point x="303" y="152" type="curve" smooth="yes"/>
      <point x="362" y="152"/>
      <point x="385" y="218"/>
      <point x="385" y="304" type="curve" smooth="yes"/>
      <point x="385" y="339"/>
      <point x="370" y="372"/>
      <point x="329" y="372" type="curve" smooth="yes"/>
      <point x="268" y="372"/>
      <point x="244" y="310"/>
    </contour>
    <contour>
      <point x="695" y="398" type="curve" smooth="yes"/>
      <point x="662" y="398"/>
      <point x="632" y="377"/>
      <point x="616" y="321" type="curve"/>
      <point x="755" y="321" type="line"/>
      <point x="758" y="364"/>
      <point x="741" y="398"/>
    </contour>
  </outline>
</glyph>
